<?xml version="1.0" standalone="no"?>
<!DOCTYPE svg PUBLIC "-//W3C//DTD SVG 1.1//EN" "http://www.w3.org/Graphics/SVG/1.1/DTD/svg11.dtd">

<svg width="1140" height="340" style="background:#f0f0f0" 
  xmlns="http://www.w3.org/2000/svg"
  xmlns:xlink="http://www.w3.org/1999/xlink">


<marker id="arrow" viewBox="-5 -10 10 20" orient="auto" markerUnits="strokeWidth" markerWidth="1.8" markerHeight="1.8">
<polygon points="0,-10 5,0 0,10" stroke="none" style="fill:#f00000; fill-opacity:0.6"/>
</marker>
<g>
<rect x="20" y="20" width="100" height="100" style="stroke:#808080; fill:#f0f0f0"/>
<g style="stroke:#404040; fill:#404040">
<text x="30" y="50" font-size="20">
へ
</text>
<text x="50" y="60" font-size="16">
ぬ
</text>
</g>
</g>
<g>
<rect x="20" y="120" width="100" height="100" style="stroke:#808080; fill:#f0f0f0"/>
<g style="stroke:#404040; fill:#404040">
<text x="30" y="150" font-size="20">
ま
</text>
<text x="50" y="160" font-size="16">
ゆ
</text>
</g>
</g>
<g>
<rect x="20" y="220" width="100" height="100" style="stroke:#808080; fill:#f0f0f0"/>
<g style="stroke:#404040; fill:#404040">
<text x="30" y="250" font-size="20">
そ
</text>
<text x="50" y="260" font-size="16">
や
</text>
</g>
</g>
<g>
<rect x="120" y="20" width="100" height="100" style="stroke:#808080; fill:#f0f0f0"/>
<g style="stroke:#404040; fill:#404040">
<text x="130" y="50" font-size="20">
け
</text>
<text x="150" y="60" font-size="16">
む
</text>
</g>
</g>
<g>
<rect x="120" y="120" width="100" height="100" style="stroke:#808080; fill:#f0f0f0"/>
<g style="stroke:#404040; fill:#404040">
<text x="130" y="150" font-size="20">
う
</text>
<text x="150" y="160" font-size="16">
せ
</text>
</g>
</g>
<g>
<rect x="120" y="220" width="100" height="100" style="stroke:#808080; fill:#f0f0f0"/>
<g style="stroke:#404040; fill:#404040">
<text x="130" y="250" font-size="20">
も
</text>
<text x="150" y="260" font-size="16">
ら
</text>
</g>
</g>
<g>
<rect x="220" y="20" width="100" height="100" style="stroke:#808080; fill:#f0f0f0"/>
<g style="stroke:#404040; fill:#404040">
<text x="230" y="50" font-size="20">
て
</text>
<text x="250" y="60" font-size="16">
よ
</text>
</g>
</g>
<g>
<rect x="220" y="120" width="100" height="100" style="stroke:#808080; fill:#f0f0f0"/>
<g style="stroke:#404040; fill:#404040">
<text x="230" y="150" font-size="20">
の
</text>
<text x="250" y="160" font-size="16">
ん
</text>
</g>
</g>
<g>
<rect x="220" y="220" width="100" height="100" style="stroke:#808080; fill:#f0f0f0"/>
<g style="stroke:#404040; fill:#404040">
<text x="230" y="250" font-size="20">
と
</text>
<text x="250" y="260" font-size="16">
わ
</text>
</g>
</g>
<g>
<rect x="320" y="20" width="100" height="100" style="stroke:#808080; fill:#f0f0f0"/>
<g style="stroke:#404040; fill:#404040">
<text x="330" y="50" font-size="20">
は
</text>
<text x="350" y="60" font-size="16">
ね
</text>
</g>
</g>
<g>
<rect x="320" y="120" width="100" height="100" style="stroke:#808080; fill:#f0f0f0"/>
<g style="stroke:#404040; fill:#404040">
<text x="330" y="150" font-size="20">
し
</text>
<text x="350" y="160" font-size="16">
を
</text>
</g>
</g>
<g>
<rect x="320" y="220" width="100" height="100" style="stroke:#808080; fill:#f0f0f0"/>
<g style="stroke:#404040; fill:#404040">
<text x="330" y="250" font-size="20">
か
</text>
<text x="350" y="260" font-size="16">
め
</text>
</g>
</g>
<g>
<rect x="420" y="20" width="100" height="100" style="stroke:#808080; fill:#f0f0f0"/>
<g style="stroke:#404040; fill:#404040">
<text x="430" y="50" font-size="20">
★
</text>
<text x="450" y="60" font-size="16">
★
</text>
</g>
</g>
<g>
<rect x="420" y="120" width="100" height="100" style="stroke:#808080; fill:#f0f0f0"/>
<g style="stroke:#404040; fill:#404040">
<text x="430" y="150" font-size="20">
、
</text>
<text x="450" y="160" font-size="16">
に
</text>
</g>
</g>
<g>
<rect x="420" y="220" width="100" height="100" style="stroke:#808080; fill:#f0f0f0"/>
<g style="stroke:#404040; fill:#404040">
<text x="430" y="250" font-size="20">
こ
</text>
<text x="450" y="260" font-size="16">
み
</text>
</g>
</g>
<g>
<rect x="620" y="20" width="100" height="100" style="stroke:#808080; fill:#f0f0f0"/>
<g style="stroke:#404040; fill:#404040">
<text x="630" y="50" font-size="20">
★
</text>
<text x="650" y="60" font-size="16">
★
</text>
</g>
</g>
<g>
<rect x="620" y="120" width="100" height="100" style="stroke:#808080; fill:#f0f0f0"/>
<g style="stroke:#404040; fill:#404040">
<text x="630" y="150" font-size="20">
あ
</text>
<text x="650" y="160" font-size="16">
ち
</text>
</g>
</g>
<g>
<rect x="620" y="220" width="100" height="100" style="stroke:#808080; fill:#f0f0f0"/>
<g style="stroke:#404040; fill:#404040">
<text x="630" y="250" font-size="20">
く
</text>
<text x="650" y="260" font-size="16">
★
</text>
</g>
</g>
<g>
<rect x="720" y="20" width="100" height="100" style="stroke:#808080; fill:#f0f0f0"/>
<g style="stroke:#404040; fill:#404040">
<text x="730" y="50" font-size="20">
す
</text>
<text x="750" y="60" font-size="16">
え
</text>
</g>
</g>
<g>
<rect x="720" y="120" width="100" height="100" style="stroke:#808080; fill:#f0f0f0"/>
<g style="stroke:#404040; fill:#404040">
<text x="730" y="150" font-size="20">
い
</text>
<text x="750" y="160" font-size="16">
ろ
</text>
</g>
</g>
<g>
<rect x="720" y="220" width="100" height="100" style="stroke:#808080; fill:#f0f0f0"/>
<g style="stroke:#404040; fill:#404040">
<text x="730" y="250" font-size="20">
っ
</text>
<text x="750" y="260" font-size="16">
き
</text>
</g>
</g>
<g>
<rect x="820" y="20" width="100" height="100" style="stroke:#808080; fill:#f0f0f0"/>
<g style="stroke:#404040; fill:#404040">
<text x="830" y="50" font-size="20">
る
</text>
<text x="850" y="60" font-size="16">
さ
</text>
</g>
</g>
<g>
<rect x="820" y="120" width="100" height="100" style="stroke:#808080; fill:#f0f0f0"/>
<g style="stroke:#404040; fill:#404040">
<text x="830" y="150" font-size="20">
な
</text>
<text x="850" y="160" font-size="16">
ん
</text>
</g>
</g>
<g>
<rect x="820" y="220" width="100" height="100" style="stroke:#808080; fill:#f0f0f0"/>
<g style="stroke:#404040; fill:#404040">
<text x="830" y="250" font-size="20">
た
</text>
<text x="850" y="260" font-size="16">
お
</text>
</g>
</g>
<g>
<rect x="920" y="20" width="100" height="100" style="stroke:#808080; fill:#f0f0f0"/>
<g style="stroke:#404040; fill:#404040">
<text x="930" y="50" font-size="20">
れ
</text>
<text x="950" y="60" font-size="16">
ひ
</text>
</g>
</g>
<g>
<rect x="920" y="120" width="100" height="100" style="stroke:#808080; fill:#f0f0f0"/>
<g style="stroke:#404040; fill:#404040">
<text x="930" y="150" font-size="20">
。
</text>
<text x="950" y="160" font-size="16">
ふ
</text>
</g>
</g>
<g>
<rect x="920" y="220" width="100" height="100" style="stroke:#808080; fill:#f0f0f0"/>
<g style="stroke:#404040; fill:#404040">
<text x="930" y="250" font-size="20">
り
</text>
<text x="950" y="260" font-size="16">
ほ
</text>
</g>
</g>
<g>
<rect x="1020" y="20" width="100" height="100" style="stroke:#808080; fill:#f0f0f0"/>
<g style="stroke:#404040; fill:#404040">
<text x="1030" y="50" font-size="20">
…
</text>
<text x="1050" y="60" font-size="16">
小
</text>
</g>
</g>
<g>
<rect x="1020" y="120" width="100" height="100" style="stroke:#808080; fill:#f0f0f0"/>
<g style="stroke:#404040; fill:#404040">
<text x="1030" y="150" font-size="20">
ー
</text>
<text x="1050" y="160" font-size="16">
つ
</text>
</g>
</g>
<g>
<rect x="1020" y="220" width="100" height="100" style="stroke:#808080; fill:#f0f0f0"/>
<g style="stroke:#404040; fill:#404040">
<text x="1030" y="250" font-size="20">
・
</text>
<text x="1050" y="260" font-size="16">
？
</text>
</g>
</g>
<g style="stroke:#f00000" marker-end="url(#arrow)">
<line x1="470" y1="270" x2="270" y2="170" style="stroke-opacity:0.10484; stroke-width:10.484"/>
<line x1="270" y1="170" x2="370" y2="270" style="stroke-opacity:0.2785; stroke-width:27.85"/>
<line x1="370" y1="70" x2="270" y2="70" style="stroke-opacity:0.025; stroke-width:1.355"/>
<line x1="270" y1="70" x2="170" y2="170" style="stroke-opacity:0.26575; stroke-width:26.575"/>
<line x1="170" y1="170" x2="370" y2="170" style="stroke-opacity:0.15859; stroke-width:15.859"/>
<line x1="370" y1="170" x2="170" y2="170" style="stroke-opacity:0.21596; stroke-width:21.596"/>
<line x1="770" y1="170" x2="870" y2="170" style="stroke-opacity:0.45352; stroke-width:45.352"/>
<line x1="170" y1="170" x2="270" y2="170" style="stroke-opacity:0.21113; stroke-width:21.113"/>
<line x1="270" y1="170" x2="270" y2="70" style="stroke-opacity:0.23972; stroke-width:23.972"/>
<line x1="170" y1="170" x2="70" y2="270" style="stroke-opacity:0.0332; stroke-width:3.32"/>
<line x1="70" y1="270" x2="270" y2="70" style="stroke-opacity:0.025; stroke-width:0.461"/>
<line x1="870" y1="170" x2="770" y2="170" style="stroke-opacity:0.45576; stroke-width:45.576"/>
<line x1="270" y1="70" x2="270" y2="170" style="stroke-opacity:0.14678; stroke-width:14.678"/>
<line x1="870" y1="170" x2="770" y2="270" style="stroke-opacity:0.09996; stroke-width:9.996"/>
<line x1="270" y1="170" x2="370" y2="170" style="stroke-opacity:0.48697; stroke-width:48.697"/>
<line x1="270" y1="170" x2="170" y2="170" style="stroke-opacity:0.11782; stroke-width:11.782"/>
<line x1="170" y1="170" x2="470" y2="270" style="stroke-opacity:0.02877; stroke-width:2.877"/>
<line x1="470" y1="270" x2="170" y2="170" style="stroke-opacity:0.10425; stroke-width:10.425"/>
<line x1="170" y1="270" x2="270" y2="170" style="stroke-opacity:0.13117; stroke-width:13.117"/>
<line x1="370" y1="170" x2="270" y2="170" style="stroke-opacity:0.40838; stroke-width:40.838"/>
<line x1="870" y1="70" x2="670" y2="270" style="stroke-opacity:0.07776; stroke-width:7.776"/>
<line x1="970" y1="270" x2="670" y2="170" style="stroke-opacity:0.025; stroke-width:1.226"/>
<line x1="670" y1="170" x2="770" y2="170" style="stroke-opacity:0.06389; stroke-width:6.389"/>
<line x1="770" y1="170" x2="870" y2="70" style="stroke-opacity:0.12145; stroke-width:12.145"/>
<line x1="870" y1="70" x2="970" y2="170" style="stroke-opacity:0.10277; stroke-width:10.277"/>
<line x1="70" y1="170" x2="370" y2="170" style="stroke-opacity:0.03811; stroke-width:3.811"/>
<line x1="370" y1="170" x2="370" y2="70" style="stroke-opacity:0.03516; stroke-width:3.516"/>
<line x1="370" y1="70" x2="470" y2="170" style="stroke-opacity:0.07984; stroke-width:7.984"/>
<line x1="770" y1="170" x2="1070" y2="170" style="stroke-opacity:0.07085; stroke-width:7.085"/>
<line x1="1070" y1="170" x2="870" y2="170" style="stroke-opacity:0.09011; stroke-width:9.011"/>
<line x1="870" y1="170" x2="1070" y2="270" style="stroke-opacity:0.025; stroke-width:1.798"/>
<line x1="1070" y1="270" x2="670" y2="270" style="stroke-opacity:0.025; stroke-width:0.36"/>
<line x1="670" y1="270" x2="1070" y2="170" style="stroke-opacity:0.025; stroke-width:0.662"/>
<line x1="870" y1="170" x2="1070" y2="170" style="stroke-opacity:0.0923; stroke-width:9.23"/>
<line x1="1070" y1="170" x2="970" y2="170" style="stroke-opacity:0.025; stroke-width:0.946"/>
<line x1="870" y1="270" x2="770" y2="270" style="stroke-opacity:0.04069; stroke-width:4.069"/>
<line x1="770" y1="270" x2="770" y2="170" style="stroke-opacity:0.04226; stroke-width:4.226"/>
<line x1="770" y1="170" x2="1070" y2="270" style="stroke-opacity:0.025; stroke-width:0.784"/>
<line x1="970" y1="70" x2="770" y2="170" style="stroke-opacity:0.06306; stroke-width:6.306"/>
<line x1="370" y1="270" x2="270" y2="170" style="stroke-opacity:0.20314; stroke-width:20.314"/>
<line x1="270" y1="170" x2="470" y2="170" style="stroke-opacity:0.13314; stroke-width:13.314"/>
<line x1="470" y1="170" x2="370" y2="70" style="stroke-opacity:0.03349; stroke-width:3.349"/>
<line x1="370" y1="70" x2="370" y2="270" style="stroke-opacity:0.025; stroke-width:1.872"/>
<line x1="870" y1="170" x2="770" y2="70" style="stroke-opacity:0.11348; stroke-width:11.348"/>
<line x1="370" y1="270" x2="370" y2="170" style="stroke-opacity:0.05964; stroke-width:5.964"/>
<line x1="370" y1="170" x2="170" y2="270" style="stroke-opacity:0.03619; stroke-width:3.619"/>
<line x1="770" y1="70" x2="870" y2="170" style="stroke-opacity:0.06302; stroke-width:6.302"/>
<line x1="170" y1="270" x2="370" y2="170" style="stroke-opacity:0.03786; stroke-width:3.786"/>
<line x1="970" y1="270" x2="1070" y2="170" style="stroke-opacity:0.03989; stroke-width:3.989"/>
<line x1="1070" y1="170" x2="770" y2="70" style="stroke-opacity:0.025; stroke-width:1.964"/>
<line x1="870" y1="270" x2="770" y2="170" style="stroke-opacity:0.18151; stroke-width:18.151"/>
<line x1="770" y1="170" x2="770" y2="270" style="stroke-opacity:0.12288; stroke-width:12.288"/>
<line x1="770" y1="270" x2="870" y2="70" style="stroke-opacity:0.025; stroke-width:2.081"/>
<line x1="670" y1="270" x2="970" y2="170" style="stroke-opacity:0.025; stroke-width:1.179"/>
<line x1="370" y1="170" x2="70" y2="270" style="stroke-opacity:0.025; stroke-width:1.806"/>
<line x1="70" y1="270" x2="270" y2="170" style="stroke-opacity:0.0801; stroke-width:8.01"/>
<line x1="370" y1="270" x2="470" y2="270" style="stroke-opacity:0.02529; stroke-width:2.529"/>
<line x1="270" y1="70" x2="370" y2="170" style="stroke-opacity:0.05131; stroke-width:5.131"/>
<line x1="370" y1="170" x2="70" y2="170" style="stroke-opacity:0.04305; stroke-width:4.305"/>
<line x1="70" y1="170" x2="170" y2="170" style="stroke-opacity:0.0994; stroke-width:9.94"/>
<line x1="370" y1="70" x2="270" y2="170" style="stroke-opacity:0.09613; stroke-width:9.613"/>
<line x1="270" y1="170" x2="170" y2="270" style="stroke-opacity:0.09004; stroke-width:9.004"/>
<line x1="770" y1="170" x2="870" y2="270" style="stroke-opacity:0.14689; stroke-width:14.689"/>
<line x1="870" y1="270" x2="970" y2="270" style="stroke-opacity:0.06043; stroke-width:6.043"/>
<line x1="970" y1="270" x2="770" y2="170" style="stroke-opacity:0.02501; stroke-width:2.501"/>
<line x1="270" y1="70" x2="470" y2="170" style="stroke-opacity:0.0635; stroke-width:6.35"/>
<line x1="470" y1="170" x2="270" y2="270" style="stroke-opacity:0.03338; stroke-width:3.338"/>
<line x1="270" y1="270" x2="170" y2="170" style="stroke-opacity:0.07534; stroke-width:7.534"/>
<line x1="170" y1="170" x2="270" y2="70" style="stroke-opacity:0.08125; stroke-width:8.125"/>
<line x1="870" y1="170" x2="970" y2="170" style="stroke-opacity:0.06593; stroke-width:6.593"/>
<line x1="970" y1="170" x2="1070" y2="170" style="stroke-opacity:0.025; stroke-width:2.156"/>
<line x1="270" y1="170" x2="270" y2="270" style="stroke-opacity:0.14466; stroke-width:14.466"/>
<line x1="270" y1="270" x2="270" y2="170" style="stroke-opacity:0.09197; stroke-width:9.197"/>
<line x1="770" y1="70" x2="870" y2="70" style="stroke-opacity:0.06039; stroke-width:6.039"/>
<line x1="870" y1="70" x2="770" y2="170" style="stroke-opacity:0.09187; stroke-width:9.187"/>
<line x1="770" y1="170" x2="770" y2="70" style="stroke-opacity:0.0544; stroke-width:5.44"/>
<line x1="770" y1="70" x2="1070" y2="270" style="stroke-opacity:0.025; stroke-width:0.695"/>
<line x1="1070" y1="270" x2="970" y2="170" style="stroke-opacity:0.025; stroke-width:0.504"/>
<line x1="970" y1="170" x2="970" y2="70" style="stroke-opacity:0.025; stroke-width:0.94"/>
<line x1="970" y1="70" x2="770" y2="70" style="stroke-opacity:0.025; stroke-width:0.418"/>
<line x1="770" y1="70" x2="970" y2="270" style="stroke-opacity:0.025; stroke-width:0.619"/>
<line x1="770" y1="170" x2="670" y2="170" style="stroke-opacity:0.07826; stroke-width:7.826"/>
<line x1="670" y1="170" x2="870" y2="70" style="stroke-opacity:0.05556; stroke-width:5.556"/>
<line x1="270" y1="270" x2="370" y2="70" style="stroke-opacity:0.025; stroke-width:2.319"/>
<line x1="270" y1="270" x2="370" y2="170" style="stroke-opacity:0.07553; stroke-width:7.553"/>
<line x1="270" y1="270" x2="370" y2="270" style="stroke-opacity:0.03964; stroke-width:3.964"/>
<line x1="370" y1="270" x2="170" y2="270" style="stroke-opacity:0.06263; stroke-width:6.263"/>
<line x1="470" y1="170" x2="270" y2="170" style="stroke-opacity:0.15627; stroke-width:15.627"/>
<line x1="870" y1="70" x2="870" y2="170" style="stroke-opacity:0.09256; stroke-width:9.256"/>
<line x1="70" y1="170" x2="270" y2="170" style="stroke-opacity:0.065; stroke-width:6.5"/>
<line x1="670" y1="270" x2="770" y2="170" style="stroke-opacity:0.04265; stroke-width:4.265"/>
<line x1="270" y1="70" x2="470" y2="270" style="stroke-opacity:0.025; stroke-width:2.262"/>
<line x1="770" y1="270" x2="670" y2="270" style="stroke-opacity:0.03298; stroke-width:3.298"/>
<line x1="370" y1="170" x2="270" y2="70" style="stroke-opacity:0.12796; stroke-width:12.796"/>
<line x1="270" y1="70" x2="370" y2="70" style="stroke-opacity:0.05176; stroke-width:5.176"/>
<line x1="870" y1="270" x2="870" y2="170" style="stroke-opacity:0.11335; stroke-width:11.335"/>
<line x1="970" y1="270" x2="670" y2="270" style="stroke-opacity:0.025; stroke-width:2.429"/>
<line x1="470" y1="170" x2="470" y2="270" style="stroke-opacity:0.03919; stroke-width:3.919"/>
<line x1="470" y1="170" x2="270" y2="70" style="stroke-opacity:0.04518; stroke-width:4.518"/>
<line x1="370" y1="170" x2="170" y2="70" style="stroke-opacity:0.04325; stroke-width:4.325"/>
<line x1="170" y1="70" x2="270" y2="170" style="stroke-opacity:0.10315; stroke-width:10.315"/>
<line x1="470" y1="170" x2="70" y2="170" style="stroke-opacity:0.02954; stroke-width:2.954"/>
<line x1="270" y1="170" x2="470" y2="270" style="stroke-opacity:0.11479; stroke-width:11.479"/>
<line x1="470" y1="270" x2="70" y2="170" style="stroke-opacity:0.025; stroke-width:0.93"/>
<line x1="470" y1="270" x2="270" y2="270" style="stroke-opacity:0.05337; stroke-width:5.337"/>
<line x1="270" y1="270" x2="170" y2="270" style="stroke-opacity:0.0278; stroke-width:2.78"/>
<line x1="370" y1="270" x2="470" y2="170" style="stroke-opacity:0.0724; stroke-width:7.24"/>
<line x1="470" y1="170" x2="70" y2="270" style="stroke-opacity:0.04487; stroke-width:4.487"/>
<line x1="970" y1="70" x2="870" y2="170" style="stroke-opacity:0.0824; stroke-width:8.24"/>
<line x1="270" y1="170" x2="370" y2="70" style="stroke-opacity:0.09612; stroke-width:9.612"/>
<line x1="770" y1="170" x2="970" y2="70" style="stroke-opacity:0.03008; stroke-width:3.008"/>
<line x1="370" y1="170" x2="270" y2="270" style="stroke-opacity:0.04119; stroke-width:4.119"/>
<line x1="970" y1="170" x2="670" y2="170" style="stroke-opacity:0.025; stroke-width:1.205"/>
<line x1="870" y1="170" x2="670" y2="170" style="stroke-opacity:0.06185; stroke-width:6.185"/>
<line x1="170" y1="270" x2="470" y2="170" style="stroke-opacity:0.03953; stroke-width:3.953"/>
<line x1="970" y1="170" x2="870" y2="270" style="stroke-opacity:0.0388; stroke-width:3.88"/>
<line x1="270" y1="70" x2="370" y2="270" style="stroke-opacity:0.025; stroke-width:2.142"/>
<line x1="870" y1="70" x2="1070" y2="70" style="stroke-opacity:0.025; stroke-width:0.374"/>
<line x1="1070" y1="70" x2="970" y2="170" style="stroke-opacity:0.025; stroke-width:0.926"/>
<line x1="770" y1="70" x2="770" y2="170" style="stroke-opacity:0.0824; stroke-width:8.24"/>
<line x1="870" y1="270" x2="1070" y2="170" style="stroke-opacity:0.02718; stroke-width:2.718"/>
<line x1="970" y1="170" x2="870" y2="170" style="stroke-opacity:0.06772; stroke-width:6.772"/>
<line x1="870" y1="170" x2="670" y2="270" style="stroke-opacity:0.08044; stroke-width:8.044"/>
<line x1="170" y1="170" x2="470" y2="170" style="stroke-opacity:0.04393; stroke-width:4.393"/>
<line x1="870" y1="170" x2="870" y2="270" style="stroke-opacity:0.14377; stroke-width:14.377"/>
<line x1="870" y1="70" x2="970" y2="70" style="stroke-opacity:0.04131; stroke-width:4.131"/>
<line x1="970" y1="70" x2="870" y2="70" style="stroke-opacity:0.03745; stroke-width:3.745"/>
<line x1="970" y1="170" x2="770" y2="270" style="stroke-opacity:0.025; stroke-width:0.99"/>
<line x1="770" y1="270" x2="1070" y2="170" style="stroke-opacity:0.025; stroke-width:1.905"/>
<line x1="870" y1="170" x2="970" y2="70" style="stroke-opacity:0.06728; stroke-width:6.728"/>
<line x1="970" y1="70" x2="770" y2="270" style="stroke-opacity:0.025; stroke-width:1.709"/>
<line x1="770" y1="270" x2="770" y2="70" style="stroke-opacity:0.025; stroke-width:0.717"/>
<line x1="470" y1="170" x2="370" y2="170" style="stroke-opacity:0.08415; stroke-width:8.415"/>
<line x1="870" y1="170" x2="870" y2="70" style="stroke-opacity:0.13372; stroke-width:13.372"/>
<line x1="670" y1="270" x2="870" y2="70" style="stroke-opacity:0.0268; stroke-width:2.68"/>
<line x1="870" y1="70" x2="670" y2="170" style="stroke-opacity:0.025; stroke-width:0.625"/>
<line x1="170" y1="170" x2="370" y2="70" style="stroke-opacity:0.025; stroke-width:2.435"/>
<line x1="70" y1="270" x2="370" y2="170" style="stroke-opacity:0.03472; stroke-width:3.472"/>
<line x1="270" y1="170" x2="70" y2="270" style="stroke-opacity:0.07684; stroke-width:7.684"/>
<line x1="70" y1="270" x2="170" y2="170" style="stroke-opacity:0.06055; stroke-width:6.055"/>
<line x1="370" y1="170" x2="470" y2="270" style="stroke-opacity:0.03616; stroke-width:3.616"/>
<line x1="270" y1="170" x2="70" y2="170" style="stroke-opacity:0.06891; stroke-width:6.891"/>
<line x1="870" y1="270" x2="670" y2="170" style="stroke-opacity:0.03151; stroke-width:3.151"/>
<line x1="170" y1="270" x2="270" y2="70" style="stroke-opacity:0.025; stroke-width:1.063"/>
<line x1="370" y1="170" x2="470" y2="170" style="stroke-opacity:0.05134; stroke-width:5.134"/>
<line x1="470" y1="270" x2="170" y2="270" style="stroke-opacity:0.025; stroke-width:0.634"/>
<line x1="1070" y1="170" x2="770" y2="170" style="stroke-opacity:0.07786; stroke-width:7.786"/>
<line x1="670" y1="170" x2="870" y2="170" style="stroke-opacity:0.07912; stroke-width:7.912"/>
<line x1="270" y1="270" x2="470" y2="170" style="stroke-opacity:0.03814; stroke-width:3.814"/>
<line x1="770" y1="170" x2="670" y2="270" style="stroke-opacity:0.0713; stroke-width:7.13"/>
<line x1="770" y1="270" x2="870" y2="170" style="stroke-opacity:0.10017; stroke-width:10.017"/>
<line x1="670" y1="270" x2="970" y2="70" style="stroke-opacity:0.03896; stroke-width:3.896"/>
<line x1="270" y1="70" x2="70" y2="170" style="stroke-opacity:0.025; stroke-width:1.699"/>
<line x1="970" y1="70" x2="870" y2="270" style="stroke-opacity:0.03645; stroke-width:3.645"/>
<line x1="170" y1="270" x2="470" y2="270" style="stroke-opacity:0.025; stroke-width:0.914"/>
<line x1="470" y1="270" x2="70" y2="270" style="stroke-opacity:0.025; stroke-width:0.642"/>
<line x1="470" y1="170" x2="370" y2="270" style="stroke-opacity:0.0458; stroke-width:4.58"/>
<line x1="370" y1="70" x2="370" y2="170" style="stroke-opacity:0.03409; stroke-width:3.409"/>
<line x1="70" y1="70" x2="370" y2="270" style="stroke-opacity:0.025; stroke-width:0.086"/>
<line x1="370" y1="270" x2="70" y2="170" style="stroke-opacity:0.025; stroke-width:1.167"/>
<line x1="670" y1="270" x2="870" y2="170" style="stroke-opacity:0.11159; stroke-width:11.159"/>
<line x1="870" y1="170" x2="970" y2="270" style="stroke-opacity:0.06123; stroke-width:6.123"/>
<line x1="970" y1="270" x2="870" y2="170" style="stroke-opacity:0.07782; stroke-width:7.782"/>
<line x1="870" y1="270" x2="770" y2="70" style="stroke-opacity:0.025; stroke-width:1.877"/>
<line x1="770" y1="70" x2="970" y2="170" style="stroke-opacity:0.025; stroke-width:1.015"/>
<line x1="970" y1="170" x2="770" y2="170" style="stroke-opacity:0.03965; stroke-width:3.965"/>
<line x1="370" y1="270" x2="270" y2="270" style="stroke-opacity:0.03254; stroke-width:3.254"/>
<line x1="170" y1="270" x2="70" y2="70" style="stroke-opacity:0.025; stroke-width:0.463"/>
<line x1="70" y1="70" x2="270" y2="70" style="stroke-opacity:0.025; stroke-width:0.451"/>
<line x1="970" y1="170" x2="870" y2="70" style="stroke-opacity:0.025; stroke-width:2.007"/>
<line x1="70" y1="70" x2="270" y2="170" style="stroke-opacity:0.03798; stroke-width:3.798"/>
<line x1="270" y1="270" x2="170" y2="70" style="stroke-opacity:0.025; stroke-width:1.404"/>
<line x1="170" y1="70" x2="270" y2="70" style="stroke-opacity:0.025; stroke-width:1.988"/>
<line x1="770" y1="170" x2="970" y2="170" style="stroke-opacity:0.06727; stroke-width:6.727"/>
<line x1="670" y1="270" x2="870" y2="270" style="stroke-opacity:0.025; stroke-width:1.687"/>
<line x1="1070" y1="170" x2="870" y2="70" style="stroke-opacity:0.025; stroke-width:2.072"/>
<line x1="370" y1="170" x2="370" y2="270" style="stroke-opacity:0.10441; stroke-width:10.441"/>
<line x1="170" y1="170" x2="270" y2="270" style="stroke-opacity:0.03619; stroke-width:3.619"/>
<line x1="870" y1="70" x2="770" y2="270" style="stroke-opacity:0.025; stroke-width:1.715"/>
<line x1="670" y1="170" x2="670" y2="270" style="stroke-opacity:0.025; stroke-width:1.555"/>
<line x1="270" y1="270" x2="470" y2="270" style="stroke-opacity:0.03047; stroke-width:3.047"/>
<line x1="270" y1="270" x2="70" y2="170" style="stroke-opacity:0.025; stroke-width:0.867"/>
<line x1="70" y1="170" x2="270" y2="70" style="stroke-opacity:0.025; stroke-width:1.788"/>
<line x1="770" y1="270" x2="870" y2="270" style="stroke-opacity:0.07828; stroke-width:7.828"/>
<line x1="670" y1="270" x2="770" y2="70" style="stroke-opacity:0.025; stroke-width:1.527"/>
<line x1="170" y1="170" x2="170" y2="270" style="stroke-opacity:0.025; stroke-width:1.66"/>
<line x1="970" y1="70" x2="1070" y2="170" style="stroke-opacity:0.025; stroke-width:2.139"/>
<line x1="370" y1="270" x2="170" y2="70" style="stroke-opacity:0.025; stroke-width:1.908"/>
<line x1="170" y1="70" x2="470" y2="170" style="stroke-opacity:0.025; stroke-width:0.971"/>
<line x1="670" y1="170" x2="970" y2="270" style="stroke-opacity:0.025; stroke-width:0.944"/>
<line x1="70" y1="70" x2="370" y2="170" style="stroke-opacity:0.025; stroke-width:0.234"/>
<line x1="870" y1="270" x2="970" y2="170" style="stroke-opacity:0.07563; stroke-width:7.563"/>
<line x1="970" y1="170" x2="670" y2="270" style="stroke-opacity:0.025; stroke-width:1.282"/>
<line x1="370" y1="270" x2="70" y2="270" style="stroke-opacity:0.025; stroke-width:1.231"/>
<line x1="770" y1="70" x2="870" y2="270" style="stroke-opacity:0.025; stroke-width:1.965"/>
<line x1="370" y1="70" x2="470" y2="270" style="stroke-opacity:0.025; stroke-width:1.024"/>
<line x1="1070" y1="170" x2="670" y2="270" style="stroke-opacity:0.025; stroke-width:1.721"/>
<line x1="470" y1="170" x2="170" y2="170" style="stroke-opacity:0.025; stroke-width:2.392"/>
<line x1="870" y1="70" x2="1070" y2="170" style="stroke-opacity:0.03263; stroke-width:3.263"/>
<line x1="970" y1="70" x2="670" y2="170" style="stroke-opacity:0.025; stroke-width:0.561"/>
<line x1="170" y1="70" x2="170" y2="270" style="stroke-opacity:0.025; stroke-width:0.937"/>
<line x1="170" y1="270" x2="270" y2="270" style="stroke-opacity:0.025; stroke-width:2.453"/>
<line x1="770" y1="270" x2="970" y2="270" style="stroke-opacity:0.025; stroke-width:2.185"/>
<line x1="970" y1="270" x2="870" y2="270" style="stroke-opacity:0.025; stroke-width:1.249"/>
<line x1="870" y1="270" x2="670" y2="270" style="stroke-opacity:0.025; stroke-width:2.067"/>
<line x1="1070" y1="170" x2="970" y2="270" style="stroke-opacity:0.025; stroke-width:1.061"/>
<line x1="870" y1="70" x2="1070" y2="270" style="stroke-opacity:0.025; stroke-width:0.92"/>
<line x1="1070" y1="270" x2="770" y2="170" style="stroke-opacity:0.025; stroke-width:1.098"/>
<line x1="70" y1="270" x2="270" y2="270" style="stroke-opacity:0.025; stroke-width:0.92"/>
<line x1="70" y1="170" x2="270" y2="270" style="stroke-opacity:0.025; stroke-width:0.84"/>
<line x1="370" y1="270" x2="270" y2="70" style="stroke-opacity:0.03671; stroke-width:3.671"/>
<line x1="670" y1="170" x2="770" y2="270" style="stroke-opacity:0.025; stroke-width:1.449"/>
<line x1="670" y1="270" x2="670" y2="170" style="stroke-opacity:0.025; stroke-width:1.276"/>
<line x1="170" y1="270" x2="170" y2="170" style="stroke-opacity:0.025; stroke-width:1.254"/>
<line x1="170" y1="170" x2="170" y2="70" style="stroke-opacity:0.02887; stroke-width:2.887"/>
<line x1="470" y1="270" x2="370" y2="270" style="stroke-opacity:0.025; stroke-width:1.713"/>
<line x1="270" y1="170" x2="170" y2="70" style="stroke-opacity:0.05985; stroke-width:5.985"/>
<line x1="670" y1="170" x2="870" y2="270" style="stroke-opacity:0.025; stroke-width:1.183"/>
<line x1="870" y1="170" x2="1070" y2="70" style="stroke-opacity:0.025; stroke-width:0.206"/>
<line x1="170" y1="170" x2="370" y2="270" style="stroke-opacity:0.06736; stroke-width:6.736"/>
<line x1="270" y1="270" x2="70" y2="270" style="stroke-opacity:0.025; stroke-width:0.509"/>
<line x1="70" y1="270" x2="170" y2="70" style="stroke-opacity:0.025; stroke-width:0.345"/>
<line x1="970" y1="270" x2="770" y2="70" style="stroke-opacity:0.025; stroke-width:1.384"/>
<line x1="170" y1="270" x2="70" y2="170" style="stroke-opacity:0.025; stroke-width:1.006"/>
<line x1="70" y1="170" x2="170" y2="270" style="stroke-opacity:0.025; stroke-width:0.543"/>
<line x1="70" y1="270" x2="470" y2="270" style="stroke-opacity:0.025; stroke-width:0.848"/>
<line x1="470" y1="170" x2="170" y2="270" style="stroke-opacity:0.025; stroke-width:2.435"/>
<line x1="170" y1="270" x2="370" y2="270" style="stroke-opacity:0.025; stroke-width:1.316"/>
<line x1="470" y1="270" x2="370" y2="70" style="stroke-opacity:0.025; stroke-width:0.671"/>
<line x1="270" y1="70" x2="270" y2="270" style="stroke-opacity:0.025; stroke-width:1.045"/>
<line x1="170" y1="270" x2="370" y2="70" style="stroke-opacity:0.025; stroke-width:0.946"/>
<line x1="770" y1="170" x2="970" y2="270" style="stroke-opacity:0.02996; stroke-width:2.996"/>
<line x1="770" y1="270" x2="670" y2="170" style="stroke-opacity:0.025; stroke-width:1.004"/>
<line x1="470" y1="270" x2="470" y2="170" style="stroke-opacity:0.025; stroke-width:1.731"/>
<line x1="670" y1="170" x2="970" y2="170" style="stroke-opacity:0.025; stroke-width:0.633"/>
<line x1="270" y1="70" x2="170" y2="270" style="stroke-opacity:0.02645; stroke-width:2.645"/>
<line x1="1070" y1="270" x2="870" y2="170" style="stroke-opacity:0.025; stroke-width:0.706"/>
<line x1="670" y1="170" x2="1070" y2="170" style="stroke-opacity:0.025; stroke-width:1.602"/>
<line x1="970" y1="70" x2="970" y2="270" style="stroke-opacity:0.025; stroke-width:0.25"/>
<line x1="770" y1="70" x2="1070" y2="170" style="stroke-opacity:0.025; stroke-width:0.492"/>
<line x1="1070" y1="170" x2="770" y2="270" style="stroke-opacity:0.025; stroke-width:1.439"/>
<line x1="870" y1="270" x2="1070" y2="70" style="stroke-opacity:0.025; stroke-width:0.375"/>
<line x1="770" y1="70" x2="770" y2="270" style="stroke-opacity:0.025; stroke-width:2.286"/>
<line x1="470" y1="270" x2="370" y2="170" style="stroke-opacity:0.0318; stroke-width:3.18"/>
<line x1="270" y1="270" x2="270" y2="70" style="stroke-opacity:0.025; stroke-width:1.63"/>
<line x1="370" y1="270" x2="170" y2="170" style="stroke-opacity:0.025; stroke-width:2.417"/>
<line x1="870" y1="70" x2="770" y2="70" style="stroke-opacity:0.025; stroke-width:1.537"/>
<line x1="70" y1="270" x2="370" y2="70" style="stroke-opacity:0.025; stroke-width:0.504"/>
<line x1="470" y1="270" x2="270" y2="70" style="stroke-opacity:0.025; stroke-width:1.267"/>
<line x1="370" y1="70" x2="170" y2="270" style="stroke-opacity:0.025; stroke-width:1.172"/>
<line x1="870" y1="270" x2="870" y2="70" style="stroke-opacity:0.025; stroke-width:2.387"/>
<line x1="870" y1="70" x2="870" y2="270" style="stroke-opacity:0.025; stroke-width:1.609"/>
<line x1="370" y1="270" x2="370" y2="70" style="stroke-opacity:0.025; stroke-width:1.004"/>
<line x1="470" y1="270" x2="170" y2="70" style="stroke-opacity:0.025; stroke-width:0.212"/>
<line x1="70" y1="270" x2="370" y2="270" style="stroke-opacity:0.025; stroke-width:2.352"/>
<line x1="970" y1="170" x2="970" y2="270" style="stroke-opacity:0.025; stroke-width:1.649"/>
<line x1="1070" y1="170" x2="1070" y2="270" style="stroke-opacity:0.025; stroke-width:0.762"/>
<line x1="370" y1="70" x2="70" y2="270" style="stroke-opacity:0.025; stroke-width:1.139"/>
<line x1="1070" y1="170" x2="870" y2="270" style="stroke-opacity:0.025; stroke-width:1.671"/>
<line x1="170" y1="70" x2="370" y2="70" style="stroke-opacity:0.025; stroke-width:0.414"/>
<line x1="370" y1="70" x2="70" y2="70" style="stroke-opacity:0.025; stroke-width:0.163"/>
<line x1="270" y1="70" x2="170" y2="70" style="stroke-opacity:0.025; stroke-width:0.816"/>
<line x1="770" y1="70" x2="670" y2="270" style="stroke-opacity:0.025; stroke-width:0.636"/>
<line x1="870" y1="270" x2="970" y2="70" style="stroke-opacity:0.025; stroke-width:1.398"/>
<line x1="770" y1="70" x2="970" y2="70" style="stroke-opacity:0.025; stroke-width:1.351"/>
<line x1="70" y1="270" x2="70" y2="170" style="stroke-opacity:0.025; stroke-width:0.839"/>
<line x1="770" y1="70" x2="670" y2="170" style="stroke-opacity:0.025; stroke-width:0.264"/>
<line x1="970" y1="270" x2="870" y2="70" style="stroke-opacity:0.025; stroke-width:0.438"/>
<line x1="970" y1="270" x2="970" y2="170" style="stroke-opacity:0.025; stroke-width:1.009"/>
<line x1="170" y1="70" x2="170" y2="170" style="stroke-opacity:0.025; stroke-width:0.08"/>
<line x1="170" y1="170" x2="70" y2="170" style="stroke-opacity:0.025; stroke-width:1.917"/>
<line x1="170" y1="70" x2="70" y2="170" style="stroke-opacity:0.025; stroke-width:0.179"/>
<line x1="670" y1="270" x2="1070" y2="70" style="stroke-opacity:0.025; stroke-width:0.08"/>
<line x1="470" y1="170" x2="170" y2="70" style="stroke-opacity:0.025; stroke-width:1.689"/>
<line x1="70" y1="170" x2="470" y2="170" style="stroke-opacity:0.025; stroke-width:0.736"/>
<line x1="370" y1="70" x2="70" y2="170" style="stroke-opacity:0.025; stroke-width:0.829"/>
<line x1="270" y1="70" x2="70" y2="270" style="stroke-opacity:0.025; stroke-width:0.75"/>
<line x1="170" y1="70" x2="370" y2="270" style="stroke-opacity:0.025; stroke-width:1.007"/>
<line x1="170" y1="270" x2="170" y2="70" style="stroke-opacity:0.025; stroke-width:0.613"/>
<line x1="70" y1="170" x2="370" y2="270" style="stroke-opacity:0.025; stroke-width:0.702"/>
<line x1="170" y1="270" x2="70" y2="270" style="stroke-opacity:0.025; stroke-width:0.543"/>
<line x1="670" y1="270" x2="970" y2="270" style="stroke-opacity:0.025; stroke-width:2.036"/>
<line x1="770" y1="270" x2="970" y2="70" style="stroke-opacity:0.025; stroke-width:0.786"/>
<line x1="70" y1="270" x2="470" y2="170" style="stroke-opacity:0.025; stroke-width:0.955"/>
<line x1="270" y1="170" x2="70" y2="70" style="stroke-opacity:0.025; stroke-width:1.835"/>
<line x1="70" y1="270" x2="170" y2="270" style="stroke-opacity:0.025; stroke-width:0.834"/>
<line x1="770" y1="70" x2="1070" y2="70" style="stroke-opacity:0.025; stroke-width:0.08"/>
<line x1="70" y1="170" x2="470" y2="270" style="stroke-opacity:0.025; stroke-width:0.393"/>
<line x1="970" y1="70" x2="970" y2="170" style="stroke-opacity:0.025; stroke-width:0.136"/>
<line x1="970" y1="270" x2="970" y2="70" style="stroke-opacity:0.025; stroke-width:0.499"/>
<line x1="670" y1="270" x2="1070" y2="270" style="stroke-opacity:0.025; stroke-width:0.662"/>
<line x1="1070" y1="270" x2="970" y2="270" style="stroke-opacity:0.025; stroke-width:0.438"/>
<line x1="970" y1="270" x2="770" y2="270" style="stroke-opacity:0.025; stroke-width:0.893"/>
<line x1="670" y1="270" x2="770" y2="270" style="stroke-opacity:0.025; stroke-width:0.598"/>
<line x1="970" y1="270" x2="1070" y2="70" style="stroke-opacity:0.025; stroke-width:0.08"/>
<line x1="70" y1="170" x2="370" y2="70" style="stroke-opacity:0.025; stroke-width:0.266"/>
<line x1="170" y1="70" x2="470" y2="270" style="stroke-opacity:0.025; stroke-width:0.279"/>
<line x1="70" y1="170" x2="70" y2="270" style="stroke-opacity:0.025; stroke-width:0.522"/>
<line x1="970" y1="70" x2="670" y2="270" style="stroke-opacity:0.025; stroke-width:0.294"/>
<line x1="870" y1="70" x2="970" y2="270" style="stroke-opacity:0.025; stroke-width:0.682"/>
<line x1="670" y1="170" x2="770" y2="70" style="stroke-opacity:0.025; stroke-width:0.544"/>
<line x1="1070" y1="270" x2="870" y2="270" style="stroke-opacity:0.025; stroke-width:0.406"/>
<line x1="370" y1="70" x2="170" y2="70" style="stroke-opacity:0.025; stroke-width:0.718"/>
<line x1="170" y1="70" x2="270" y2="270" style="stroke-opacity:0.025; stroke-width:0.4"/>
<line x1="270" y1="270" x2="70" y2="70" style="stroke-opacity:0.025; stroke-width:0.24"/>
<line x1="470" y1="170" x2="70" y2="70" style="stroke-opacity:0.025; stroke-width:0.372"/>
<line x1="370" y1="70" x2="170" y2="170" style="stroke-opacity:0.025; stroke-width:0.559"/>
<line x1="970" y1="70" x2="1070" y2="270" style="stroke-opacity:0.025; stroke-width:0.08"/>
<line x1="370" y1="70" x2="270" y2="270" style="stroke-opacity:0.025; stroke-width:0.923"/>
<line x1="670" y1="170" x2="970" y2="70" style="stroke-opacity:0.025; stroke-width:0.414"/>
<line x1="1070" y1="170" x2="670" y2="170" style="stroke-opacity:0.025; stroke-width:0.473"/>
<line x1="770" y1="270" x2="970" y2="170" style="stroke-opacity:0.025; stroke-width:0.654"/>
<line x1="170" y1="170" x2="70" y2="70" style="stroke-opacity:0.025; stroke-width:0.616"/>
<line x1="670" y1="170" x2="1070" y2="270" style="stroke-opacity:0.025; stroke-width:0.122"/>
<line x1="1070" y1="270" x2="770" y2="70" style="stroke-opacity:0.025; stroke-width:0.715"/>
<line x1="70" y1="170" x2="170" y2="70" style="stroke-opacity:0.025; stroke-width:0.147"/>
<line x1="1070" y1="270" x2="870" y2="70" style="stroke-opacity:0.025; stroke-width:0.373"/>
<line x1="970" y1="170" x2="1070" y2="70" style="stroke-opacity:0.025; stroke-width:0.08"/>
<line x1="1070" y1="70" x2="770" y2="170" style="stroke-opacity:0.025; stroke-width:0.08"/>
<line x1="370" y1="170" x2="70" y2="70" style="stroke-opacity:0.025; stroke-width:0.618"/>
<line x1="70" y1="270" x2="70" y2="70" style="stroke-opacity:0.025; stroke-width:0.08"/>
<line x1="170" y1="70" x2="370" y2="170" style="stroke-opacity:0.025; stroke-width:1.621"/>
<line x1="1070" y1="170" x2="970" y2="70" style="stroke-opacity:0.025; stroke-width:0.524"/>
<line x1="70" y1="70" x2="270" y2="270" style="stroke-opacity:0.025; stroke-width:0.492"/>
<line x1="1070" y1="170" x2="1070" y2="70" style="stroke-opacity:0.025; stroke-width:0.08"/>
<line x1="1070" y1="70" x2="1070" y2="170" style="stroke-opacity:0.025; stroke-width:0.08"/>
<line x1="70" y1="70" x2="470" y2="170" style="stroke-opacity:0.025; stroke-width:0.11"/>
<line x1="1070" y1="270" x2="770" y2="270" style="stroke-opacity:0.025; stroke-width:0.316"/>
<line x1="1070" y1="270" x2="970" y2="70" style="stroke-opacity:0.025; stroke-width:0.246"/>
<line x1="70" y1="70" x2="170" y2="70" style="stroke-opacity:0.025; stroke-width:0.102"/>
<line x1="1070" y1="270" x2="670" y2="170" style="stroke-opacity:0.025; stroke-width:0.469"/>
<line x1="70" y1="70" x2="370" y2="70" style="stroke-opacity:0.025; stroke-width:0.08"/>
<line x1="970" y1="170" x2="770" y2="70" style="stroke-opacity:0.025; stroke-width:0.683"/>
<line x1="170" y1="70" x2="70" y2="270" style="stroke-opacity:0.025; stroke-width:0.145"/>
<line x1="670" y1="170" x2="1070" y2="70" style="stroke-opacity:0.025; stroke-width:0.08"/>
<line x1="470" y1="270" x2="70" y2="70" style="stroke-opacity:0.025; stroke-width:0.089"/>
<line x1="1070" y1="70" x2="870" y2="170" style="stroke-opacity:0.025; stroke-width:0.08"/>
<line x1="1070" y1="70" x2="870" y2="270" style="stroke-opacity:0.025; stroke-width:0.08"/>
<line x1="1070" y1="70" x2="1070" y2="270" style="stroke-opacity:0.025; stroke-width:0.112"/>
<line x1="770" y1="170" x2="1070" y2="70" style="stroke-opacity:0.025; stroke-width:0.205"/>
<line x1="70" y1="70" x2="170" y2="270" style="stroke-opacity:0.025; stroke-width:0.086"/>
<line x1="870" y1="270" x2="1070" y2="270" style="stroke-opacity:0.025; stroke-width:0.08"/>
<line x1="70" y1="170" x2="70" y2="70" style="stroke-opacity:0.025; stroke-width:0.08"/>
<line x1="1070" y1="270" x2="1070" y2="170" style="stroke-opacity:0.025; stroke-width:0.08"/>
<line x1="1070" y1="70" x2="770" y2="270" style="stroke-opacity:0.025; stroke-width:0.08"/>
<line x1="370" y1="270" x2="70" y2="70" style="stroke-opacity:0.025; stroke-width:0.275"/>
<line x1="270" y1="70" x2="70" y2="70" style="stroke-opacity:0.025; stroke-width:0.107"/>
<line x1="970" y1="170" x2="1070" y2="270" style="stroke-opacity:0.025; stroke-width:0.258"/>
<line x1="70" y1="70" x2="70" y2="270" style="stroke-opacity:0.025; stroke-width:0.08"/>
<line x1="970" y1="270" x2="1070" y2="270" style="stroke-opacity:0.025; stroke-width:0.08"/>
<line x1="70" y1="70" x2="470" y2="270" style="stroke-opacity:0.025; stroke-width:0.08"/>
<line x1="70" y1="70" x2="170" y2="170" style="stroke-opacity:0.025; stroke-width:0.08"/>
<line x1="770" y1="270" x2="1070" y2="270" style="stroke-opacity:0.025; stroke-width:0.084"/>
<line x1="170" y1="70" x2="70" y2="70" style="stroke-opacity:0.025; stroke-width:0.08"/>
<line x1="1070" y1="70" x2="970" y2="70" style="stroke-opacity:0.025; stroke-width:0.08"/>
<line x1="70" y1="70" x2="70" y2="170" style="stroke-opacity:0.025; stroke-width:0.08"/>
<line x1="1070" y1="70" x2="970" y2="270" style="stroke-opacity:0.025; stroke-width:0.08"/>
<line x1="1070" y1="70" x2="670" y2="170" style="stroke-opacity:0.025; stroke-width:0.08"/>
<line x1="770" y1="270" x2="1070" y2="70" style="stroke-opacity:0.025; stroke-width:0.08"/>
<line x1="970" y1="70" x2="1070" y2="70" style="stroke-opacity:0.025; stroke-width:0.08"/>
<line x1="1070" y1="70" x2="770" y2="70" style="stroke-opacity:0.025; stroke-width:0.08"/>
<line x1="1070" y1="70" x2="870" y2="70" style="stroke-opacity:0.025; stroke-width:0.08"/>
</g>

</svg>