<?xml version="1.0" standalone="no"?>
<!DOCTYPE svg PUBLIC "-//W3C//DTD SVG 1.1//EN" "http://www.w3.org/Graphics/SVG/1.1/DTD/svg11.dtd">

<svg width="1140" height="340" style="background:#f0f0f0" 
  xmlns="http://www.w3.org/2000/svg"
  xmlns:xlink="http://www.w3.org/1999/xlink">


<marker id="arrow" viewBox="-5 -10 10 20" orient="auto" markerUnits="strokeWidth" markerWidth="1.8" markerHeight="1.8">
<polygon points="0,-10 5,0 0,10" stroke="none" style="fill:#f00000; fill-opacity:0.6"/>
</marker>
<g>
<rect x="20" y="20" width="100" height="100" style="stroke:#808080; fill:#f0f0f0"/>
<g style="stroke:#404040; fill:#404040">
<text x="30" y="50" font-size="20">
へ
</text>
<text x="50" y="60" font-size="16">
ぬ
</text>
</g>
</g>
<g>
<rect x="20" y="120" width="100" height="100" style="stroke:#808080; fill:#f0f0f0"/>
<g style="stroke:#404040; fill:#404040">
<text x="30" y="150" font-size="20">
せ
</text>
<text x="50" y="160" font-size="16">
ゆ
</text>
</g>
</g>
<g>
<rect x="20" y="220" width="100" height="100" style="stroke:#808080; fill:#f0f0f0"/>
<g style="stroke:#404040; fill:#404040">
<text x="30" y="250" font-size="20">
そ
</text>
<text x="50" y="260" font-size="16">
や
</text>
</g>
</g>
<g>
<rect x="120" y="20" width="100" height="100" style="stroke:#808080; fill:#f0f0f0"/>
<g style="stroke:#404040; fill:#404040">
<text x="130" y="50" font-size="20">
け
</text>
<text x="150" y="60" font-size="16">
む
</text>
</g>
</g>
<g>
<rect x="120" y="120" width="100" height="100" style="stroke:#808080; fill:#f0f0f0"/>
<g style="stroke:#404040; fill:#404040">
<text x="130" y="150" font-size="20">
う
</text>
<text x="150" y="160" font-size="16">
ま
</text>
</g>
</g>
<g>
<rect x="120" y="220" width="100" height="100" style="stroke:#808080; fill:#f0f0f0"/>
<g style="stroke:#404040; fill:#404040">
<text x="130" y="250" font-size="20">
も
</text>
<text x="150" y="260" font-size="16">
わ
</text>
</g>
</g>
<g>
<rect x="220" y="20" width="100" height="100" style="stroke:#808080; fill:#f0f0f0"/>
<g style="stroke:#404040; fill:#404040">
<text x="230" y="50" font-size="20">
て
</text>
<text x="250" y="60" font-size="16">
よ
</text>
</g>
</g>
<g>
<rect x="220" y="120" width="100" height="100" style="stroke:#808080; fill:#f0f0f0"/>
<g style="stroke:#404040; fill:#404040">
<text x="230" y="150" font-size="20">
の
</text>
<text x="250" y="160" font-size="16">
ん
</text>
</g>
</g>
<g>
<rect x="220" y="220" width="100" height="100" style="stroke:#808080; fill:#f0f0f0"/>
<g style="stroke:#404040; fill:#404040">
<text x="230" y="250" font-size="20">
と
</text>
<text x="250" y="260" font-size="16">
ら
</text>
</g>
</g>
<g>
<rect x="320" y="20" width="100" height="100" style="stroke:#808080; fill:#f0f0f0"/>
<g style="stroke:#404040; fill:#404040">
<text x="330" y="50" font-size="20">
は
</text>
<text x="350" y="60" font-size="16">
め
</text>
</g>
</g>
<g>
<rect x="320" y="120" width="100" height="100" style="stroke:#808080; fill:#f0f0f0"/>
<g style="stroke:#404040; fill:#404040">
<text x="330" y="150" font-size="20">
し
</text>
<text x="350" y="160" font-size="16">
を
</text>
</g>
</g>
<g>
<rect x="320" y="220" width="100" height="100" style="stroke:#808080; fill:#f0f0f0"/>
<g style="stroke:#404040; fill:#404040">
<text x="330" y="250" font-size="20">
か
</text>
<text x="350" y="260" font-size="16">
み
</text>
</g>
</g>
<g>
<rect x="420" y="20" width="100" height="100" style="stroke:#808080; fill:#f0f0f0"/>
<g style="stroke:#404040; fill:#404040">
<text x="430" y="50" font-size="20">
★
</text>
<text x="450" y="60" font-size="16">
★
</text>
</g>
</g>
<g>
<rect x="420" y="120" width="100" height="100" style="stroke:#808080; fill:#f0f0f0"/>
<g style="stroke:#404040; fill:#404040">
<text x="430" y="150" font-size="20">
、
</text>
<text x="450" y="160" font-size="16">
に
</text>
</g>
</g>
<g>
<rect x="420" y="220" width="100" height="100" style="stroke:#808080; fill:#f0f0f0"/>
<g style="stroke:#404040; fill:#404040">
<text x="430" y="250" font-size="20">
こ
</text>
<text x="450" y="260" font-size="16">
ね
</text>
</g>
</g>
<g>
<rect x="620" y="20" width="100" height="100" style="stroke:#808080; fill:#f0f0f0"/>
<g style="stroke:#404040; fill:#404040">
<text x="630" y="50" font-size="20">
★
</text>
<text x="650" y="60" font-size="16">
★
</text>
</g>
</g>
<g>
<rect x="620" y="120" width="100" height="100" style="stroke:#808080; fill:#f0f0f0"/>
<g style="stroke:#404040; fill:#404040">
<text x="630" y="150" font-size="20">
あ
</text>
<text x="650" y="160" font-size="16">
ち
</text>
</g>
</g>
<g>
<rect x="620" y="220" width="100" height="100" style="stroke:#808080; fill:#f0f0f0"/>
<g style="stroke:#404040; fill:#404040">
<text x="630" y="250" font-size="20">
く
</text>
<text x="650" y="260" font-size="16">
★
</text>
</g>
</g>
<g>
<rect x="720" y="20" width="100" height="100" style="stroke:#808080; fill:#f0f0f0"/>
<g style="stroke:#404040; fill:#404040">
<text x="730" y="50" font-size="20">
す
</text>
<text x="750" y="60" font-size="16">
え
</text>
</g>
</g>
<g>
<rect x="720" y="120" width="100" height="100" style="stroke:#808080; fill:#f0f0f0"/>
<g style="stroke:#404040; fill:#404040">
<text x="730" y="150" font-size="20">
い
</text>
<text x="750" y="160" font-size="16">
ろ
</text>
</g>
</g>
<g>
<rect x="720" y="220" width="100" height="100" style="stroke:#808080; fill:#f0f0f0"/>
<g style="stroke:#404040; fill:#404040">
<text x="730" y="250" font-size="20">
っ
</text>
<text x="750" y="260" font-size="16">
き
</text>
</g>
</g>
<g>
<rect x="820" y="20" width="100" height="100" style="stroke:#808080; fill:#f0f0f0"/>
<g style="stroke:#404040; fill:#404040">
<text x="830" y="50" font-size="20">
る
</text>
<text x="850" y="60" font-size="16">
さ
</text>
</g>
</g>
<g>
<rect x="820" y="120" width="100" height="100" style="stroke:#808080; fill:#f0f0f0"/>
<g style="stroke:#404040; fill:#404040">
<text x="830" y="150" font-size="20">
な
</text>
<text x="850" y="160" font-size="16">
ん
</text>
</g>
</g>
<g>
<rect x="820" y="220" width="100" height="100" style="stroke:#808080; fill:#f0f0f0"/>
<g style="stroke:#404040; fill:#404040">
<text x="830" y="250" font-size="20">
た
</text>
<text x="850" y="260" font-size="16">
お
</text>
</g>
</g>
<g>
<rect x="920" y="20" width="100" height="100" style="stroke:#808080; fill:#f0f0f0"/>
<g style="stroke:#404040; fill:#404040">
<text x="930" y="50" font-size="20">
れ
</text>
<text x="950" y="60" font-size="16">
ひ
</text>
</g>
</g>
<g>
<rect x="920" y="120" width="100" height="100" style="stroke:#808080; fill:#f0f0f0"/>
<g style="stroke:#404040; fill:#404040">
<text x="930" y="150" font-size="20">
。
</text>
<text x="950" y="160" font-size="16">
ふ
</text>
</g>
</g>
<g>
<rect x="920" y="220" width="100" height="100" style="stroke:#808080; fill:#f0f0f0"/>
<g style="stroke:#404040; fill:#404040">
<text x="930" y="250" font-size="20">
り
</text>
<text x="950" y="260" font-size="16">
ほ
</text>
</g>
</g>
<g>
<rect x="1020" y="20" width="100" height="100" style="stroke:#808080; fill:#f0f0f0"/>
<g style="stroke:#404040; fill:#404040">
<text x="1030" y="50" font-size="20">
…
</text>
<text x="1050" y="60" font-size="16">
小
</text>
</g>
</g>
<g>
<rect x="1020" y="120" width="100" height="100" style="stroke:#808080; fill:#f0f0f0"/>
<g style="stroke:#404040; fill:#404040">
<text x="1030" y="150" font-size="20">
ー
</text>
<text x="1050" y="160" font-size="16">
つ
</text>
</g>
</g>
<g>
<rect x="1020" y="220" width="100" height="100" style="stroke:#808080; fill:#f0f0f0"/>
<g style="stroke:#404040; fill:#404040">
<text x="1030" y="250" font-size="20">
・
</text>
<text x="1050" y="260" font-size="16">
？
</text>
</g>
</g>
<g style="stroke:#f00000" marker-end="url(#arrow)">
<line x1="370" y1="70" x2="270" y2="70" style="stroke-opacity:0.025; stroke-width:2.19"/>
<line x1="270" y1="70" x2="170" y2="170" style="stroke-opacity:0.26463; stroke-width:26.463"/>
<line x1="170" y1="170" x2="370" y2="170" style="stroke-opacity:0.17465; stroke-width:17.465"/>
<line x1="370" y1="170" x2="70" y2="170" style="stroke-opacity:0.02982; stroke-width:2.982"/>
<line x1="770" y1="170" x2="870" y2="170" style="stroke-opacity:0.20953; stroke-width:20.953"/>
<line x1="170" y1="170" x2="70" y2="270" style="stroke-opacity:0.03497; stroke-width:3.497"/>
<line x1="70" y1="270" x2="270" y2="70" style="stroke-opacity:0.025; stroke-width:0.461"/>
<line x1="870" y1="170" x2="770" y2="270" style="stroke-opacity:0.03831; stroke-width:3.831"/>
<line x1="270" y1="170" x2="170" y2="170" style="stroke-opacity:0.025; stroke-width:2.129"/>
<line x1="170" y1="170" x2="470" y2="270" style="stroke-opacity:0.02833; stroke-width:2.833"/>
<line x1="470" y1="270" x2="170" y2="170" style="stroke-opacity:0.08779; stroke-width:8.779"/>
<line x1="170" y1="270" x2="270" y2="170" style="stroke-opacity:0.07187; stroke-width:7.187"/>
<line x1="270" y1="170" x2="370" y2="170" style="stroke-opacity:0.11393; stroke-width:11.393"/>
<line x1="870" y1="70" x2="670" y2="270" style="stroke-opacity:0.07776; stroke-width:7.776"/>
<line x1="970" y1="270" x2="670" y2="170" style="stroke-opacity:0.025; stroke-width:1.226"/>
<line x1="670" y1="170" x2="770" y2="170" style="stroke-opacity:0.06389; stroke-width:6.389"/>
<line x1="770" y1="170" x2="870" y2="70" style="stroke-opacity:0.12145; stroke-width:12.145"/>
<line x1="870" y1="70" x2="970" y2="170" style="stroke-opacity:0.10277; stroke-width:10.277"/>
<line x1="370" y1="170" x2="370" y2="70" style="stroke-opacity:0.04777; stroke-width:4.777"/>
<line x1="370" y1="70" x2="370" y2="270" style="stroke-opacity:0.025; stroke-width:1.886"/>
<line x1="770" y1="170" x2="1070" y2="170" style="stroke-opacity:0.07085; stroke-width:7.085"/>
<line x1="1070" y1="170" x2="870" y2="170" style="stroke-opacity:0.025; stroke-width:1.847"/>
<line x1="870" y1="170" x2="1070" y2="270" style="stroke-opacity:0.025; stroke-width:1.338"/>
<line x1="1070" y1="270" x2="670" y2="270" style="stroke-opacity:0.025; stroke-width:0.36"/>
<line x1="670" y1="270" x2="1070" y2="170" style="stroke-opacity:0.025; stroke-width:0.662"/>
<line x1="870" y1="170" x2="1070" y2="170" style="stroke-opacity:0.025; stroke-width:0.515"/>
<line x1="1070" y1="170" x2="970" y2="170" style="stroke-opacity:0.025; stroke-width:0.946"/>
<line x1="870" y1="270" x2="770" y2="270" style="stroke-opacity:0.04069; stroke-width:4.069"/>
<line x1="770" y1="270" x2="770" y2="170" style="stroke-opacity:0.04226; stroke-width:4.226"/>
<line x1="770" y1="170" x2="1070" y2="270" style="stroke-opacity:0.025; stroke-width:0.784"/>
<line x1="970" y1="70" x2="770" y2="170" style="stroke-opacity:0.06306; stroke-width:6.306"/>
<line x1="370" y1="70" x2="470" y2="170" style="stroke-opacity:0.08711; stroke-width:8.711"/>
<line x1="470" y1="170" x2="370" y2="70" style="stroke-opacity:0.03397; stroke-width:3.397"/>
<line x1="370" y1="70" x2="370" y2="170" style="stroke-opacity:0.04331; stroke-width:4.331"/>
<line x1="370" y1="170" x2="270" y2="270" style="stroke-opacity:0.0522; stroke-width:5.22"/>
<line x1="270" y1="270" x2="370" y2="170" style="stroke-opacity:0.09134; stroke-width:9.134"/>
<line x1="970" y1="270" x2="1070" y2="170" style="stroke-opacity:0.03989; stroke-width:3.989"/>
<line x1="1070" y1="170" x2="770" y2="70" style="stroke-opacity:0.025; stroke-width:1.964"/>
<line x1="370" y1="170" x2="170" y2="270" style="stroke-opacity:0.02518; stroke-width:2.518"/>
<line x1="870" y1="270" x2="770" y2="170" style="stroke-opacity:0.18151; stroke-width:18.151"/>
<line x1="770" y1="170" x2="770" y2="270" style="stroke-opacity:0.12288; stroke-width:12.288"/>
<line x1="770" y1="270" x2="870" y2="70" style="stroke-opacity:0.025; stroke-width:2.081"/>
<line x1="670" y1="270" x2="970" y2="170" style="stroke-opacity:0.025; stroke-width:1.179"/>
<line x1="370" y1="170" x2="70" y2="270" style="stroke-opacity:0.025; stroke-width:1.806"/>
<line x1="370" y1="170" x2="270" y2="170" style="stroke-opacity:0.05487; stroke-width:5.487"/>
<line x1="70" y1="270" x2="270" y2="170" style="stroke-opacity:0.0425; stroke-width:4.25"/>
<line x1="270" y1="70" x2="370" y2="170" style="stroke-opacity:0.05131; stroke-width:5.131"/>
<line x1="370" y1="170" x2="170" y2="170" style="stroke-opacity:0.22919; stroke-width:22.919"/>
<line x1="170" y1="170" x2="70" y2="170" style="stroke-opacity:0.05666; stroke-width:5.666"/>
<line x1="270" y1="170" x2="170" y2="270" style="stroke-opacity:0.025; stroke-width:2.43"/>
<line x1="270" y1="170" x2="370" y2="270" style="stroke-opacity:0.0926; stroke-width:9.26"/>
<line x1="770" y1="170" x2="870" y2="270" style="stroke-opacity:0.14689; stroke-width:14.689"/>
<line x1="870" y1="270" x2="970" y2="270" style="stroke-opacity:0.06043; stroke-width:6.043"/>
<line x1="970" y1="270" x2="770" y2="170" style="stroke-opacity:0.02501; stroke-width:2.501"/>
<line x1="270" y1="70" x2="470" y2="170" style="stroke-opacity:0.06384; stroke-width:6.384"/>
<line x1="470" y1="170" x2="270" y2="270" style="stroke-opacity:0.03084; stroke-width:3.084"/>
<line x1="270" y1="270" x2="170" y2="170" style="stroke-opacity:0.07957; stroke-width:7.957"/>
<line x1="170" y1="170" x2="270" y2="70" style="stroke-opacity:0.09004; stroke-width:9.004"/>
<line x1="870" y1="170" x2="970" y2="170" style="stroke-opacity:0.0379; stroke-width:3.79"/>
<line x1="970" y1="170" x2="1070" y2="170" style="stroke-opacity:0.025; stroke-width:2.156"/>
<line x1="770" y1="70" x2="870" y2="70" style="stroke-opacity:0.06039; stroke-width:6.039"/>
<line x1="870" y1="70" x2="770" y2="170" style="stroke-opacity:0.09187; stroke-width:9.187"/>
<line x1="770" y1="170" x2="770" y2="70" style="stroke-opacity:0.0544; stroke-width:5.44"/>
<line x1="770" y1="70" x2="1070" y2="270" style="stroke-opacity:0.025; stroke-width:0.695"/>
<line x1="1070" y1="270" x2="970" y2="170" style="stroke-opacity:0.025; stroke-width:0.504"/>
<line x1="970" y1="170" x2="970" y2="70" style="stroke-opacity:0.025; stroke-width:0.94"/>
<line x1="970" y1="70" x2="770" y2="70" style="stroke-opacity:0.025; stroke-width:0.418"/>
<line x1="770" y1="70" x2="970" y2="270" style="stroke-opacity:0.025; stroke-width:0.619"/>
<line x1="70" y1="170" x2="170" y2="170" style="stroke-opacity:0.08689; stroke-width:8.689"/>
<line x1="770" y1="170" x2="670" y2="170" style="stroke-opacity:0.07826; stroke-width:7.826"/>
<line x1="670" y1="170" x2="870" y2="70" style="stroke-opacity:0.05556; stroke-width:5.556"/>
<line x1="270" y1="270" x2="370" y2="70" style="stroke-opacity:0.03472; stroke-width:3.472"/>
<line x1="170" y1="270" x2="370" y2="270" style="stroke-opacity:0.025; stroke-width:1.585"/>
<line x1="370" y1="270" x2="170" y2="270" style="stroke-opacity:0.02942; stroke-width:2.942"/>
<line x1="270" y1="170" x2="270" y2="70" style="stroke-opacity:0.06508; stroke-width:6.508"/>
<line x1="870" y1="70" x2="870" y2="170" style="stroke-opacity:0.0308; stroke-width:3.08"/>
<line x1="870" y1="170" x2="770" y2="170" style="stroke-opacity:0.25123; stroke-width:25.123"/>
<line x1="670" y1="270" x2="770" y2="170" style="stroke-opacity:0.04265; stroke-width:4.265"/>
<line x1="270" y1="70" x2="470" y2="270" style="stroke-opacity:0.025; stroke-width:0.811"/>
<line x1="770" y1="270" x2="670" y2="270" style="stroke-opacity:0.03298; stroke-width:3.298"/>
<line x1="370" y1="170" x2="270" y2="70" style="stroke-opacity:0.12796; stroke-width:12.796"/>
<line x1="270" y1="70" x2="370" y2="70" style="stroke-opacity:0.05244; stroke-width:5.244"/>
<line x1="170" y1="170" x2="270" y2="170" style="stroke-opacity:0.04202; stroke-width:4.202"/>
<line x1="970" y1="270" x2="670" y2="270" style="stroke-opacity:0.025; stroke-width:2.429"/>
<line x1="270" y1="170" x2="70" y2="170" style="stroke-opacity:0.0288; stroke-width:2.88"/>
<line x1="470" y1="170" x2="370" y2="270" style="stroke-opacity:0.05691; stroke-width:5.691"/>
<line x1="470" y1="170" x2="270" y2="70" style="stroke-opacity:0.04464; stroke-width:4.464"/>
<line x1="370" y1="270" x2="170" y2="170" style="stroke-opacity:0.03519; stroke-width:3.519"/>
<line x1="370" y1="170" x2="170" y2="70" style="stroke-opacity:0.04325; stroke-width:4.325"/>
<line x1="470" y1="170" x2="170" y2="170" style="stroke-opacity:0.025; stroke-width:2.274"/>
<line x1="470" y1="270" x2="270" y2="270" style="stroke-opacity:0.0524; stroke-width:5.24"/>
<line x1="270" y1="270" x2="170" y2="270" style="stroke-opacity:0.02574; stroke-width:2.574"/>
<line x1="370" y1="270" x2="470" y2="170" style="stroke-opacity:0.06952; stroke-width:6.952"/>
<line x1="470" y1="170" x2="70" y2="270" style="stroke-opacity:0.04484; stroke-width:4.484"/>
<line x1="270" y1="170" x2="370" y2="70" style="stroke-opacity:0.03151; stroke-width:3.151"/>
<line x1="770" y1="170" x2="970" y2="70" style="stroke-opacity:0.03008; stroke-width:3.008"/>
<line x1="970" y1="170" x2="670" y2="170" style="stroke-opacity:0.025; stroke-width:1.205"/>
<line x1="370" y1="270" x2="270" y2="270" style="stroke-opacity:0.06862; stroke-width:6.862"/>
<line x1="270" y1="270" x2="470" y2="170" style="stroke-opacity:0.05265; stroke-width:5.265"/>
<line x1="970" y1="170" x2="870" y2="270" style="stroke-opacity:0.0388; stroke-width:3.88"/>
<line x1="870" y1="270" x2="870" y2="170" style="stroke-opacity:0.05454; stroke-width:5.454"/>
<line x1="270" y1="70" x2="370" y2="270" style="stroke-opacity:0.03496; stroke-width:3.496"/>
<line x1="870" y1="170" x2="770" y2="70" style="stroke-opacity:0.02715; stroke-width:2.715"/>
<line x1="870" y1="70" x2="1070" y2="70" style="stroke-opacity:0.025; stroke-width:0.374"/>
<line x1="1070" y1="70" x2="970" y2="170" style="stroke-opacity:0.025; stroke-width:0.926"/>
<line x1="770" y1="70" x2="770" y2="170" style="stroke-opacity:0.0824; stroke-width:8.24"/>
<line x1="370" y1="270" x2="270" y2="170" style="stroke-opacity:0.0341; stroke-width:3.41"/>
<line x1="870" y1="270" x2="1070" y2="170" style="stroke-opacity:0.02718; stroke-width:2.718"/>
<line x1="870" y1="170" x2="670" y2="270" style="stroke-opacity:0.025; stroke-width:2.363"/>
<line x1="170" y1="170" x2="470" y2="170" style="stroke-opacity:0.04812; stroke-width:4.812"/>
<line x1="270" y1="270" x2="270" y2="170" style="stroke-opacity:0.03335; stroke-width:3.335"/>
<line x1="270" y1="170" x2="270" y2="270" style="stroke-opacity:0.025; stroke-width:1.55"/>
<line x1="870" y1="70" x2="970" y2="70" style="stroke-opacity:0.04131; stroke-width:4.131"/>
<line x1="970" y1="70" x2="870" y2="70" style="stroke-opacity:0.03745; stroke-width:3.745"/>
<line x1="970" y1="170" x2="770" y2="270" style="stroke-opacity:0.025; stroke-width:0.99"/>
<line x1="770" y1="270" x2="1070" y2="170" style="stroke-opacity:0.025; stroke-width:1.905"/>
<line x1="970" y1="70" x2="770" y2="270" style="stroke-opacity:0.025; stroke-width:1.709"/>
<line x1="770" y1="270" x2="770" y2="70" style="stroke-opacity:0.025; stroke-width:0.717"/>
<line x1="470" y1="170" x2="370" y2="170" style="stroke-opacity:0.08411; stroke-width:8.411"/>
<line x1="670" y1="270" x2="870" y2="70" style="stroke-opacity:0.0268; stroke-width:2.68"/>
<line x1="870" y1="70" x2="670" y2="170" style="stroke-opacity:0.025; stroke-width:0.625"/>
<line x1="170" y1="170" x2="370" y2="70" style="stroke-opacity:0.025; stroke-width:2.476"/>
<line x1="70" y1="270" x2="370" y2="170" style="stroke-opacity:0.03472; stroke-width:3.472"/>
<line x1="70" y1="270" x2="170" y2="170" style="stroke-opacity:0.067; stroke-width:6.7"/>
<line x1="370" y1="170" x2="370" y2="270" style="stroke-opacity:0.10647; stroke-width:10.647"/>
<line x1="870" y1="270" x2="670" y2="170" style="stroke-opacity:0.03151; stroke-width:3.151"/>
<line x1="170" y1="270" x2="370" y2="170" style="stroke-opacity:0.025; stroke-width:2.205"/>
<line x1="170" y1="270" x2="270" y2="70" style="stroke-opacity:0.025; stroke-width:0.89"/>
<line x1="370" y1="170" x2="470" y2="170" style="stroke-opacity:0.05125; stroke-width:5.125"/>
<line x1="970" y1="70" x2="870" y2="170" style="stroke-opacity:0.05378; stroke-width:5.378"/>
<line x1="270" y1="270" x2="270" y2="70" style="stroke-opacity:0.025; stroke-width:1.803"/>
<line x1="470" y1="170" x2="470" y2="270" style="stroke-opacity:0.02778; stroke-width:2.778"/>
<line x1="1070" y1="170" x2="770" y2="170" style="stroke-opacity:0.07786; stroke-width:7.786"/>
<line x1="370" y1="70" x2="270" y2="170" style="stroke-opacity:0.025; stroke-width:0.735"/>
<line x1="670" y1="170" x2="870" y2="170" style="stroke-opacity:0.02566; stroke-width:2.566"/>
<line x1="770" y1="170" x2="670" y2="270" style="stroke-opacity:0.0713; stroke-width:7.13"/>
<line x1="670" y1="270" x2="970" y2="70" style="stroke-opacity:0.03896; stroke-width:3.896"/>
<line x1="970" y1="70" x2="870" y2="270" style="stroke-opacity:0.03645; stroke-width:3.645"/>
<line x1="270" y1="270" x2="470" y2="270" style="stroke-opacity:0.02987; stroke-width:2.987"/>
<line x1="470" y1="270" x2="70" y2="270" style="stroke-opacity:0.025; stroke-width:0.417"/>
<line x1="70" y1="70" x2="370" y2="270" style="stroke-opacity:0.025; stroke-width:0.1"/>
<line x1="370" y1="270" x2="370" y2="170" style="stroke-opacity:0.06316; stroke-width:6.316"/>
<line x1="370" y1="270" x2="70" y2="170" style="stroke-opacity:0.025; stroke-width:2.331"/>
<line x1="870" y1="270" x2="770" y2="70" style="stroke-opacity:0.025; stroke-width:1.877"/>
<line x1="770" y1="70" x2="970" y2="170" style="stroke-opacity:0.025; stroke-width:1.015"/>
<line x1="970" y1="170" x2="770" y2="170" style="stroke-opacity:0.03965; stroke-width:3.965"/>
<line x1="270" y1="270" x2="70" y2="70" style="stroke-opacity:0.025; stroke-width:0.597"/>
<line x1="70" y1="70" x2="270" y2="70" style="stroke-opacity:0.025; stroke-width:0.451"/>
<line x1="970" y1="170" x2="870" y2="70" style="stroke-opacity:0.025; stroke-width:2.007"/>
<line x1="270" y1="170" x2="470" y2="170" style="stroke-opacity:0.025; stroke-width:1.867"/>
<line x1="970" y1="270" x2="870" y2="170" style="stroke-opacity:0.0483; stroke-width:4.83"/>
<line x1="170" y1="270" x2="170" y2="70" style="stroke-opacity:0.025; stroke-width:0.855"/>
<line x1="170" y1="70" x2="270" y2="70" style="stroke-opacity:0.025; stroke-width:1.988"/>
<line x1="770" y1="170" x2="970" y2="170" style="stroke-opacity:0.06727; stroke-width:6.727"/>
<line x1="870" y1="170" x2="870" y2="270" style="stroke-opacity:0.05452; stroke-width:5.452"/>
<line x1="670" y1="270" x2="870" y2="270" style="stroke-opacity:0.025; stroke-width:1.687"/>
<line x1="470" y1="270" x2="270" y2="170" style="stroke-opacity:0.02578; stroke-width:2.578"/>
<line x1="1070" y1="170" x2="870" y2="70" style="stroke-opacity:0.025; stroke-width:2.072"/>
<line x1="170" y1="170" x2="270" y2="270" style="stroke-opacity:0.04453; stroke-width:4.453"/>
<line x1="870" y1="70" x2="770" y2="270" style="stroke-opacity:0.025; stroke-width:1.715"/>
<line x1="670" y1="170" x2="670" y2="270" style="stroke-opacity:0.025; stroke-width:1.555"/>
<line x1="870" y1="170" x2="970" y2="70" style="stroke-opacity:0.025; stroke-width:1.704"/>
<line x1="770" y1="270" x2="870" y2="270" style="stroke-opacity:0.07828; stroke-width:7.828"/>
<line x1="270" y1="70" x2="70" y2="170" style="stroke-opacity:0.025; stroke-width:1.811"/>
<line x1="670" y1="270" x2="770" y2="70" style="stroke-opacity:0.025; stroke-width:1.527"/>
<line x1="170" y1="170" x2="170" y2="270" style="stroke-opacity:0.025; stroke-width:1.787"/>
<line x1="970" y1="70" x2="1070" y2="170" style="stroke-opacity:0.025; stroke-width:2.139"/>
<line x1="70" y1="170" x2="270" y2="70" style="stroke-opacity:0.025; stroke-width:0.909"/>
<line x1="370" y1="270" x2="170" y2="70" style="stroke-opacity:0.025; stroke-width:1.8"/>
<line x1="170" y1="70" x2="470" y2="170" style="stroke-opacity:0.025; stroke-width:0.971"/>
<line x1="670" y1="170" x2="970" y2="270" style="stroke-opacity:0.025; stroke-width:0.944"/>
<line x1="70" y1="70" x2="370" y2="170" style="stroke-opacity:0.025; stroke-width:0.234"/>
<line x1="870" y1="270" x2="970" y2="170" style="stroke-opacity:0.07563; stroke-width:7.563"/>
<line x1="970" y1="170" x2="670" y2="270" style="stroke-opacity:0.025; stroke-width:1.282"/>
<line x1="870" y1="170" x2="870" y2="70" style="stroke-opacity:0.06437; stroke-width:6.437"/>
<line x1="370" y1="270" x2="70" y2="270" style="stroke-opacity:0.025; stroke-width:1.432"/>
<line x1="770" y1="70" x2="870" y2="270" style="stroke-opacity:0.025; stroke-width:1.965"/>
<line x1="370" y1="70" x2="470" y2="270" style="stroke-opacity:0.025; stroke-width:0.926"/>
<line x1="1070" y1="170" x2="670" y2="270" style="stroke-opacity:0.025; stroke-width:1.721"/>
<line x1="370" y1="70" x2="170" y2="170" style="stroke-opacity:0.025; stroke-width:0.718"/>
<line x1="470" y1="170" x2="70" y2="170" style="stroke-opacity:0.03056; stroke-width:3.056"/>
<line x1="870" y1="70" x2="1070" y2="170" style="stroke-opacity:0.03263; stroke-width:3.263"/>
<line x1="970" y1="70" x2="670" y2="170" style="stroke-opacity:0.025; stroke-width:0.561"/>
<line x1="170" y1="70" x2="270" y2="270" style="stroke-opacity:0.025; stroke-width:1.051"/>
<line x1="170" y1="270" x2="270" y2="270" style="stroke-opacity:0.025; stroke-width:1.841"/>
<line x1="770" y1="270" x2="970" y2="270" style="stroke-opacity:0.025; stroke-width:2.185"/>
<line x1="970" y1="270" x2="870" y2="270" style="stroke-opacity:0.025; stroke-width:1.249"/>
<line x1="870" y1="270" x2="670" y2="270" style="stroke-opacity:0.025; stroke-width:2.067"/>
<line x1="270" y1="270" x2="370" y2="270" style="stroke-opacity:0.03443; stroke-width:3.443"/>
<line x1="370" y1="270" x2="370" y2="70" style="stroke-opacity:0.025; stroke-width:1.262"/>
<line x1="1070" y1="170" x2="970" y2="270" style="stroke-opacity:0.025; stroke-width:1.061"/>
<line x1="770" y1="270" x2="870" y2="170" style="stroke-opacity:0.0429; stroke-width:4.29"/>
<line x1="870" y1="70" x2="1070" y2="270" style="stroke-opacity:0.025; stroke-width:0.92"/>
<line x1="1070" y1="270" x2="770" y2="170" style="stroke-opacity:0.025; stroke-width:1.098"/>
<line x1="70" y1="270" x2="270" y2="270" style="stroke-opacity:0.025; stroke-width:1.394"/>
<line x1="370" y1="270" x2="270" y2="70" style="stroke-opacity:0.03408; stroke-width:3.408"/>
<line x1="670" y1="170" x2="770" y2="270" style="stroke-opacity:0.025; stroke-width:1.449"/>
<line x1="770" y1="70" x2="870" y2="170" style="stroke-opacity:0.025; stroke-width:1.935"/>
<line x1="670" y1="270" x2="670" y2="170" style="stroke-opacity:0.025; stroke-width:1.276"/>
<line x1="270" y1="70" x2="270" y2="170" style="stroke-opacity:0.02774; stroke-width:2.774"/>
<line x1="370" y1="170" x2="470" y2="270" style="stroke-opacity:0.025; stroke-width:2.16"/>
<line x1="170" y1="270" x2="170" y2="170" style="stroke-opacity:0.025; stroke-width:1.082"/>
<line x1="170" y1="170" x2="170" y2="70" style="stroke-opacity:0.02947; stroke-width:2.947"/>
<line x1="670" y1="170" x2="870" y2="270" style="stroke-opacity:0.025; stroke-width:1.183"/>
<line x1="70" y1="170" x2="370" y2="270" style="stroke-opacity:0.025; stroke-width:1.164"/>
<line x1="270" y1="270" x2="70" y2="270" style="stroke-opacity:0.025; stroke-width:0.674"/>
<line x1="870" y1="170" x2="670" y2="170" style="stroke-opacity:0.025; stroke-width:1.626"/>
<line x1="70" y1="270" x2="170" y2="70" style="stroke-opacity:0.025; stroke-width:0.345"/>
<line x1="970" y1="270" x2="770" y2="70" style="stroke-opacity:0.025; stroke-width:1.384"/>
<line x1="270" y1="270" x2="70" y2="170" style="stroke-opacity:0.025; stroke-width:0.823"/>
<line x1="70" y1="170" x2="270" y2="270" style="stroke-opacity:0.025; stroke-width:0.301"/>
<line x1="170" y1="270" x2="70" y2="170" style="stroke-opacity:0.025; stroke-width:0.799"/>
<line x1="70" y1="270" x2="370" y2="270" style="stroke-opacity:0.025; stroke-width:2.325"/>
<line x1="70" y1="70" x2="270" y2="170" style="stroke-opacity:0.025; stroke-width:0.496"/>
<line x1="470" y1="170" x2="170" y2="270" style="stroke-opacity:0.02677; stroke-width:2.677"/>
<line x1="170" y1="270" x2="470" y2="170" style="stroke-opacity:0.025; stroke-width:2.489"/>
<line x1="270" y1="70" x2="170" y2="270" style="stroke-opacity:0.02565; stroke-width:2.565"/>
<line x1="170" y1="270" x2="370" y2="70" style="stroke-opacity:0.025; stroke-width:0.663"/>
<line x1="770" y1="170" x2="970" y2="270" style="stroke-opacity:0.02996; stroke-width:2.996"/>
<line x1="470" y1="270" x2="370" y2="170" style="stroke-opacity:0.025; stroke-width:1.91"/>
<line x1="770" y1="270" x2="670" y2="170" style="stroke-opacity:0.025; stroke-width:1.004"/>
<line x1="670" y1="170" x2="970" y2="170" style="stroke-opacity:0.025; stroke-width:0.633"/>
<line x1="670" y1="170" x2="1070" y2="170" style="stroke-opacity:0.025; stroke-width:1.602"/>
<line x1="970" y1="70" x2="970" y2="270" style="stroke-opacity:0.025; stroke-width:0.25"/>
<line x1="770" y1="70" x2="1070" y2="170" style="stroke-opacity:0.025; stroke-width:0.492"/>
<line x1="1070" y1="170" x2="770" y2="270" style="stroke-opacity:0.025; stroke-width:1.439"/>
<line x1="270" y1="170" x2="170" y2="70" style="stroke-opacity:0.025; stroke-width:1.363"/>
<line x1="870" y1="270" x2="1070" y2="70" style="stroke-opacity:0.025; stroke-width:0.375"/>
<line x1="70" y1="170" x2="370" y2="170" style="stroke-opacity:0.025; stroke-width:2.205"/>
<line x1="770" y1="70" x2="770" y2="270" style="stroke-opacity:0.025; stroke-width:2.286"/>
<line x1="170" y1="170" x2="370" y2="270" style="stroke-opacity:0.06517; stroke-width:6.517"/>
<line x1="470" y1="270" x2="370" y2="70" style="stroke-opacity:0.025; stroke-width:0.605"/>
<line x1="470" y1="270" x2="370" y2="270" style="stroke-opacity:0.025; stroke-width:1.18"/>
<line x1="870" y1="70" x2="770" y2="70" style="stroke-opacity:0.025; stroke-width:1.537"/>
<line x1="270" y1="270" x2="170" y2="70" style="stroke-opacity:0.025; stroke-width:1.162"/>
<line x1="870" y1="170" x2="970" y2="270" style="stroke-opacity:0.025; stroke-width:2.461"/>
<line x1="70" y1="270" x2="370" y2="70" style="stroke-opacity:0.025; stroke-width:0.731"/>
<line x1="370" y1="70" x2="270" y2="270" style="stroke-opacity:0.025; stroke-width:1.646"/>
<line x1="870" y1="270" x2="870" y2="70" style="stroke-opacity:0.025; stroke-width:2.387"/>
<line x1="870" y1="70" x2="870" y2="270" style="stroke-opacity:0.025; stroke-width:1.609"/>
<line x1="370" y1="270" x2="470" y2="270" style="stroke-opacity:0.025; stroke-width:1.928"/>
<line x1="270" y1="170" x2="70" y2="270" style="stroke-opacity:0.025; stroke-width:1.747"/>
<line x1="270" y1="70" x2="270" y2="270" style="stroke-opacity:0.025; stroke-width:1.125"/>
<line x1="670" y1="270" x2="870" y2="170" style="stroke-opacity:0.0266; stroke-width:2.66"/>
<line x1="270" y1="170" x2="470" y2="270" style="stroke-opacity:0.02731; stroke-width:2.731"/>
<line x1="470" y1="270" x2="170" y2="270" style="stroke-opacity:0.025; stroke-width:0.257"/>
<line x1="970" y1="170" x2="970" y2="270" style="stroke-opacity:0.025; stroke-width:1.649"/>
<line x1="1070" y1="170" x2="1070" y2="270" style="stroke-opacity:0.025; stroke-width:0.762"/>
<line x1="370" y1="70" x2="70" y2="270" style="stroke-opacity:0.025; stroke-width:1.167"/>
<line x1="470" y1="170" x2="270" y2="170" style="stroke-opacity:0.025; stroke-width:0.845"/>
<line x1="1070" y1="170" x2="870" y2="270" style="stroke-opacity:0.025; stroke-width:1.671"/>
<line x1="70" y1="170" x2="470" y2="170" style="stroke-opacity:0.025; stroke-width:0.318"/>
<line x1="170" y1="70" x2="370" y2="70" style="stroke-opacity:0.025; stroke-width:0.33"/>
<line x1="370" y1="70" x2="70" y2="70" style="stroke-opacity:0.025; stroke-width:0.165"/>
<line x1="270" y1="70" x2="170" y2="70" style="stroke-opacity:0.025; stroke-width:0.816"/>
<line x1="170" y1="70" x2="170" y2="270" style="stroke-opacity:0.025; stroke-width:0.286"/>
<line x1="770" y1="70" x2="670" y2="270" style="stroke-opacity:0.025; stroke-width:0.636"/>
<line x1="70" y1="270" x2="470" y2="270" style="stroke-opacity:0.025; stroke-width:0.655"/>
<line x1="470" y1="270" x2="470" y2="170" style="stroke-opacity:0.025; stroke-width:1.182"/>
<line x1="870" y1="270" x2="970" y2="70" style="stroke-opacity:0.025; stroke-width:1.398"/>
<line x1="770" y1="70" x2="970" y2="70" style="stroke-opacity:0.025; stroke-width:1.351"/>
<line x1="170" y1="270" x2="470" y2="270" style="stroke-opacity:0.025; stroke-width:0.374"/>
<line x1="970" y1="170" x2="870" y2="170" style="stroke-opacity:0.03557; stroke-width:3.557"/>
<line x1="770" y1="70" x2="670" y2="170" style="stroke-opacity:0.025; stroke-width:0.264"/>
<line x1="970" y1="270" x2="870" y2="70" style="stroke-opacity:0.025; stroke-width:0.438"/>
<line x1="970" y1="270" x2="970" y2="170" style="stroke-opacity:0.025; stroke-width:1.009"/>
<line x1="170" y1="70" x2="170" y2="170" style="stroke-opacity:0.025; stroke-width:0.098"/>
<line x1="670" y1="270" x2="1070" y2="70" style="stroke-opacity:0.025; stroke-width:0.08"/>
<line x1="470" y1="270" x2="70" y2="170" style="stroke-opacity:0.025; stroke-width:0.3"/>
<line x1="470" y1="170" x2="170" y2="70" style="stroke-opacity:0.025; stroke-width:1.803"/>
<line x1="370" y1="70" x2="70" y2="170" style="stroke-opacity:0.025; stroke-width:0.696"/>
<line x1="70" y1="170" x2="470" y2="270" style="stroke-opacity:0.025; stroke-width:0.145"/>
<line x1="270" y1="70" x2="70" y2="270" style="stroke-opacity:0.025; stroke-width:0.75"/>
<line x1="170" y1="70" x2="370" y2="270" style="stroke-opacity:0.025; stroke-width:1.019"/>
<line x1="670" y1="270" x2="970" y2="270" style="stroke-opacity:0.025; stroke-width:2.036"/>
<line x1="770" y1="270" x2="970" y2="70" style="stroke-opacity:0.025; stroke-width:0.786"/>
<line x1="470" y1="270" x2="270" y2="70" style="stroke-opacity:0.025; stroke-width:0.749"/>
<line x1="70" y1="270" x2="470" y2="170" style="stroke-opacity:0.025; stroke-width:0.948"/>
<line x1="270" y1="170" x2="70" y2="70" style="stroke-opacity:0.025; stroke-width:0.554"/>
<line x1="770" y1="70" x2="1070" y2="70" style="stroke-opacity:0.025; stroke-width:0.08"/>
<line x1="170" y1="70" x2="270" y2="170" style="stroke-opacity:0.025; stroke-width:0.636"/>
<line x1="470" y1="270" x2="170" y2="70" style="stroke-opacity:0.025; stroke-width:0.25"/>
<line x1="170" y1="70" x2="70" y2="170" style="stroke-opacity:0.025; stroke-width:0.153"/>
<line x1="70" y1="170" x2="370" y2="70" style="stroke-opacity:0.025; stroke-width:0.275"/>
<line x1="70" y1="170" x2="170" y2="270" style="stroke-opacity:0.025; stroke-width:0.121"/>
<line x1="970" y1="70" x2="970" y2="170" style="stroke-opacity:0.025; stroke-width:0.136"/>
<line x1="970" y1="270" x2="970" y2="70" style="stroke-opacity:0.025; stroke-width:0.499"/>
<line x1="670" y1="270" x2="1070" y2="270" style="stroke-opacity:0.025; stroke-width:0.662"/>
<line x1="1070" y1="270" x2="970" y2="270" style="stroke-opacity:0.025; stroke-width:0.438"/>
<line x1="970" y1="270" x2="770" y2="270" style="stroke-opacity:0.025; stroke-width:0.893"/>
<line x1="670" y1="270" x2="770" y2="270" style="stroke-opacity:0.025; stroke-width:0.598"/>
<line x1="970" y1="270" x2="1070" y2="70" style="stroke-opacity:0.025; stroke-width:0.08"/>
<line x1="70" y1="270" x2="70" y2="170" style="stroke-opacity:0.025; stroke-width:0.194"/>
<line x1="70" y1="270" x2="170" y2="270" style="stroke-opacity:0.025; stroke-width:0.36"/>
<line x1="170" y1="70" x2="470" y2="270" style="stroke-opacity:0.025; stroke-width:0.355"/>
<line x1="970" y1="70" x2="670" y2="270" style="stroke-opacity:0.025; stroke-width:0.294"/>
<line x1="870" y1="70" x2="970" y2="270" style="stroke-opacity:0.025; stroke-width:0.682"/>
<line x1="70" y1="170" x2="270" y2="170" style="stroke-opacity:0.025; stroke-width:0.278"/>
<line x1="670" y1="170" x2="770" y2="70" style="stroke-opacity:0.025; stroke-width:0.544"/>
<line x1="1070" y1="270" x2="870" y2="270" style="stroke-opacity:0.025; stroke-width:0.406"/>
<line x1="370" y1="70" x2="170" y2="70" style="stroke-opacity:0.025; stroke-width:0.674"/>
<line x1="170" y1="270" x2="70" y2="270" style="stroke-opacity:0.025; stroke-width:0.378"/>
<line x1="470" y1="170" x2="70" y2="70" style="stroke-opacity:0.025; stroke-width:0.377"/>
<line x1="970" y1="70" x2="1070" y2="270" style="stroke-opacity:0.025; stroke-width:0.08"/>
<line x1="670" y1="170" x2="970" y2="70" style="stroke-opacity:0.025; stroke-width:0.414"/>
<line x1="1070" y1="170" x2="670" y2="170" style="stroke-opacity:0.025; stroke-width:0.473"/>
<line x1="770" y1="270" x2="970" y2="170" style="stroke-opacity:0.025; stroke-width:0.654"/>
<line x1="170" y1="170" x2="70" y2="70" style="stroke-opacity:0.025; stroke-width:0.638"/>
<line x1="670" y1="170" x2="1070" y2="270" style="stroke-opacity:0.025; stroke-width:0.122"/>
<line x1="1070" y1="270" x2="770" y2="70" style="stroke-opacity:0.025; stroke-width:0.715"/>
<line x1="70" y1="170" x2="170" y2="70" style="stroke-opacity:0.025; stroke-width:0.087"/>
<line x1="1070" y1="270" x2="870" y2="70" style="stroke-opacity:0.025; stroke-width:0.373"/>
<line x1="970" y1="170" x2="1070" y2="70" style="stroke-opacity:0.025; stroke-width:0.08"/>
<line x1="1070" y1="70" x2="770" y2="170" style="stroke-opacity:0.025; stroke-width:0.08"/>
<line x1="370" y1="170" x2="70" y2="70" style="stroke-opacity:0.025; stroke-width:0.618"/>
<line x1="70" y1="270" x2="70" y2="70" style="stroke-opacity:0.025; stroke-width:0.08"/>
<line x1="170" y1="70" x2="370" y2="170" style="stroke-opacity:0.025; stroke-width:1.621"/>
<line x1="1070" y1="270" x2="870" y2="170" style="stroke-opacity:0.025; stroke-width:0.08"/>
<line x1="1070" y1="170" x2="970" y2="70" style="stroke-opacity:0.025; stroke-width:0.524"/>
<line x1="70" y1="70" x2="270" y2="270" style="stroke-opacity:0.025; stroke-width:0.565"/>
<line x1="370" y1="70" x2="170" y2="270" style="stroke-opacity:0.025; stroke-width:0.648"/>
<line x1="70" y1="170" x2="70" y2="270" style="stroke-opacity:0.025; stroke-width:0.345"/>
<line x1="1070" y1="170" x2="1070" y2="70" style="stroke-opacity:0.025; stroke-width:0.08"/>
<line x1="1070" y1="70" x2="1070" y2="170" style="stroke-opacity:0.025; stroke-width:0.08"/>
<line x1="70" y1="70" x2="470" y2="170" style="stroke-opacity:0.025; stroke-width:0.115"/>
<line x1="1070" y1="270" x2="770" y2="270" style="stroke-opacity:0.025; stroke-width:0.316"/>
<line x1="1070" y1="270" x2="970" y2="70" style="stroke-opacity:0.025; stroke-width:0.246"/>
<line x1="70" y1="70" x2="170" y2="70" style="stroke-opacity:0.025; stroke-width:0.102"/>
<line x1="1070" y1="270" x2="670" y2="170" style="stroke-opacity:0.025; stroke-width:0.469"/>
<line x1="70" y1="70" x2="370" y2="70" style="stroke-opacity:0.025; stroke-width:0.08"/>
<line x1="970" y1="170" x2="770" y2="70" style="stroke-opacity:0.025; stroke-width:0.683"/>
<line x1="170" y1="70" x2="70" y2="270" style="stroke-opacity:0.025; stroke-width:0.145"/>
<line x1="670" y1="170" x2="1070" y2="70" style="stroke-opacity:0.025; stroke-width:0.08"/>
<line x1="470" y1="270" x2="70" y2="70" style="stroke-opacity:0.025; stroke-width:0.08"/>
<line x1="1070" y1="70" x2="870" y2="270" style="stroke-opacity:0.025; stroke-width:0.08"/>
<line x1="1070" y1="70" x2="1070" y2="270" style="stroke-opacity:0.025; stroke-width:0.112"/>
<line x1="770" y1="170" x2="1070" y2="70" style="stroke-opacity:0.025; stroke-width:0.205"/>
<line x1="870" y1="270" x2="1070" y2="270" style="stroke-opacity:0.025; stroke-width:0.08"/>
<line x1="1070" y1="270" x2="1070" y2="170" style="stroke-opacity:0.025; stroke-width:0.08"/>
<line x1="1070" y1="70" x2="770" y2="270" style="stroke-opacity:0.025; stroke-width:0.08"/>
<line x1="370" y1="270" x2="70" y2="70" style="stroke-opacity:0.025; stroke-width:0.31"/>
<line x1="270" y1="70" x2="70" y2="70" style="stroke-opacity:0.025; stroke-width:0.107"/>
<line x1="970" y1="170" x2="1070" y2="270" style="stroke-opacity:0.025; stroke-width:0.258"/>
<line x1="70" y1="70" x2="70" y2="270" style="stroke-opacity:0.025; stroke-width:0.08"/>
<line x1="970" y1="270" x2="1070" y2="270" style="stroke-opacity:0.025; stroke-width:0.08"/>
<line x1="170" y1="270" x2="70" y2="70" style="stroke-opacity:0.025; stroke-width:0.106"/>
<line x1="70" y1="70" x2="170" y2="170" style="stroke-opacity:0.025; stroke-width:0.08"/>
<line x1="770" y1="270" x2="1070" y2="270" style="stroke-opacity:0.025; stroke-width:0.084"/>
<line x1="170" y1="70" x2="70" y2="70" style="stroke-opacity:0.025; stroke-width:0.08"/>
<line x1="1070" y1="70" x2="870" y2="170" style="stroke-opacity:0.025; stroke-width:0.08"/>
<line x1="70" y1="70" x2="470" y2="270" style="stroke-opacity:0.025; stroke-width:0.08"/>
<line x1="1070" y1="70" x2="970" y2="70" style="stroke-opacity:0.025; stroke-width:0.08"/>
<line x1="1070" y1="70" x2="970" y2="270" style="stroke-opacity:0.025; stroke-width:0.08"/>
<line x1="70" y1="70" x2="170" y2="270" style="stroke-opacity:0.025; stroke-width:0.08"/>
<line x1="870" y1="170" x2="1070" y2="70" style="stroke-opacity:0.025; stroke-width:0.08"/>
<line x1="70" y1="70" x2="70" y2="170" style="stroke-opacity:0.025; stroke-width:0.08"/>
<line x1="1070" y1="70" x2="670" y2="170" style="stroke-opacity:0.025; stroke-width:0.08"/>
<line x1="70" y1="170" x2="70" y2="70" style="stroke-opacity:0.025; stroke-width:0.08"/>
<line x1="770" y1="270" x2="1070" y2="70" style="stroke-opacity:0.025; stroke-width:0.08"/>
<line x1="970" y1="70" x2="1070" y2="70" style="stroke-opacity:0.025; stroke-width:0.08"/>
<line x1="1070" y1="70" x2="770" y2="70" style="stroke-opacity:0.025; stroke-width:0.08"/>
<line x1="1070" y1="70" x2="870" y2="70" style="stroke-opacity:0.025; stroke-width:0.08"/>
</g>

</svg>