<?xml version="1.0" standalone="no"?>
<!DOCTYPE svg PUBLIC "-//W3C//DTD SVG 1.1//EN" "http://www.w3.org/Graphics/SVG/1.1/DTD/svg11.dtd">

<svg width="1140" height="340" style="background:#f0f0f0" 
  xmlns="http://www.w3.org/2000/svg"
  xmlns:xlink="http://www.w3.org/1999/xlink">


<marker id="arrow" viewBox="-5 -10 10 20" orient="auto" markerUnits="strokeWidth" markerWidth="1.8" markerHeight="1.8">
<polygon points="0,-10 5,0 0,10" stroke="none" style="fill:#f00000; fill-opacity:0.6"/>
</marker>
<g>
<rect x="20" y="20" width="100" height="100" style="stroke:#808080; fill:#f0f0f0"/>
<g style="stroke:#404040; fill:#404040">
<text x="30" y="50" font-size="20">
へ
</text>
<text x="30" y="70" font-size="16">
み
</text>
<text x="50" y="70" font-size="16">
★
</text>
</g>
</g>
<g>
<rect x="20" y="120" width="100" height="100" style="stroke:#808080; fill:#f0f0f0"/>
<g style="stroke:#404040; fill:#404040">
<text x="30" y="150" font-size="20">
ー
</text>
<text x="30" y="170" font-size="16">
ま
</text>
<text x="50" y="170" font-size="16">
む
</text>
</g>
</g>
<g>
<rect x="20" y="220" width="100" height="100" style="stroke:#808080; fill:#f0f0f0"/>
<g style="stroke:#404040; fill:#404040">
<text x="30" y="250" font-size="20">
そ
</text>
<text x="30" y="270" font-size="16">
ね
</text>
<text x="50" y="270" font-size="16">
ぬ
</text>
</g>
</g>
<g>
<rect x="120" y="20" width="100" height="100" style="stroke:#808080; fill:#f0f0f0"/>
<g style="stroke:#404040; fill:#404040">
<text x="130" y="50" font-size="20">
ひ
</text>
<text x="130" y="70" font-size="16">
わ
</text>
<text x="150" y="70" font-size="16">
★
</text>
</g>
</g>
<g>
<rect x="120" y="120" width="100" height="100" style="stroke:#808080; fill:#f0f0f0"/>
<g style="stroke:#404040; fill:#404040">
<text x="130" y="150" font-size="20">
け
</text>
<text x="130" y="170" font-size="16">
せ
</text>
<text x="150" y="170" font-size="16">
★
</text>
</g>
</g>
<g>
<rect x="120" y="220" width="100" height="100" style="stroke:#808080; fill:#f0f0f0"/>
<g style="stroke:#404040; fill:#404040">
<text x="130" y="250" font-size="20">
ち
</text>
<text x="130" y="270" font-size="16">
め
</text>
<text x="150" y="270" font-size="16">
★
</text>
</g>
</g>
<g>
<rect x="220" y="20" width="100" height="100" style="stroke:#808080; fill:#f0f0f0"/>
<g style="stroke:#404040; fill:#404040">
<text x="230" y="50" font-size="20">
と
</text>
<text x="230" y="70" font-size="16">
り
</text>
<text x="250" y="70" font-size="16">
★
</text>
</g>
</g>
<g>
<rect x="220" y="120" width="100" height="100" style="stroke:#808080; fill:#f0f0f0"/>
<g style="stroke:#404040; fill:#404040">
<text x="230" y="150" font-size="20">
ん
</text>
<text x="230" y="170" font-size="16">
さ
</text>
<text x="250" y="170" font-size="16">
も
</text>
</g>
</g>
<g>
<rect x="220" y="220" width="100" height="100" style="stroke:#808080; fill:#f0f0f0"/>
<g style="stroke:#404040; fill:#404040">
<text x="230" y="250" font-size="20">
て
</text>
<text x="230" y="270" font-size="16">
ら
</text>
<text x="250" y="270" font-size="16">
ろ
</text>
</g>
</g>
<g>
<rect x="320" y="20" width="100" height="100" style="stroke:#808080; fill:#f0f0f0"/>
<g style="stroke:#404040; fill:#404040">
<text x="330" y="50" font-size="20">
こ
</text>
<text x="330" y="70" font-size="16">
ふ
</text>
<text x="350" y="70" font-size="16">
★
</text>
</g>
</g>
<g>
<rect x="320" y="120" width="100" height="100" style="stroke:#808080; fill:#f0f0f0"/>
<g style="stroke:#404040; fill:#404040">
<text x="330" y="150" font-size="20">
か
</text>
<text x="330" y="170" font-size="16">
は
</text>
<text x="350" y="170" font-size="16">
の
</text>
</g>
</g>
<g>
<rect x="320" y="220" width="100" height="100" style="stroke:#808080; fill:#f0f0f0"/>
<g style="stroke:#404040; fill:#404040">
<text x="330" y="250" font-size="20">
し
</text>
<text x="330" y="270" font-size="16">
れ
</text>
<text x="350" y="270" font-size="16">
★
</text>
</g>
</g>
<g>
<rect x="420" y="20" width="100" height="100" style="stroke:#808080; fill:#f0f0f0"/>
<g style="stroke:#404040; fill:#404040">
<text x="430" y="50" font-size="20">
ほ
</text>
<text x="430" y="70" font-size="16">
小
</text>
<text x="450" y="70" font-size="16">
★
</text>
</g>
</g>
<g>
<rect x="420" y="120" width="100" height="100" style="stroke:#808080; fill:#f0f0f0"/>
<g style="stroke:#404040; fill:#404040">
<text x="430" y="150" font-size="20">
く
</text>
<text x="430" y="170" font-size="16">
つ
</text>
<text x="450" y="170" font-size="16">
を
</text>
</g>
</g>
<g>
<rect x="420" y="220" width="100" height="100" style="stroke:#808080; fill:#f0f0f0"/>
<g style="stroke:#404040; fill:#404040">
<text x="430" y="250" font-size="20">
き
</text>
<text x="430" y="270" font-size="16">
に
</text>
<text x="450" y="270" font-size="16">
★
</text>
</g>
</g>
<g>
<rect x="620" y="20" width="100" height="100" style="stroke:#808080; fill:#f0f0f0"/>
<g style="stroke:#404040; fill:#404040">
<text x="630" y="50" font-size="20">
★
</text>
<text x="630" y="70" font-size="16">
★
</text>
<text x="650" y="70" font-size="16">
★
</text>
</g>
</g>
<g>
<rect x="620" y="120" width="100" height="100" style="stroke:#808080; fill:#f0f0f0"/>
<g style="stroke:#404040; fill:#404040">
<text x="630" y="150" font-size="20">
あ
</text>
<text x="630" y="170" font-size="16">
ゆ
</text>
<text x="650" y="170" font-size="16">
★
</text>
</g>
</g>
<g>
<rect x="620" y="220" width="100" height="100" style="stroke:#808080; fill:#f0f0f0"/>
<g style="stroke:#404040; fill:#404040">
<text x="630" y="250" font-size="20">
な
</text>
<text x="630" y="270" font-size="16">
や
</text>
<text x="650" y="270" font-size="16">
★
</text>
</g>
</g>
<g>
<rect x="720" y="20" width="100" height="100" style="stroke:#808080; fill:#f0f0f0"/>
<g style="stroke:#404040; fill:#404040">
<text x="730" y="50" font-size="20">
す
</text>
<text x="730" y="70" font-size="16">
え
</text>
<text x="750" y="70" font-size="16">
★
</text>
</g>
</g>
<g>
<rect x="720" y="120" width="100" height="100" style="stroke:#808080; fill:#f0f0f0"/>
<g style="stroke:#404040; fill:#404040">
<text x="730" y="150" font-size="20">
い
</text>
<text x="730" y="170" font-size="16">
よ
</text>
<text x="750" y="170" font-size="16">
★
</text>
</g>
</g>
<g>
<rect x="720" y="220" width="100" height="100" style="stroke:#808080; fill:#f0f0f0"/>
<g style="stroke:#404040; fill:#404040">
<text x="730" y="250" font-size="20">
っ
</text>
<text x="730" y="270" font-size="16">
お
</text>
<text x="750" y="270" font-size="16">
★
</text>
</g>
</g>
<g>
<rect x="820" y="20" width="100" height="100" style="stroke:#808080; fill:#f0f0f0"/>
<g style="stroke:#404040; fill:#404040">
<text x="830" y="50" font-size="20">
る
</text>
<text x="830" y="70" font-size="16">
★
</text>
<text x="850" y="70" font-size="16">
★
</text>
</g>
</g>
<g>
<rect x="820" y="120" width="100" height="100" style="stroke:#808080; fill:#f0f0f0"/>
<g style="stroke:#404040; fill:#404040">
<text x="830" y="150" font-size="20">
う
</text>
<text x="830" y="170" font-size="16">
★
</text>
<text x="850" y="170" font-size="16">
★
</text>
</g>
</g>
<g>
<rect x="820" y="220" width="100" height="100" style="stroke:#808080; fill:#f0f0f0"/>
<g style="stroke:#404040; fill:#404040">
<text x="830" y="250" font-size="20">
た
</text>
<text x="830" y="270" font-size="16">
★
</text>
<text x="850" y="270" font-size="16">
★
</text>
</g>
</g>
<g>
<rect x="920" y="20" width="100" height="100" style="stroke:#808080; fill:#f0f0f0"/>
<g style="stroke:#404040; fill:#404040">
<text x="930" y="50" font-size="20">
★
</text>
<text x="930" y="70" font-size="16">
★
</text>
<text x="950" y="70" font-size="16">
★
</text>
</g>
</g>
<g>
<rect x="920" y="120" width="100" height="100" style="stroke:#808080; fill:#f0f0f0"/>
<g style="stroke:#404040; fill:#404040">
<text x="930" y="150" font-size="20">
★
</text>
<text x="930" y="170" font-size="16">
★
</text>
<text x="950" y="170" font-size="16">
★
</text>
</g>
</g>
<g>
<rect x="920" y="220" width="100" height="100" style="stroke:#808080; fill:#f0f0f0"/>
<g style="stroke:#404040; fill:#404040">
<text x="930" y="250" font-size="20">
★
</text>
<text x="930" y="270" font-size="16">
★
</text>
<text x="950" y="270" font-size="16">
★
</text>
</g>
</g>
<g>
<rect x="1020" y="20" width="100" height="100" style="stroke:#808080; fill:#f0f0f0"/>
<g style="stroke:#404040; fill:#404040">
<text x="1030" y="50" font-size="20">
★
</text>
<text x="1030" y="70" font-size="16">
★
</text>
<text x="1050" y="70" font-size="16">
★
</text>
</g>
</g>
<g>
<rect x="1020" y="120" width="100" height="100" style="stroke:#808080; fill:#f0f0f0"/>
<g style="stroke:#404040; fill:#404040">
<text x="1030" y="150" font-size="20">
★
</text>
<text x="1030" y="170" font-size="16">
★
</text>
<text x="1050" y="170" font-size="16">
★
</text>
</g>
</g>
<g>
<rect x="1020" y="220" width="100" height="100" style="stroke:#808080; fill:#f0f0f0"/>
<g style="stroke:#404040; fill:#404040">
<text x="1030" y="250" font-size="20">
★
</text>
<text x="1030" y="270" font-size="16">
★
</text>
<text x="1050" y="270" font-size="16">
★
</text>
</g>
</g>
<g style="stroke:#f00000" marker-end="url(#arrow)">
<line x1="370" y1="70" x2="270" y2="170" style="stroke-opacity:0.05055; stroke-width:5.055"/>
<line x1="270" y1="170" x2="370" y2="170" style="stroke-opacity:0.22981; stroke-width:22.981"/>
<line x1="770" y1="170" x2="870" y2="170" style="stroke-opacity:0.91165; stroke-width:91.165"/>
<line x1="370" y1="170" x2="170" y2="270" style="stroke-opacity:0.03806; stroke-width:3.806"/>
<line x1="870" y1="170" x2="770" y2="170" style="stroke-opacity:0.71485; stroke-width:71.485"/>
<line x1="370" y1="270" x2="170" y2="170" style="stroke-opacity:0.0311; stroke-width:3.11"/>
<line x1="170" y1="170" x2="270" y2="170" style="stroke-opacity:0.12271; stroke-width:12.271"/>
<line x1="270" y1="270" x2="270" y2="170" style="stroke-opacity:0.09446; stroke-width:9.446"/>
<line x1="270" y1="170" x2="470" y2="270" style="stroke-opacity:0.06652; stroke-width:6.652"/>
<line x1="470" y1="270" x2="370" y2="270" style="stroke-opacity:0.04793; stroke-width:4.793"/>
<line x1="370" y1="270" x2="470" y2="170" style="stroke-opacity:0.0627; stroke-width:6.27"/>
<line x1="470" y1="170" x2="370" y2="170" style="stroke-opacity:0.13009; stroke-width:13.009"/>
<line x1="870" y1="170" x2="670" y2="270" style="stroke-opacity:0.17892; stroke-width:17.892"/>
<line x1="670" y1="270" x2="770" y2="170" style="stroke-opacity:0.11012; stroke-width:11.012"/>
<line x1="370" y1="170" x2="470" y2="170" style="stroke-opacity:0.08909; stroke-width:8.909"/>
<line x1="470" y1="170" x2="370" y2="270" style="stroke-opacity:0.08912; stroke-width:8.912"/>
<line x1="370" y1="270" x2="270" y2="170" style="stroke-opacity:0.14272; stroke-width:14.272"/>
<line x1="270" y1="170" x2="470" y2="170" style="stroke-opacity:0.15792; stroke-width:15.792"/>
<line x1="470" y1="170" x2="270" y2="70" style="stroke-opacity:0.05813; stroke-width:5.813"/>
<line x1="870" y1="170" x2="670" y2="170" style="stroke-opacity:0.07788; stroke-width:7.788"/>
<line x1="870" y1="170" x2="770" y2="70" style="stroke-opacity:0.1431; stroke-width:14.31"/>
<line x1="770" y1="70" x2="870" y2="170" style="stroke-opacity:0.09138; stroke-width:9.138"/>
<line x1="370" y1="170" x2="270" y2="270" style="stroke-opacity:0.10237; stroke-width:10.237"/>
<line x1="270" y1="270" x2="70" y2="170" style="stroke-opacity:0.03035; stroke-width:3.035"/>
<line x1="70" y1="170" x2="270" y2="170" style="stroke-opacity:0.03181; stroke-width:3.181"/>
<line x1="470" y1="170" x2="70" y2="170" style="stroke-opacity:0.025; stroke-width:2.125"/>
<line x1="870" y1="170" x2="770" y2="270" style="stroke-opacity:0.12646; stroke-width:12.646"/>
<line x1="270" y1="70" x2="70" y2="170" style="stroke-opacity:0.04728; stroke-width:4.728"/>
<line x1="770" y1="70" x2="770" y2="170" style="stroke-opacity:0.06057; stroke-width:6.057"/>
<line x1="370" y1="170" x2="370" y2="270" style="stroke-opacity:0.15415; stroke-width:15.415"/>
<line x1="370" y1="170" x2="270" y2="170" style="stroke-opacity:0.16349; stroke-width:16.349"/>
<line x1="470" y1="170" x2="470" y2="270" style="stroke-opacity:0.056; stroke-width:5.6"/>
<line x1="470" y1="270" x2="370" y2="170" style="stroke-opacity:0.08482; stroke-width:8.482"/>
<line x1="270" y1="270" x2="370" y2="270" style="stroke-opacity:0.07001; stroke-width:7.001"/>
<line x1="370" y1="270" x2="270" y2="70" style="stroke-opacity:0.03162; stroke-width:3.162"/>
<line x1="770" y1="170" x2="870" y2="270" style="stroke-opacity:0.11631; stroke-width:11.631"/>
<line x1="870" y1="270" x2="770" y2="170" style="stroke-opacity:0.17583; stroke-width:17.583"/>
<line x1="770" y1="170" x2="770" y2="270" style="stroke-opacity:0.0844; stroke-width:8.44"/>
<line x1="770" y1="270" x2="870" y2="170" style="stroke-opacity:0.06913; stroke-width:6.913"/>
<line x1="370" y1="270" x2="370" y2="170" style="stroke-opacity:0.11249; stroke-width:11.249"/>
<line x1="370" y1="170" x2="70" y2="70" style="stroke-opacity:0.02832; stroke-width:2.832"/>
<line x1="370" y1="270" x2="70" y2="170" style="stroke-opacity:0.03524; stroke-width:3.524"/>
<line x1="70" y1="270" x2="270" y2="170" style="stroke-opacity:0.04967; stroke-width:4.967"/>
<line x1="870" y1="270" x2="870" y2="170" style="stroke-opacity:0.14389; stroke-width:14.389"/>
<line x1="270" y1="70" x2="270" y2="270" style="stroke-opacity:0.03487; stroke-width:3.487"/>
<line x1="270" y1="170" x2="370" y2="70" style="stroke-opacity:0.06681; stroke-width:6.681"/>
<line x1="370" y1="70" x2="470" y2="170" style="stroke-opacity:0.05338; stroke-width:5.338"/>
<line x1="370" y1="170" x2="170" y2="70" style="stroke-opacity:0.04925; stroke-width:4.925"/>
<line x1="170" y1="70" x2="270" y2="70" style="stroke-opacity:0.02992; stroke-width:2.992"/>
<line x1="270" y1="70" x2="370" y2="170" style="stroke-opacity:0.11202; stroke-width:11.202"/>
<line x1="270" y1="170" x2="270" y2="70" style="stroke-opacity:0.0714; stroke-width:7.14"/>
<line x1="770" y1="70" x2="870" y2="70" style="stroke-opacity:0.0573; stroke-width:5.73"/>
<line x1="870" y1="170" x2="870" y2="70" style="stroke-opacity:0.11244; stroke-width:11.244"/>
<line x1="870" y1="70" x2="870" y2="170" style="stroke-opacity:0.06324; stroke-width:6.324"/>
<line x1="870" y1="70" x2="770" y2="170" style="stroke-opacity:0.06696; stroke-width:6.696"/>
<line x1="770" y1="170" x2="770" y2="70" style="stroke-opacity:0.08094; stroke-width:8.094"/>
<line x1="370" y1="70" x2="370" y2="270" style="stroke-opacity:0.02701; stroke-width:2.701"/>
<line x1="670" y1="170" x2="870" y2="170" style="stroke-opacity:0.16253; stroke-width:16.253"/>
<line x1="670" y1="170" x2="870" y2="70" style="stroke-opacity:0.05314; stroke-width:5.314"/>
<line x1="370" y1="170" x2="470" y2="270" style="stroke-opacity:0.06399; stroke-width:6.399"/>
<line x1="270" y1="70" x2="370" y2="270" style="stroke-opacity:0.04601; stroke-width:4.601"/>
<line x1="170" y1="70" x2="370" y2="170" style="stroke-opacity:0.025; stroke-width:1.991"/>
<line x1="670" y1="270" x2="870" y2="170" style="stroke-opacity:0.10946; stroke-width:10.946"/>
<line x1="70" y1="170" x2="170" y2="270" style="stroke-opacity:0.025; stroke-width:0.934"/>
<line x1="170" y1="270" x2="370" y2="170" style="stroke-opacity:0.04284; stroke-width:4.284"/>
<line x1="270" y1="270" x2="370" y2="70" style="stroke-opacity:0.025; stroke-width:1.516"/>
<line x1="370" y1="270" x2="270" y2="270" style="stroke-opacity:0.13411; stroke-width:13.411"/>
<line x1="270" y1="270" x2="370" y2="170" style="stroke-opacity:0.10537; stroke-width:10.537"/>
<line x1="870" y1="170" x2="870" y2="270" style="stroke-opacity:0.16636; stroke-width:16.636"/>
<line x1="770" y1="170" x2="870" y2="70" style="stroke-opacity:0.07016; stroke-width:7.016"/>
<line x1="270" y1="70" x2="470" y2="170" style="stroke-opacity:0.08392; stroke-width:8.392"/>
<line x1="370" y1="170" x2="170" y2="170" style="stroke-opacity:0.05532; stroke-width:5.532"/>
<line x1="470" y1="270" x2="70" y2="170" style="stroke-opacity:0.025; stroke-width:1.938"/>
<line x1="70" y1="170" x2="470" y2="270" style="stroke-opacity:0.025; stroke-width:1.806"/>
<line x1="470" y1="270" x2="370" y2="70" style="stroke-opacity:0.025; stroke-width:2.033"/>
<line x1="370" y1="70" x2="70" y2="170" style="stroke-opacity:0.025; stroke-width:1.565"/>
<line x1="70" y1="170" x2="370" y2="270" style="stroke-opacity:0.02999; stroke-width:2.999"/>
<line x1="370" y1="70" x2="270" y2="70" style="stroke-opacity:0.06168; stroke-width:6.168"/>
<line x1="270" y1="70" x2="270" y2="170" style="stroke-opacity:0.04279; stroke-width:4.279"/>
<line x1="770" y1="170" x2="670" y2="170" style="stroke-opacity:0.078; stroke-width:7.8"/>
<line x1="70" y1="270" x2="370" y2="270" style="stroke-opacity:0.03697; stroke-width:3.697"/>
<line x1="270" y1="70" x2="170" y2="70" style="stroke-opacity:0.025; stroke-width:1.473"/>
<line x1="470" y1="270" x2="170" y2="270" style="stroke-opacity:0.025; stroke-width:1.286"/>
<line x1="370" y1="70" x2="470" y2="270" style="stroke-opacity:0.025; stroke-width:1.615"/>
<line x1="270" y1="270" x2="470" y2="270" style="stroke-opacity:0.06684; stroke-width:6.684"/>
<line x1="70" y1="170" x2="370" y2="70" style="stroke-opacity:0.025; stroke-width:0.768"/>
<line x1="470" y1="270" x2="270" y2="170" style="stroke-opacity:0.0675; stroke-width:6.75"/>
<line x1="370" y1="170" x2="270" y2="70" style="stroke-opacity:0.05134; stroke-width:5.134"/>
<line x1="670" y1="170" x2="670" y2="270" style="stroke-opacity:0.025; stroke-width:0.728"/>
<line x1="170" y1="70" x2="270" y2="270" style="stroke-opacity:0.025; stroke-width:1.899"/>
<line x1="270" y1="170" x2="370" y2="270" style="stroke-opacity:0.14579; stroke-width:14.579"/>
<line x1="470" y1="270" x2="470" y2="170" style="stroke-opacity:0.04728; stroke-width:4.728"/>
<line x1="470" y1="270" x2="170" y2="70" style="stroke-opacity:0.025; stroke-width:1.317"/>
<line x1="170" y1="70" x2="470" y2="270" style="stroke-opacity:0.025; stroke-width:1.276"/>
<line x1="470" y1="170" x2="270" y2="170" style="stroke-opacity:0.05962; stroke-width:5.962"/>
<line x1="870" y1="70" x2="670" y2="170" style="stroke-opacity:0.025; stroke-width:0.678"/>
<line x1="270" y1="170" x2="70" y2="270" style="stroke-opacity:0.03073; stroke-width:3.073"/>
<line x1="470" y1="170" x2="70" y2="70" style="stroke-opacity:0.02532; stroke-width:2.532"/>
<line x1="770" y1="270" x2="770" y2="170" style="stroke-opacity:0.03544; stroke-width:3.544"/>
<line x1="170" y1="270" x2="270" y2="170" style="stroke-opacity:0.025; stroke-width:1.905"/>
<line x1="370" y1="270" x2="470" y2="270" style="stroke-opacity:0.04281; stroke-width:4.281"/>
<line x1="370" y1="70" x2="270" y2="270" style="stroke-opacity:0.04139; stroke-width:4.139"/>
<line x1="270" y1="270" x2="470" y2="170" style="stroke-opacity:0.03498; stroke-width:3.498"/>
<line x1="170" y1="170" x2="470" y2="170" style="stroke-opacity:0.04595; stroke-width:4.595"/>
<line x1="270" y1="170" x2="270" y2="270" style="stroke-opacity:0.06563; stroke-width:6.563"/>
<line x1="270" y1="270" x2="270" y2="70" style="stroke-opacity:0.025; stroke-width:2.412"/>
<line x1="470" y1="170" x2="170" y2="70" style="stroke-opacity:0.04667; stroke-width:4.667"/>
<line x1="170" y1="70" x2="270" y2="170" style="stroke-opacity:0.03992; stroke-width:3.992"/>
<line x1="370" y1="70" x2="70" y2="270" style="stroke-opacity:0.025; stroke-width:0.65"/>
<line x1="70" y1="270" x2="370" y2="170" style="stroke-opacity:0.03854; stroke-width:3.854"/>
<line x1="870" y1="270" x2="770" y2="70" style="stroke-opacity:0.025; stroke-width:1.5"/>
<line x1="670" y1="170" x2="770" y2="170" style="stroke-opacity:0.02804; stroke-width:2.804"/>
<line x1="470" y1="170" x2="270" y2="270" style="stroke-opacity:0.05504; stroke-width:5.504"/>
<line x1="270" y1="270" x2="70" y2="70" style="stroke-opacity:0.025; stroke-width:1.781"/>
<line x1="70" y1="70" x2="270" y2="270" style="stroke-opacity:0.025; stroke-width:1.085"/>
<line x1="470" y1="70" x2="270" y2="170" style="stroke-opacity:0.03664; stroke-width:3.664"/>
<line x1="70" y1="70" x2="470" y2="170" style="stroke-opacity:0.025; stroke-width:2.369"/>
<line x1="70" y1="70" x2="170" y2="170" style="stroke-opacity:0.025; stroke-width:1.07"/>
<line x1="170" y1="70" x2="170" y2="170" style="stroke-opacity:0.025; stroke-width:1.167"/>
<line x1="170" y1="170" x2="270" y2="270" style="stroke-opacity:0.02775; stroke-width:2.775"/>
<line x1="770" y1="170" x2="670" y2="270" style="stroke-opacity:0.07719; stroke-width:7.719"/>
<line x1="370" y1="70" x2="370" y2="170" style="stroke-opacity:0.05069; stroke-width:5.069"/>
<line x1="170" y1="270" x2="470" y2="270" style="stroke-opacity:0.025; stroke-width:1.703"/>
<line x1="270" y1="170" x2="470" y2="70" style="stroke-opacity:0.025; stroke-width:0.93"/>
<line x1="270" y1="70" x2="370" y2="70" style="stroke-opacity:0.03816; stroke-width:3.816"/>
<line x1="70" y1="170" x2="270" y2="270" style="stroke-opacity:0.02779; stroke-width:2.779"/>
<line x1="370" y1="270" x2="170" y2="270" style="stroke-opacity:0.025; stroke-width:1.631"/>
<line x1="270" y1="70" x2="470" y2="270" style="stroke-opacity:0.04075; stroke-width:4.075"/>
<line x1="470" y1="270" x2="270" y2="70" style="stroke-opacity:0.03021; stroke-width:3.021"/>
<line x1="270" y1="70" x2="470" y2="70" style="stroke-opacity:0.025; stroke-width:0.476"/>
<line x1="270" y1="170" x2="170" y2="170" style="stroke-opacity:0.04168; stroke-width:4.168"/>
<line x1="170" y1="170" x2="470" y2="270" style="stroke-opacity:0.025; stroke-width:1.85"/>
<line x1="770" y1="270" x2="670" y2="270" style="stroke-opacity:0.025; stroke-width:1.002"/>
<line x1="670" y1="270" x2="870" y2="70" style="stroke-opacity:0.025; stroke-width:1.797"/>
<line x1="470" y1="170" x2="70" y2="270" style="stroke-opacity:0.025; stroke-width:1.453"/>
<line x1="670" y1="270" x2="770" y2="70" style="stroke-opacity:0.025; stroke-width:0.886"/>
<line x1="770" y1="70" x2="870" y2="270" style="stroke-opacity:0.025; stroke-width:1.8"/>
<line x1="370" y1="170" x2="370" y2="70" style="stroke-opacity:0.06904; stroke-width:6.904"/>
<line x1="470" y1="170" x2="170" y2="270" style="stroke-opacity:0.03037; stroke-width:3.037"/>
<line x1="170" y1="270" x2="70" y2="170" style="stroke-opacity:0.025; stroke-width:0.952"/>
<line x1="170" y1="70" x2="170" y2="270" style="stroke-opacity:0.025; stroke-width:0.394"/>
<line x1="170" y1="270" x2="370" y2="270" style="stroke-opacity:0.025; stroke-width:1.026"/>
<line x1="870" y1="270" x2="770" y2="270" style="stroke-opacity:0.025; stroke-width:2.148"/>
<line x1="470" y1="170" x2="170" y2="170" style="stroke-opacity:0.02896; stroke-width:2.896"/>
<line x1="170" y1="170" x2="170" y2="70" style="stroke-opacity:0.025; stroke-width:0.287"/>
<line x1="370" y1="270" x2="170" y2="70" style="stroke-opacity:0.025; stroke-width:0.71"/>
<line x1="270" y1="170" x2="170" y2="270" style="stroke-opacity:0.025; stroke-width:2.479"/>
<line x1="170" y1="270" x2="470" y2="170" style="stroke-opacity:0.025; stroke-width:2.169"/>
<line x1="770" y1="270" x2="870" y2="270" style="stroke-opacity:0.05128; stroke-width:5.128"/>
<line x1="870" y1="270" x2="670" y2="270" style="stroke-opacity:0.025; stroke-width:0.685"/>
<line x1="170" y1="270" x2="270" y2="70" style="stroke-opacity:0.025; stroke-width:1.256"/>
<line x1="770" y1="270" x2="770" y2="70" style="stroke-opacity:0.025; stroke-width:0.526"/>
<line x1="270" y1="270" x2="170" y2="70" style="stroke-opacity:0.025; stroke-width:1.068"/>
<line x1="170" y1="70" x2="370" y2="270" style="stroke-opacity:0.025; stroke-width:1.692"/>
<line x1="670" y1="170" x2="770" y2="270" style="stroke-opacity:0.025; stroke-width:1.037"/>
<line x1="70" y1="170" x2="270" y2="70" style="stroke-opacity:0.038; stroke-width:3.8"/>
<line x1="470" y1="270" x2="70" y2="70" style="stroke-opacity:0.025; stroke-width:1.551"/>
<line x1="670" y1="270" x2="770" y2="270" style="stroke-opacity:0.025; stroke-width:2.362"/>
<line x1="370" y1="270" x2="370" y2="70" style="stroke-opacity:0.025; stroke-width:1.765"/>
<line x1="670" y1="270" x2="870" y2="270" style="stroke-opacity:0.025; stroke-width:0.82"/>
<line x1="70" y1="70" x2="370" y2="170" style="stroke-opacity:0.025; stroke-width:1.963"/>
<line x1="70" y1="70" x2="270" y2="70" style="stroke-opacity:0.025; stroke-width:1.34"/>
<line x1="270" y1="270" x2="170" y2="270" style="stroke-opacity:0.025; stroke-width:0.47"/>
<line x1="870" y1="270" x2="670" y2="170" style="stroke-opacity:0.025; stroke-width:0.751"/>
<line x1="670" y1="170" x2="870" y2="270" style="stroke-opacity:0.025; stroke-width:0.766"/>
<line x1="170" y1="170" x2="370" y2="170" style="stroke-opacity:0.025; stroke-width:1.804"/>
<line x1="270" y1="70" x2="170" y2="270" style="stroke-opacity:0.025; stroke-width:1.095"/>
<line x1="70" y1="70" x2="270" y2="170" style="stroke-opacity:0.0276; stroke-width:2.76"/>
<line x1="670" y1="270" x2="670" y2="170" style="stroke-opacity:0.025; stroke-width:0.605"/>
<line x1="770" y1="70" x2="670" y2="170" style="stroke-opacity:0.025; stroke-width:0.231"/>
<line x1="470" y1="270" x2="270" y2="270" style="stroke-opacity:0.025; stroke-width:2.244"/>
<line x1="470" y1="270" x2="170" y2="170" style="stroke-opacity:0.025; stroke-width:1.195"/>
<line x1="270" y1="170" x2="170" y2="70" style="stroke-opacity:0.025; stroke-width:1.57"/>
<line x1="870" y1="70" x2="670" y2="270" style="stroke-opacity:0.025; stroke-width:0.984"/>
<line x1="270" y1="170" x2="70" y2="170" style="stroke-opacity:0.025; stroke-width:2.429"/>
<line x1="70" y1="170" x2="470" y2="170" style="stroke-opacity:0.02608; stroke-width:2.608"/>
<line x1="70" y1="170" x2="70" y2="270" style="stroke-opacity:0.025; stroke-width:0.397"/>
<line x1="170" y1="70" x2="370" y2="70" style="stroke-opacity:0.025; stroke-width:0.441"/>
<line x1="670" y1="170" x2="770" y2="70" style="stroke-opacity:0.025; stroke-width:0.499"/>
<line x1="170" y1="70" x2="70" y2="70" style="stroke-opacity:0.025; stroke-width:0.543"/>
<line x1="370" y1="170" x2="470" y2="70" style="stroke-opacity:0.025; stroke-width:1.846"/>
<line x1="70" y1="70" x2="470" y2="270" style="stroke-opacity:0.025; stroke-width:0.988"/>
<line x1="470" y1="270" x2="470" y2="70" style="stroke-opacity:0.025; stroke-width:0.668"/>
<line x1="370" y1="270" x2="70" y2="70" style="stroke-opacity:0.025; stroke-width:0.95"/>
<line x1="70" y1="70" x2="370" y2="70" style="stroke-opacity:0.025; stroke-width:0.288"/>
<line x1="170" y1="270" x2="370" y2="70" style="stroke-opacity:0.025; stroke-width:0.538"/>
<line x1="70" y1="170" x2="370" y2="170" style="stroke-opacity:0.04429; stroke-width:4.429"/>
<line x1="170" y1="70" x2="470" y2="70" style="stroke-opacity:0.025; stroke-width:0.12"/>
<line x1="170" y1="70" x2="470" y2="170" style="stroke-opacity:0.025; stroke-width:1.824"/>
<line x1="370" y1="170" x2="70" y2="170" style="stroke-opacity:0.04239; stroke-width:4.239"/>
<line x1="270" y1="270" x2="470" y2="70" style="stroke-opacity:0.025; stroke-width:0.424"/>
<line x1="470" y1="70" x2="70" y2="170" style="stroke-opacity:0.025; stroke-width:0.506"/>
<line x1="370" y1="70" x2="70" y2="70" style="stroke-opacity:0.025; stroke-width:0.386"/>
<line x1="470" y1="170" x2="370" y2="70" style="stroke-opacity:0.0258; stroke-width:2.58"/>
<line x1="70" y1="270" x2="270" y2="70" style="stroke-opacity:0.025; stroke-width:0.628"/>
<line x1="170" y1="270" x2="270" y2="270" style="stroke-opacity:0.025; stroke-width:2.41"/>
<line x1="870" y1="70" x2="870" y2="270" style="stroke-opacity:0.025; stroke-width:1.17"/>
<line x1="70" y1="270" x2="470" y2="170" style="stroke-opacity:0.025; stroke-width:2.019"/>
<line x1="370" y1="70" x2="170" y2="70" style="stroke-opacity:0.025; stroke-width:0.302"/>
<line x1="470" y1="70" x2="270" y2="270" style="stroke-opacity:0.025; stroke-width:0.365"/>
<line x1="70" y1="170" x2="170" y2="170" style="stroke-opacity:0.025; stroke-width:1.089"/>
<line x1="470" y1="170" x2="470" y2="70" style="stroke-opacity:0.025; stroke-width:0.628"/>
<line x1="370" y1="170" x2="70" y2="270" style="stroke-opacity:0.02583; stroke-width:2.583"/>
<line x1="870" y1="70" x2="770" y2="270" style="stroke-opacity:0.025; stroke-width:0.336"/>
<line x1="70" y1="70" x2="70" y2="170" style="stroke-opacity:0.025; stroke-width:0.356"/>
<line x1="170" y1="170" x2="370" y2="270" style="stroke-opacity:0.025; stroke-width:0.939"/>
<line x1="70" y1="270" x2="370" y2="70" style="stroke-opacity:0.025; stroke-width:0.688"/>
<line x1="770" y1="70" x2="770" y2="270" style="stroke-opacity:0.025; stroke-width:0.459"/>
<line x1="270" y1="270" x2="170" y2="170" style="stroke-opacity:0.025; stroke-width:1.261"/>
<line x1="770" y1="270" x2="870" y2="70" style="stroke-opacity:0.025; stroke-width:0.127"/>
<line x1="70" y1="70" x2="170" y2="270" style="stroke-opacity:0.025; stroke-width:0.631"/>
<line x1="370" y1="70" x2="170" y2="170" style="stroke-opacity:0.025; stroke-width:0.779"/>
<line x1="470" y1="70" x2="470" y2="270" style="stroke-opacity:0.025; stroke-width:0.08"/>
<line x1="170" y1="170" x2="70" y2="170" style="stroke-opacity:0.025; stroke-width:0.66"/>
<line x1="470" y1="70" x2="70" y2="270" style="stroke-opacity:0.025; stroke-width:0.08"/>
<line x1="170" y1="170" x2="70" y2="270" style="stroke-opacity:0.025; stroke-width:0.106"/>
<line x1="470" y1="70" x2="370" y2="70" style="stroke-opacity:0.025; stroke-width:0.202"/>
<line x1="70" y1="270" x2="470" y2="270" style="stroke-opacity:0.025; stroke-width:0.277"/>
<line x1="170" y1="70" x2="70" y2="170" style="stroke-opacity:0.025; stroke-width:1.011"/>
<line x1="370" y1="270" x2="470" y2="70" style="stroke-opacity:0.025; stroke-width:0.461"/>
<line x1="270" y1="170" x2="70" y2="70" style="stroke-opacity:0.025; stroke-width:1.735"/>
<line x1="370" y1="270" x2="70" y2="270" style="stroke-opacity:0.025; stroke-width:0.686"/>
<line x1="170" y1="270" x2="70" y2="270" style="stroke-opacity:0.025; stroke-width:0.407"/>
<line x1="470" y1="270" x2="70" y2="270" style="stroke-opacity:0.025; stroke-width:0.96"/>
<line x1="870" y1="70" x2="770" y2="70" style="stroke-opacity:0.025; stroke-width:0.677"/>
<line x1="770" y1="270" x2="670" y2="170" style="stroke-opacity:0.025; stroke-width:0.399"/>
<line x1="470" y1="70" x2="370" y2="170" style="stroke-opacity:0.025; stroke-width:0.645"/>
<line x1="70" y1="270" x2="70" y2="170" style="stroke-opacity:0.025; stroke-width:0.52"/>
<line x1="170" y1="170" x2="370" y2="70" style="stroke-opacity:0.025; stroke-width:0.114"/>
<line x1="70" y1="270" x2="170" y2="70" style="stroke-opacity:0.025; stroke-width:0.104"/>
<line x1="70" y1="170" x2="470" y2="70" style="stroke-opacity:0.025; stroke-width:0.151"/>
<line x1="470" y1="70" x2="470" y2="170" style="stroke-opacity:0.025; stroke-width:0.3"/>
<line x1="270" y1="70" x2="170" y2="170" style="stroke-opacity:0.025; stroke-width:0.725"/>
<line x1="370" y1="70" x2="470" y2="70" style="stroke-opacity:0.025; stroke-width:0.111"/>
<line x1="470" y1="70" x2="270" y2="70" style="stroke-opacity:0.025; stroke-width:0.659"/>
<line x1="270" y1="70" x2="70" y2="70" style="stroke-opacity:0.025; stroke-width:0.549"/>
<line x1="270" y1="70" x2="70" y2="270" style="stroke-opacity:0.025; stroke-width:0.537"/>
<line x1="170" y1="170" x2="270" y2="70" style="stroke-opacity:0.025; stroke-width:0.335"/>
<line x1="170" y1="270" x2="170" y2="70" style="stroke-opacity:0.025; stroke-width:0.15"/>
<line x1="170" y1="70" x2="70" y2="270" style="stroke-opacity:0.025; stroke-width:0.468"/>
<line x1="70" y1="270" x2="270" y2="270" style="stroke-opacity:0.025; stroke-width:0.687"/>
<line x1="370" y1="70" x2="170" y2="270" style="stroke-opacity:0.025; stroke-width:0.609"/>
<line x1="270" y1="270" x2="70" y2="270" style="stroke-opacity:0.025; stroke-width:0.722"/>
<line x1="70" y1="170" x2="170" y2="70" style="stroke-opacity:0.025; stroke-width:0.64"/>
<line x1="770" y1="70" x2="670" y2="270" style="stroke-opacity:0.025; stroke-width:0.743"/>
<line x1="470" y1="70" x2="370" y2="270" style="stroke-opacity:0.025; stroke-width:0.377"/>
<line x1="170" y1="270" x2="70" y2="70" style="stroke-opacity:0.025; stroke-width:0.303"/>
<line x1="870" y1="270" x2="870" y2="70" style="stroke-opacity:0.025; stroke-width:0.594"/>
<line x1="70" y1="70" x2="370" y2="270" style="stroke-opacity:0.025; stroke-width:0.443"/>
<line x1="70" y1="170" x2="70" y2="70" style="stroke-opacity:0.025; stroke-width:0.188"/>
<line x1="170" y1="270" x2="170" y2="170" style="stroke-opacity:0.025; stroke-width:0.15"/>
<line x1="70" y1="270" x2="170" y2="170" style="stroke-opacity:0.025; stroke-width:0.187"/>
<line x1="170" y1="270" x2="470" y2="70" style="stroke-opacity:0.025; stroke-width:0.08"/>
<line x1="70" y1="70" x2="170" y2="70" style="stroke-opacity:0.025; stroke-width:0.087"/>
<line x1="70" y1="270" x2="170" y2="270" style="stroke-opacity:0.025; stroke-width:0.116"/>
<line x1="470" y1="70" x2="170" y2="170" style="stroke-opacity:0.025; stroke-width:0.083"/>
<line x1="170" y1="170" x2="70" y2="70" style="stroke-opacity:0.025; stroke-width:0.08"/>
<line x1="170" y1="170" x2="170" y2="270" style="stroke-opacity:0.025; stroke-width:0.08"/>
<line x1="470" y1="70" x2="170" y2="70" style="stroke-opacity:0.025; stroke-width:0.08"/>
<line x1="70" y1="270" x2="470" y2="70" style="stroke-opacity:0.025; stroke-width:0.08"/>
<line x1="70" y1="70" x2="70" y2="270" style="stroke-opacity:0.025; stroke-width:0.09"/>
<line x1="470" y1="70" x2="170" y2="270" style="stroke-opacity:0.025; stroke-width:0.08"/>
<line x1="70" y1="270" x2="70" y2="70" style="stroke-opacity:0.025; stroke-width:0.08"/>
<line x1="170" y1="170" x2="470" y2="70" style="stroke-opacity:0.025; stroke-width:0.08"/>
<line x1="70" y1="70" x2="470" y2="70" style="stroke-opacity:0.025; stroke-width:0.08"/>
<line x1="470" y1="70" x2="70" y2="70" style="stroke-opacity:0.025; stroke-width:0.08"/>
</g>

</svg>