<?xml version="1.0" standalone="no"?>
<!DOCTYPE svg PUBLIC "-//W3C//DTD SVG 1.1//EN" "http://www.w3.org/Graphics/SVG/1.1/DTD/svg11.dtd">

<svg width="1140" height="340" style="background:#f0f0f0" 
  xmlns="http://www.w3.org/2000/svg"
  xmlns:xlink="http://www.w3.org/1999/xlink">


<marker id="arrow" viewBox="-5 -10 10 20" orient="auto" markerUnits="strokeWidth" markerWidth="1.8" markerHeight="1.8">
<polygon points="0,-10 5,0 0,10" stroke="none" style="fill:#f00000; fill-opacity:0.6"/>
</marker>
<g>
<rect x="20" y="20" width="100" height="100" style="stroke:#808080; fill:#f0f0f0"/>
<g style="stroke:#404040; fill:#404040">
<text x="30" y="50" font-size="20">
★
</text>
<text x="30" y="70" font-size="16">
★
</text>
<text x="50" y="70" font-size="16">
★
</text>
</g>
</g>
<g>
<rect x="20" y="120" width="100" height="100" style="stroke:#808080; fill:#f0f0f0"/>
<g style="stroke:#404040; fill:#404040">
<text x="30" y="150" font-size="20">
★
</text>
<text x="30" y="170" font-size="16">
★
</text>
<text x="50" y="170" font-size="16">
★
</text>
</g>
</g>
<g>
<rect x="20" y="220" width="100" height="100" style="stroke:#808080; fill:#f0f0f0"/>
<g style="stroke:#404040; fill:#404040">
<text x="30" y="250" font-size="20">
★
</text>
<text x="30" y="270" font-size="16">
★
</text>
<text x="50" y="270" font-size="16">
★
</text>
</g>
</g>
<g>
<rect x="120" y="20" width="100" height="100" style="stroke:#808080; fill:#f0f0f0"/>
<g style="stroke:#404040; fill:#404040">
<text x="130" y="50" font-size="20">
★
</text>
<text x="130" y="70" font-size="16">
★
</text>
<text x="150" y="70" font-size="16">
★
</text>
</g>
</g>
<g>
<rect x="120" y="120" width="100" height="100" style="stroke:#808080; fill:#f0f0f0"/>
<g style="stroke:#404040; fill:#404040">
<text x="130" y="150" font-size="20">
★
</text>
<text x="130" y="170" font-size="16">
★
</text>
<text x="150" y="170" font-size="16">
★
</text>
</g>
</g>
<g>
<rect x="120" y="220" width="100" height="100" style="stroke:#808080; fill:#f0f0f0"/>
<g style="stroke:#404040; fill:#404040">
<text x="130" y="250" font-size="20">
★
</text>
<text x="130" y="270" font-size="16">
★
</text>
<text x="150" y="270" font-size="16">
★
</text>
</g>
</g>
<g>
<rect x="220" y="20" width="100" height="100" style="stroke:#808080; fill:#f0f0f0"/>
<g style="stroke:#404040; fill:#404040">
<text x="230" y="50" font-size="20">
と
</text>
<text x="230" y="70" font-size="16">
け
</text>
<text x="250" y="70" font-size="16">
ち
</text>
</g>
</g>
<g>
<rect x="220" y="120" width="100" height="100" style="stroke:#808080; fill:#f0f0f0"/>
<g style="stroke:#404040; fill:#404040">
<text x="230" y="150" font-size="20">
ん
</text>
<text x="230" y="170" font-size="16">
に
</text>
<text x="250" y="170" font-size="16">
ま
</text>
</g>
</g>
<g>
<rect x="220" y="220" width="100" height="100" style="stroke:#808080; fill:#f0f0f0"/>
<g style="stroke:#404040; fill:#404040">
<text x="230" y="250" font-size="20">
て
</text>
<text x="230" y="270" font-size="16">
り
</text>
<text x="250" y="270" font-size="16">
わ
</text>
</g>
</g>
<g>
<rect x="320" y="20" width="100" height="100" style="stroke:#808080; fill:#f0f0f0"/>
<g style="stroke:#404040; fill:#404040">
<text x="330" y="50" font-size="20">
こ
</text>
<text x="330" y="70" font-size="16">
ひ
</text>
<text x="350" y="70" font-size="16">
ぬ
</text>
</g>
</g>
<g>
<rect x="320" y="120" width="100" height="100" style="stroke:#808080; fill:#f0f0f0"/>
<g style="stroke:#404040; fill:#404040">
<text x="330" y="150" font-size="20">
か
</text>
<text x="330" y="170" font-size="16">
は
</text>
<text x="350" y="170" font-size="16">
を
</text>
</g>
</g>
<g>
<rect x="320" y="220" width="100" height="100" style="stroke:#808080; fill:#f0f0f0"/>
<g style="stroke:#404040; fill:#404040">
<text x="330" y="250" font-size="20">
し
</text>
<text x="330" y="270" font-size="16">
ー
</text>
<text x="350" y="270" font-size="16">
ほ
</text>
</g>
</g>
<g>
<rect x="420" y="20" width="100" height="100" style="stroke:#808080; fill:#f0f0f0"/>
<g style="stroke:#404040; fill:#404040">
<text x="430" y="50" font-size="20">
小
</text>
<text x="430" y="70" font-size="16">
★
</text>
<text x="450" y="70" font-size="16">
★
</text>
</g>
</g>
<g>
<rect x="420" y="120" width="100" height="100" style="stroke:#808080; fill:#f0f0f0"/>
<g style="stroke:#404040; fill:#404040">
<text x="430" y="150" font-size="20">
の
</text>
<text x="430" y="170" font-size="16">
き
</text>
<text x="450" y="170" font-size="16">
み
</text>
</g>
</g>
<g>
<rect x="420" y="220" width="100" height="100" style="stroke:#808080; fill:#f0f0f0"/>
<g style="stroke:#404040; fill:#404040">
<text x="430" y="250" font-size="20">
も
</text>
<text x="430" y="270" font-size="16">
ふ
</text>
<text x="450" y="270" font-size="16">
め
</text>
</g>
</g>
<g>
<rect x="620" y="20" width="100" height="100" style="stroke:#808080; fill:#f0f0f0"/>
<g style="stroke:#404040; fill:#404040">
<text x="630" y="50" font-size="20">
★
</text>
<text x="630" y="70" font-size="16">
★
</text>
<text x="650" y="70" font-size="16">
★
</text>
</g>
</g>
<g>
<rect x="620" y="120" width="100" height="100" style="stroke:#808080; fill:#f0f0f0"/>
<g style="stroke:#404040; fill:#404040">
<text x="630" y="150" font-size="20">
く
</text>
<text x="630" y="170" font-size="16">
あ
</text>
<text x="650" y="170" font-size="16">
ゆ
</text>
</g>
</g>
<g>
<rect x="620" y="220" width="100" height="100" style="stroke:#808080; fill:#f0f0f0"/>
<g style="stroke:#404040; fill:#404040">
<text x="630" y="250" font-size="20">
な
</text>
<text x="630" y="270" font-size="16">
ろ
</text>
<text x="650" y="270" font-size="16">
や
</text>
</g>
</g>
<g>
<rect x="720" y="20" width="100" height="100" style="stroke:#808080; fill:#f0f0f0"/>
<g style="stroke:#404040; fill:#404040">
<text x="730" y="50" font-size="20">
す
</text>
<text x="730" y="70" font-size="16">
せ
</text>
<text x="750" y="70" font-size="16">
え
</text>
</g>
</g>
<g>
<rect x="720" y="120" width="100" height="100" style="stroke:#808080; fill:#f0f0f0"/>
<g style="stroke:#404040; fill:#404040">
<text x="730" y="150" font-size="20">
い
</text>
<text x="730" y="170" font-size="16">
よ
</text>
<text x="750" y="170" font-size="16">
そ
</text>
</g>
</g>
<g>
<rect x="720" y="220" width="100" height="100" style="stroke:#808080; fill:#f0f0f0"/>
<g style="stroke:#404040; fill:#404040">
<text x="730" y="250" font-size="20">
れ
</text>
<text x="730" y="270" font-size="16">
っ
</text>
<text x="750" y="270" font-size="16">
お
</text>
</g>
</g>
<g>
<rect x="820" y="20" width="100" height="100" style="stroke:#808080; fill:#f0f0f0"/>
<g style="stroke:#404040; fill:#404040">
<text x="830" y="50" font-size="20">
る
</text>
<text x="830" y="70" font-size="16">
さ
</text>
<text x="850" y="70" font-size="16">
へ
</text>
</g>
</g>
<g>
<rect x="820" y="120" width="100" height="100" style="stroke:#808080; fill:#f0f0f0"/>
<g style="stroke:#404040; fill:#404040">
<text x="830" y="150" font-size="20">
う
</text>
<text x="830" y="170" font-size="16">
つ
</text>
<text x="850" y="170" font-size="16">
む
</text>
</g>
</g>
<g>
<rect x="820" y="220" width="100" height="100" style="stroke:#808080; fill:#f0f0f0"/>
<g style="stroke:#404040; fill:#404040">
<text x="830" y="250" font-size="20">
た
</text>
<text x="830" y="270" font-size="16">
ら
</text>
<text x="850" y="270" font-size="16">
ね
</text>
</g>
</g>
<g>
<rect x="920" y="20" width="100" height="100" style="stroke:#808080; fill:#f0f0f0"/>
<g style="stroke:#404040; fill:#404040">
<text x="930" y="50" font-size="20">
★
</text>
<text x="930" y="70" font-size="16">
★
</text>
<text x="950" y="70" font-size="16">
★
</text>
</g>
</g>
<g>
<rect x="920" y="120" width="100" height="100" style="stroke:#808080; fill:#f0f0f0"/>
<g style="stroke:#404040; fill:#404040">
<text x="930" y="150" font-size="20">
★
</text>
<text x="930" y="170" font-size="16">
★
</text>
<text x="950" y="170" font-size="16">
★
</text>
</g>
</g>
<g>
<rect x="920" y="220" width="100" height="100" style="stroke:#808080; fill:#f0f0f0"/>
<g style="stroke:#404040; fill:#404040">
<text x="930" y="250" font-size="20">
★
</text>
<text x="930" y="270" font-size="16">
★
</text>
<text x="950" y="270" font-size="16">
★
</text>
</g>
</g>
<g>
<rect x="1020" y="20" width="100" height="100" style="stroke:#808080; fill:#f0f0f0"/>
<g style="stroke:#404040; fill:#404040">
<text x="1030" y="50" font-size="20">
★
</text>
<text x="1030" y="70" font-size="16">
★
</text>
<text x="1050" y="70" font-size="16">
★
</text>
</g>
</g>
<g>
<rect x="1020" y="120" width="100" height="100" style="stroke:#808080; fill:#f0f0f0"/>
<g style="stroke:#404040; fill:#404040">
<text x="1030" y="150" font-size="20">
★
</text>
<text x="1030" y="170" font-size="16">
★
</text>
<text x="1050" y="170" font-size="16">
★
</text>
</g>
</g>
<g>
<rect x="1020" y="220" width="100" height="100" style="stroke:#808080; fill:#f0f0f0"/>
<g style="stroke:#404040; fill:#404040">
<text x="1030" y="250" font-size="20">
★
</text>
<text x="1030" y="270" font-size="16">
★
</text>
<text x="1050" y="270" font-size="16">
★
</text>
</g>
</g>
<g style="stroke:#f00000" marker-end="url(#arrow)">
<line x1="370" y1="70" x2="270" y2="170" style="stroke-opacity:0.07263; stroke-width:7.263"/>
<line x1="270" y1="170" x2="370" y2="170" style="stroke-opacity:0.20194; stroke-width:20.194"/>
<line x1="370" y1="170" x2="270" y2="70" style="stroke-opacity:0.06156; stroke-width:6.156"/>
<line x1="770" y1="170" x2="870" y2="170" style="stroke-opacity:0.4881; stroke-width:48.81"/>
<line x1="370" y1="270" x2="270" y2="170" style="stroke-opacity:0.23645; stroke-width:23.645"/>
<line x1="870" y1="170" x2="770" y2="170" style="stroke-opacity:0.19726; stroke-width:19.726"/>
<line x1="770" y1="170" x2="670" y2="270" style="stroke-opacity:0.04784; stroke-width:4.784"/>
<line x1="670" y1="270" x2="870" y2="170" style="stroke-opacity:0.10193; stroke-width:10.193"/>
<line x1="270" y1="270" x2="270" y2="170" style="stroke-opacity:0.08631; stroke-width:8.631"/>
<line x1="270" y1="170" x2="470" y2="170" style="stroke-opacity:0.13063; stroke-width:13.063"/>
<line x1="470" y1="170" x2="370" y2="270" style="stroke-opacity:0.10841; stroke-width:10.841"/>
<line x1="770" y1="170" x2="670" y2="170" style="stroke-opacity:0.07431; stroke-width:7.431"/>
<line x1="870" y1="170" x2="670" y2="270" style="stroke-opacity:0.09628; stroke-width:9.628"/>
<line x1="470" y1="270" x2="470" y2="170" style="stroke-opacity:0.08775; stroke-width:8.775"/>
<line x1="470" y1="170" x2="370" y2="170" style="stroke-opacity:0.15982; stroke-width:15.982"/>
<line x1="370" y1="170" x2="370" y2="270" style="stroke-opacity:0.08997; stroke-width:8.997"/>
<line x1="870" y1="70" x2="670" y2="170" style="stroke-opacity:0.08909; stroke-width:8.909"/>
<line x1="270" y1="70" x2="270" y2="270" style="stroke-opacity:0.04718; stroke-width:4.718"/>
<line x1="670" y1="170" x2="870" y2="170" style="stroke-opacity:0.18191; stroke-width:18.191"/>
<line x1="870" y1="170" x2="870" y2="70" style="stroke-opacity:0.08637; stroke-width:8.637"/>
<line x1="370" y1="170" x2="270" y2="270" style="stroke-opacity:0.06386; stroke-width:6.386"/>
<line x1="270" y1="270" x2="370" y2="270" style="stroke-opacity:0.07501; stroke-width:7.501"/>
<line x1="770" y1="270" x2="870" y2="170" style="stroke-opacity:0.05258; stroke-width:5.258"/>
<line x1="270" y1="70" x2="370" y2="270" style="stroke-opacity:0.0702; stroke-width:7.02"/>
<line x1="770" y1="270" x2="770" y2="170" style="stroke-opacity:0.04371; stroke-width:4.371"/>
<line x1="370" y1="170" x2="270" y2="170" style="stroke-opacity:0.15144; stroke-width:15.144"/>
<line x1="370" y1="170" x2="470" y2="270" style="stroke-opacity:0.04989; stroke-width:4.989"/>
<line x1="470" y1="270" x2="270" y2="170" style="stroke-opacity:0.07211; stroke-width:7.211"/>
<line x1="770" y1="70" x2="870" y2="270" style="stroke-opacity:0.0336; stroke-width:3.36"/>
<line x1="370" y1="270" x2="270" y2="270" style="stroke-opacity:0.12272; stroke-width:12.272"/>
<line x1="270" y1="170" x2="470" y2="270" style="stroke-opacity:0.0689; stroke-width:6.89"/>
<line x1="470" y1="170" x2="270" y2="170" style="stroke-opacity:0.11029; stroke-width:11.029"/>
<line x1="870" y1="270" x2="770" y2="170" style="stroke-opacity:0.15609; stroke-width:15.609"/>
<line x1="770" y1="170" x2="770" y2="270" style="stroke-opacity:0.06765; stroke-width:6.765"/>
<line x1="770" y1="270" x2="870" y2="70" style="stroke-opacity:0.0668; stroke-width:6.68"/>
<line x1="370" y1="270" x2="470" y2="170" style="stroke-opacity:0.07183; stroke-width:7.183"/>
<line x1="370" y1="170" x2="470" y2="170" style="stroke-opacity:0.0791; stroke-width:7.91"/>
<line x1="870" y1="170" x2="770" y2="70" style="stroke-opacity:0.11109; stroke-width:11.109"/>
<line x1="770" y1="70" x2="770" y2="170" style="stroke-opacity:0.0876; stroke-width:8.76"/>
<line x1="770" y1="170" x2="870" y2="270" style="stroke-opacity:0.07368; stroke-width:7.368"/>
<line x1="470" y1="170" x2="470" y2="270" style="stroke-opacity:0.0458; stroke-width:4.58"/>
<line x1="870" y1="170" x2="870" y2="270" style="stroke-opacity:0.1693; stroke-width:16.93"/>
<line x1="470" y1="170" x2="370" y2="70" style="stroke-opacity:0.05384; stroke-width:5.384"/>
<line x1="370" y1="70" x2="270" y2="70" style="stroke-opacity:0.07762; stroke-width:7.762"/>
<line x1="270" y1="270" x2="370" y2="170" style="stroke-opacity:0.10582; stroke-width:10.582"/>
<line x1="270" y1="170" x2="270" y2="70" style="stroke-opacity:0.1337; stroke-width:13.37"/>
<line x1="770" y1="70" x2="870" y2="70" style="stroke-opacity:0.10073; stroke-width:10.073"/>
<line x1="870" y1="70" x2="870" y2="170" style="stroke-opacity:0.09009; stroke-width:9.009"/>
<line x1="870" y1="70" x2="770" y2="170" style="stroke-opacity:0.09712; stroke-width:9.712"/>
<line x1="770" y1="170" x2="770" y2="70" style="stroke-opacity:0.0539; stroke-width:5.39"/>
<line x1="870" y1="70" x2="770" y2="270" style="stroke-opacity:0.05237; stroke-width:5.237"/>
<line x1="770" y1="270" x2="770" y2="70" style="stroke-opacity:0.025; stroke-width:1.061"/>
<line x1="270" y1="170" x2="370" y2="270" style="stroke-opacity:0.16679; stroke-width:16.679"/>
<line x1="870" y1="170" x2="770" y2="270" style="stroke-opacity:0.05926; stroke-width:5.926"/>
<line x1="870" y1="170" x2="670" y2="170" style="stroke-opacity:0.14681; stroke-width:14.681"/>
<line x1="670" y1="170" x2="870" y2="70" style="stroke-opacity:0.08831; stroke-width:8.831"/>
<line x1="270" y1="70" x2="370" y2="170" style="stroke-opacity:0.08868; stroke-width:8.868"/>
<line x1="470" y1="170" x2="270" y2="270" style="stroke-opacity:0.05975; stroke-width:5.975"/>
<line x1="770" y1="170" x2="870" y2="70" style="stroke-opacity:0.1056; stroke-width:10.56"/>
<line x1="870" y1="70" x2="670" y2="270" style="stroke-opacity:0.025; stroke-width:2.344"/>
<line x1="270" y1="70" x2="470" y2="170" style="stroke-opacity:0.07216; stroke-width:7.216"/>
<line x1="270" y1="270" x2="370" y2="70" style="stroke-opacity:0.025; stroke-width:1.921"/>
<line x1="770" y1="270" x2="670" y2="170" style="stroke-opacity:0.03826; stroke-width:3.826"/>
<line x1="370" y1="270" x2="270" y2="70" style="stroke-opacity:0.06536; stroke-width:6.536"/>
<line x1="270" y1="70" x2="270" y2="170" style="stroke-opacity:0.1421; stroke-width:14.21"/>
<line x1="270" y1="70" x2="470" y2="270" style="stroke-opacity:0.03012; stroke-width:3.012"/>
<line x1="270" y1="70" x2="370" y2="70" style="stroke-opacity:0.04193; stroke-width:4.193"/>
<line x1="370" y1="70" x2="470" y2="170" style="stroke-opacity:0.04391; stroke-width:4.391"/>
<line x1="270" y1="270" x2="470" y2="170" style="stroke-opacity:0.08935; stroke-width:8.935"/>
<line x1="370" y1="270" x2="470" y2="270" style="stroke-opacity:0.03051; stroke-width:3.051"/>
<line x1="470" y1="170" x2="270" y2="70" style="stroke-opacity:0.06591; stroke-width:6.591"/>
<line x1="670" y1="170" x2="670" y2="270" style="stroke-opacity:0.04841; stroke-width:4.841"/>
<line x1="370" y1="170" x2="370" y2="70" style="stroke-opacity:0.04301; stroke-width:4.301"/>
<line x1="370" y1="270" x2="370" y2="170" style="stroke-opacity:0.08482; stroke-width:8.482"/>
<line x1="670" y1="270" x2="770" y2="170" style="stroke-opacity:0.09276; stroke-width:9.276"/>
<line x1="270" y1="170" x2="370" y2="70" style="stroke-opacity:0.05906; stroke-width:5.906"/>
<line x1="870" y1="270" x2="770" y2="270" style="stroke-opacity:0.05698; stroke-width:5.698"/>
<line x1="470" y1="270" x2="370" y2="270" style="stroke-opacity:0.02645; stroke-width:2.645"/>
<line x1="770" y1="270" x2="670" y2="270" style="stroke-opacity:0.025; stroke-width:1.88"/>
<line x1="870" y1="270" x2="670" y2="170" style="stroke-opacity:0.03202; stroke-width:3.202"/>
<line x1="670" y1="170" x2="770" y2="170" style="stroke-opacity:0.046; stroke-width:4.6"/>
<line x1="770" y1="70" x2="870" y2="170" style="stroke-opacity:0.10339; stroke-width:10.339"/>
<line x1="870" y1="270" x2="870" y2="170" style="stroke-opacity:0.08179; stroke-width:8.179"/>
<line x1="670" y1="270" x2="870" y2="270" style="stroke-opacity:0.025; stroke-width:2.151"/>
<line x1="270" y1="170" x2="270" y2="270" style="stroke-opacity:0.09819; stroke-width:9.819"/>
<line x1="770" y1="270" x2="870" y2="270" style="stroke-opacity:0.0894; stroke-width:8.94"/>
<line x1="370" y1="70" x2="370" y2="170" style="stroke-opacity:0.025; stroke-width:2.358"/>
<line x1="670" y1="270" x2="670" y2="170" style="stroke-opacity:0.05692; stroke-width:5.692"/>
<line x1="870" y1="270" x2="770" y2="70" style="stroke-opacity:0.03361; stroke-width:3.361"/>
<line x1="670" y1="170" x2="870" y2="270" style="stroke-opacity:0.04937; stroke-width:4.937"/>
<line x1="870" y1="270" x2="870" y2="70" style="stroke-opacity:0.02901; stroke-width:2.901"/>
<line x1="270" y1="270" x2="270" y2="70" style="stroke-opacity:0.02594; stroke-width:2.594"/>
<line x1="370" y1="70" x2="270" y2="270" style="stroke-opacity:0.025; stroke-width:0.987"/>
<line x1="870" y1="270" x2="670" y2="270" style="stroke-opacity:0.02522; stroke-width:2.522"/>
<line x1="670" y1="170" x2="770" y2="70" style="stroke-opacity:0.03046; stroke-width:3.046"/>
<line x1="670" y1="170" x2="770" y2="270" style="stroke-opacity:0.025; stroke-width:2.321"/>
<line x1="870" y1="70" x2="770" y2="70" style="stroke-opacity:0.02896; stroke-width:2.896"/>
<line x1="870" y1="70" x2="870" y2="270" style="stroke-opacity:0.02681; stroke-width:2.681"/>
<line x1="670" y1="270" x2="870" y2="70" style="stroke-opacity:0.03147; stroke-width:3.147"/>
<line x1="670" y1="270" x2="770" y2="70" style="stroke-opacity:0.025; stroke-width:1.806"/>
<line x1="470" y1="270" x2="270" y2="270" style="stroke-opacity:0.03765; stroke-width:3.765"/>
<line x1="470" y1="270" x2="270" y2="70" style="stroke-opacity:0.0332; stroke-width:3.32"/>
<line x1="670" y1="270" x2="770" y2="270" style="stroke-opacity:0.02951; stroke-width:2.951"/>
<line x1="370" y1="270" x2="370" y2="70" style="stroke-opacity:0.025; stroke-width:1.459"/>
<line x1="770" y1="70" x2="670" y2="170" style="stroke-opacity:0.025; stroke-width:0.914"/>
<line x1="470" y1="270" x2="370" y2="170" style="stroke-opacity:0.025; stroke-width:2.477"/>
<line x1="270" y1="270" x2="470" y2="270" style="stroke-opacity:0.03916; stroke-width:3.916"/>
<line x1="370" y1="70" x2="370" y2="270" style="stroke-opacity:0.02664; stroke-width:2.664"/>
<line x1="770" y1="70" x2="670" y2="270" style="stroke-opacity:0.025; stroke-width:1.087"/>
<line x1="470" y1="270" x2="370" y2="70" style="stroke-opacity:0.025; stroke-width:0.76"/>
<line x1="770" y1="70" x2="770" y2="270" style="stroke-opacity:0.025; stroke-width:1.967"/>
<line x1="370" y1="70" x2="470" y2="270" style="stroke-opacity:0.025; stroke-width:0.549"/>
<line x1="370" y1="270" x2="470" y2="70" style="stroke-opacity:0.025; stroke-width:0.08"/>
<line x1="470" y1="70" x2="370" y2="270" style="stroke-opacity:0.025; stroke-width:0.08"/>
<line x1="270" y1="170" x2="470" y2="70" style="stroke-opacity:0.025; stroke-width:0.08"/>
<line x1="470" y1="70" x2="370" y2="170" style="stroke-opacity:0.025; stroke-width:0.08"/>
<line x1="470" y1="70" x2="370" y2="70" style="stroke-opacity:0.025; stroke-width:0.08"/>
<line x1="470" y1="70" x2="270" y2="170" style="stroke-opacity:0.025; stroke-width:0.08"/>
<line x1="470" y1="270" x2="470" y2="70" style="stroke-opacity:0.025; stroke-width:0.08"/>
<line x1="270" y1="70" x2="470" y2="70" style="stroke-opacity:0.025; stroke-width:0.08"/>
<line x1="470" y1="70" x2="270" y2="270" style="stroke-opacity:0.025; stroke-width:0.08"/>
<line x1="270" y1="270" x2="470" y2="70" style="stroke-opacity:0.025; stroke-width:0.08"/>
<line x1="470" y1="170" x2="470" y2="70" style="stroke-opacity:0.025; stroke-width:0.08"/>
<line x1="470" y1="70" x2="470" y2="170" style="stroke-opacity:0.025; stroke-width:0.08"/>
<line x1="470" y1="70" x2="270" y2="70" style="stroke-opacity:0.025; stroke-width:0.08"/>
</g>

</svg>