<?xml version="1.0" standalone="no"?>
<!DOCTYPE svg PUBLIC "-//W3C//DTD SVG 1.1//EN" "http://www.w3.org/Graphics/SVG/1.1/DTD/svg11.dtd">

<svg width="1140" height="340" style="background:#f0f0f0" 
  xmlns="http://www.w3.org/2000/svg"
  xmlns:xlink="http://www.w3.org/1999/xlink">


<marker id="arrow" viewBox="-5 -10 10 20" orient="auto" markerUnits="strokeWidth" markerWidth="1.5" markerHeight="1.5">
<polygon points="0,-10 5,0 0,10" stroke="none" style="fill:#f00000; fill-opacity:0.6"/>
</marker>
<g>
<rect x="20" y="20" width="100" height="100" style="stroke:#808080; fill:#f0f0f0"/>
<g style="stroke:#404040; fill:#404040">
<text x="30" y="50" font-size="20">
へ
</text>
<text x="50" y="60" font-size="16">
ぬ
</text>
</g>
</g>
<g>
<rect x="20" y="120" width="100" height="100" style="stroke:#808080; fill:#f0f0f0"/>
<g style="stroke:#404040; fill:#404040">
<text x="30" y="150" font-size="20">
せ
</text>
<text x="50" y="160" font-size="16">
ゆ
</text>
</g>
</g>
<g>
<rect x="20" y="220" width="100" height="100" style="stroke:#808080; fill:#f0f0f0"/>
<g style="stroke:#404040; fill:#404040">
<text x="30" y="250" font-size="20">
そ
</text>
<text x="50" y="260" font-size="16">
や
</text>
</g>
</g>
<g>
<rect x="120" y="20" width="100" height="100" style="stroke:#808080; fill:#f0f0f0"/>
<g style="stroke:#404040; fill:#404040">
<text x="130" y="50" font-size="20">
け
</text>
<text x="150" y="60" font-size="16">
む
</text>
</g>
</g>
<g>
<rect x="120" y="120" width="100" height="100" style="stroke:#808080; fill:#f0f0f0"/>
<g style="stroke:#404040; fill:#404040">
<text x="130" y="150" font-size="20">
う
</text>
<text x="150" y="160" font-size="16">
ま
</text>
</g>
</g>
<g>
<rect x="120" y="220" width="100" height="100" style="stroke:#808080; fill:#f0f0f0"/>
<g style="stroke:#404040; fill:#404040">
<text x="130" y="250" font-size="20">
も
</text>
<text x="150" y="260" font-size="16">
わ
</text>
</g>
</g>
<g>
<rect x="220" y="20" width="100" height="100" style="stroke:#808080; fill:#f0f0f0"/>
<g style="stroke:#404040; fill:#404040">
<text x="230" y="50" font-size="20">
て
</text>
<text x="250" y="60" font-size="16">
よ
</text>
</g>
</g>
<g>
<rect x="220" y="120" width="100" height="100" style="stroke:#808080; fill:#f0f0f0"/>
<g style="stroke:#404040; fill:#404040">
<text x="230" y="150" font-size="20">
の
</text>
<text x="250" y="160" font-size="16">
ん
</text>
</g>
</g>
<g>
<rect x="220" y="220" width="100" height="100" style="stroke:#808080; fill:#f0f0f0"/>
<g style="stroke:#404040; fill:#404040">
<text x="230" y="250" font-size="20">
と
</text>
<text x="250" y="260" font-size="16">
ら
</text>
</g>
</g>
<g>
<rect x="320" y="20" width="100" height="100" style="stroke:#808080; fill:#f0f0f0"/>
<g style="stroke:#404040; fill:#404040">
<text x="330" y="50" font-size="20">
は
</text>
<text x="350" y="60" font-size="16">
め
</text>
</g>
</g>
<g>
<rect x="320" y="120" width="100" height="100" style="stroke:#808080; fill:#f0f0f0"/>
<g style="stroke:#404040; fill:#404040">
<text x="330" y="150" font-size="20">
し
</text>
<text x="350" y="160" font-size="16">
を
</text>
</g>
</g>
<g>
<rect x="320" y="220" width="100" height="100" style="stroke:#808080; fill:#f0f0f0"/>
<g style="stroke:#404040; fill:#404040">
<text x="330" y="250" font-size="20">
か
</text>
<text x="350" y="260" font-size="16">
み
</text>
</g>
</g>
<g>
<rect x="420" y="20" width="100" height="100" style="stroke:#808080; fill:#f0f0f0"/>
<g style="stroke:#404040; fill:#404040">
<text x="430" y="50" font-size="20">
★
</text>
<text x="450" y="60" font-size="16">
★
</text>
</g>
</g>
<g>
<rect x="420" y="120" width="100" height="100" style="stroke:#808080; fill:#f0f0f0"/>
<g style="stroke:#404040; fill:#404040">
<text x="430" y="150" font-size="20">
、
</text>
<text x="450" y="160" font-size="16">
に
</text>
</g>
</g>
<g>
<rect x="420" y="220" width="100" height="100" style="stroke:#808080; fill:#f0f0f0"/>
<g style="stroke:#404040; fill:#404040">
<text x="430" y="250" font-size="20">
こ
</text>
<text x="450" y="260" font-size="16">
ね
</text>
</g>
</g>
<g>
<rect x="620" y="20" width="100" height="100" style="stroke:#808080; fill:#f0f0f0"/>
<g style="stroke:#404040; fill:#404040">
<text x="630" y="50" font-size="20">
★
</text>
<text x="650" y="60" font-size="16">
★
</text>
</g>
</g>
<g>
<rect x="620" y="120" width="100" height="100" style="stroke:#808080; fill:#f0f0f0"/>
<g style="stroke:#404040; fill:#404040">
<text x="630" y="150" font-size="20">
あ
</text>
<text x="650" y="160" font-size="16">
ち
</text>
</g>
</g>
<g>
<rect x="620" y="220" width="100" height="100" style="stroke:#808080; fill:#f0f0f0"/>
<g style="stroke:#404040; fill:#404040">
<text x="630" y="250" font-size="20">
く
</text>
<text x="650" y="260" font-size="16">
★
</text>
</g>
</g>
<g>
<rect x="720" y="20" width="100" height="100" style="stroke:#808080; fill:#f0f0f0"/>
<g style="stroke:#404040; fill:#404040">
<text x="730" y="50" font-size="20">
す
</text>
<text x="750" y="60" font-size="16">
え
</text>
</g>
</g>
<g>
<rect x="720" y="120" width="100" height="100" style="stroke:#808080; fill:#f0f0f0"/>
<g style="stroke:#404040; fill:#404040">
<text x="730" y="150" font-size="20">
い
</text>
<text x="750" y="160" font-size="16">
ろ
</text>
</g>
</g>
<g>
<rect x="720" y="220" width="100" height="100" style="stroke:#808080; fill:#f0f0f0"/>
<g style="stroke:#404040; fill:#404040">
<text x="730" y="250" font-size="20">
っ
</text>
<text x="750" y="260" font-size="16">
き
</text>
</g>
</g>
<g>
<rect x="820" y="20" width="100" height="100" style="stroke:#808080; fill:#f0f0f0"/>
<g style="stroke:#404040; fill:#404040">
<text x="830" y="50" font-size="20">
る
</text>
<text x="850" y="60" font-size="16">
さ
</text>
</g>
</g>
<g>
<rect x="820" y="120" width="100" height="100" style="stroke:#808080; fill:#f0f0f0"/>
<g style="stroke:#404040; fill:#404040">
<text x="830" y="150" font-size="20">
な
</text>
<text x="850" y="160" font-size="16">
ん
</text>
</g>
</g>
<g>
<rect x="820" y="220" width="100" height="100" style="stroke:#808080; fill:#f0f0f0"/>
<g style="stroke:#404040; fill:#404040">
<text x="830" y="250" font-size="20">
た
</text>
<text x="850" y="260" font-size="16">
お
</text>
</g>
</g>
<g>
<rect x="920" y="20" width="100" height="100" style="stroke:#808080; fill:#f0f0f0"/>
<g style="stroke:#404040; fill:#404040">
<text x="930" y="50" font-size="20">
れ
</text>
<text x="950" y="60" font-size="16">
ひ
</text>
</g>
</g>
<g>
<rect x="920" y="120" width="100" height="100" style="stroke:#808080; fill:#f0f0f0"/>
<g style="stroke:#404040; fill:#404040">
<text x="930" y="150" font-size="20">
。
</text>
<text x="950" y="160" font-size="16">
ふ
</text>
</g>
</g>
<g>
<rect x="920" y="220" width="100" height="100" style="stroke:#808080; fill:#f0f0f0"/>
<g style="stroke:#404040; fill:#404040">
<text x="930" y="250" font-size="20">
り
</text>
<text x="950" y="260" font-size="16">
ほ
</text>
</g>
</g>
<g>
<rect x="1020" y="20" width="100" height="100" style="stroke:#808080; fill:#f0f0f0"/>
<g style="stroke:#404040; fill:#404040">
<text x="1030" y="50" font-size="20">
…
</text>
<text x="1050" y="60" font-size="16">
小
</text>
</g>
</g>
<g>
<rect x="1020" y="120" width="100" height="100" style="stroke:#808080; fill:#f0f0f0"/>
<g style="stroke:#404040; fill:#404040">
<text x="1030" y="150" font-size="20">
ー
</text>
<text x="1050" y="160" font-size="16">
つ
</text>
</g>
</g>
<g>
<rect x="1020" y="220" width="100" height="100" style="stroke:#808080; fill:#f0f0f0"/>
<g style="stroke:#404040; fill:#404040">
<text x="1030" y="250" font-size="20">
・
</text>
<text x="1050" y="260" font-size="16">
？
</text>
</g>
</g>
<g style="stroke:#f00000" marker-end="url(#arrow)">
<line x1="470" y1="270" x2="270" y2="170" style="stroke-opacity:0.10128; stroke-width:10.128"/>
<line x1="270" y1="170" x2="370" y2="270" style="stroke-opacity:0.28742; stroke-width:28.742"/>
<line x1="370" y1="70" x2="270" y2="70" style="stroke-opacity:0.05; stroke-width:2.19"/>
<line x1="270" y1="70" x2="170" y2="170" style="stroke-opacity:0.26463; stroke-width:26.463"/>
<line x1="170" y1="170" x2="370" y2="170" style="stroke-opacity:0.17465; stroke-width:17.465"/>
<line x1="370" y1="170" x2="70" y2="170" style="stroke-opacity:0.05; stroke-width:2.982"/>
<line x1="770" y1="170" x2="870" y2="170" style="stroke-opacity:0.4504; stroke-width:45.04"/>
<line x1="70" y1="170" x2="270" y2="170" style="stroke-opacity:0.11357; stroke-width:11.357"/>
<line x1="270" y1="170" x2="270" y2="70" style="stroke-opacity:0.23972; stroke-width:23.972"/>
<line x1="170" y1="170" x2="70" y2="270" style="stroke-opacity:0.05; stroke-width:3.497"/>
<line x1="70" y1="270" x2="270" y2="70" style="stroke-opacity:0.05; stroke-width:0.5"/>
<line x1="870" y1="170" x2="770" y2="170" style="stroke-opacity:0.43168; stroke-width:43.168"/>
<line x1="270" y1="70" x2="270" y2="170" style="stroke-opacity:0.14678; stroke-width:14.678"/>
<line x1="870" y1="170" x2="770" y2="270" style="stroke-opacity:0.10839; stroke-width:10.839"/>
<line x1="270" y1="170" x2="370" y2="170" style="stroke-opacity:0.48697; stroke-width:48.697"/>
<line x1="270" y1="170" x2="170" y2="170" style="stroke-opacity:0.10655; stroke-width:10.655"/>
<line x1="170" y1="170" x2="470" y2="270" style="stroke-opacity:0.05; stroke-width:2.831"/>
<line x1="470" y1="270" x2="170" y2="170" style="stroke-opacity:0.08777; stroke-width:8.777"/>
<line x1="170" y1="270" x2="270" y2="170" style="stroke-opacity:0.10809; stroke-width:10.809"/>
<line x1="370" y1="170" x2="270" y2="170" style="stroke-opacity:0.40838; stroke-width:40.838"/>
<line x1="870" y1="70" x2="670" y2="270" style="stroke-opacity:0.07776; stroke-width:7.776"/>
<line x1="970" y1="270" x2="670" y2="170" style="stroke-opacity:0.05; stroke-width:1.226"/>
<line x1="670" y1="170" x2="770" y2="170" style="stroke-opacity:0.06391; stroke-width:6.391"/>
<line x1="770" y1="170" x2="870" y2="70" style="stroke-opacity:0.12163; stroke-width:12.163"/>
<line x1="870" y1="70" x2="970" y2="170" style="stroke-opacity:0.10277; stroke-width:10.277"/>
<line x1="870" y1="170" x2="770" y2="70" style="stroke-opacity:0.12524; stroke-width:12.524"/>
<line x1="370" y1="170" x2="370" y2="70" style="stroke-opacity:0.05; stroke-width:4.777"/>
<line x1="370" y1="70" x2="370" y2="270" style="stroke-opacity:0.05; stroke-width:1.886"/>
<line x1="770" y1="170" x2="1070" y2="170" style="stroke-opacity:0.07092; stroke-width:7.092"/>
<line x1="1070" y1="170" x2="870" y2="170" style="stroke-opacity:0.10138; stroke-width:10.138"/>
<line x1="870" y1="170" x2="1070" y2="270" style="stroke-opacity:0.05; stroke-width:1.811"/>
<line x1="1070" y1="270" x2="670" y2="270" style="stroke-opacity:0.05; stroke-width:0.5"/>
<line x1="670" y1="270" x2="1070" y2="170" style="stroke-opacity:0.05; stroke-width:0.662"/>
<line x1="870" y1="170" x2="1070" y2="170" style="stroke-opacity:0.07032; stroke-width:7.032"/>
<line x1="1070" y1="170" x2="970" y2="170" style="stroke-opacity:0.05; stroke-width:0.946"/>
<line x1="870" y1="270" x2="770" y2="270" style="stroke-opacity:0.05; stroke-width:4.072"/>
<line x1="770" y1="270" x2="770" y2="170" style="stroke-opacity:0.05; stroke-width:4.262"/>
<line x1="770" y1="170" x2="1070" y2="270" style="stroke-opacity:0.05; stroke-width:0.784"/>
<line x1="970" y1="70" x2="770" y2="170" style="stroke-opacity:0.06308; stroke-width:6.308"/>
<line x1="370" y1="270" x2="270" y2="170" style="stroke-opacity:0.22055; stroke-width:22.055"/>
<line x1="370" y1="70" x2="470" y2="170" style="stroke-opacity:0.087; stroke-width:8.7"/>
<line x1="270" y1="170" x2="470" y2="170" style="stroke-opacity:0.13191; stroke-width:13.191"/>
<line x1="470" y1="170" x2="370" y2="70" style="stroke-opacity:0.05; stroke-width:3.395"/>
<line x1="370" y1="70" x2="370" y2="170" style="stroke-opacity:0.05; stroke-width:4.331"/>
<line x1="370" y1="170" x2="270" y2="270" style="stroke-opacity:0.0522; stroke-width:5.22"/>
<line x1="770" y1="70" x2="870" y2="170" style="stroke-opacity:0.06636; stroke-width:6.636"/>
<line x1="270" y1="270" x2="370" y2="170" style="stroke-opacity:0.09134; stroke-width:9.134"/>
<line x1="970" y1="270" x2="1070" y2="170" style="stroke-opacity:0.05; stroke-width:3.989"/>
<line x1="1070" y1="170" x2="770" y2="70" style="stroke-opacity:0.05; stroke-width:1.964"/>
<line x1="370" y1="170" x2="170" y2="270" style="stroke-opacity:0.05; stroke-width:2.518"/>
<line x1="870" y1="270" x2="770" y2="170" style="stroke-opacity:0.18168; stroke-width:18.168"/>
<line x1="770" y1="170" x2="770" y2="270" style="stroke-opacity:0.12313; stroke-width:12.313"/>
<line x1="770" y1="270" x2="870" y2="70" style="stroke-opacity:0.05; stroke-width:2.083"/>
<line x1="670" y1="270" x2="970" y2="170" style="stroke-opacity:0.05; stroke-width:1.179"/>
<line x1="370" y1="170" x2="70" y2="270" style="stroke-opacity:0.05; stroke-width:1.806"/>
<line x1="70" y1="270" x2="270" y2="170" style="stroke-opacity:0.0801; stroke-width:8.01"/>
<line x1="270" y1="70" x2="370" y2="170" style="stroke-opacity:0.05131; stroke-width:5.131"/>
<line x1="370" y1="170" x2="170" y2="170" style="stroke-opacity:0.22919; stroke-width:22.919"/>
<line x1="170" y1="170" x2="70" y2="170" style="stroke-opacity:0.05666; stroke-width:5.666"/>
<line x1="270" y1="170" x2="170" y2="270" style="stroke-opacity:0.07644; stroke-width:7.644"/>
<line x1="770" y1="170" x2="870" y2="270" style="stroke-opacity:0.1469; stroke-width:14.69"/>
<line x1="870" y1="270" x2="970" y2="270" style="stroke-opacity:0.06043; stroke-width:6.043"/>
<line x1="970" y1="270" x2="770" y2="170" style="stroke-opacity:0.05; stroke-width:2.503"/>
<line x1="270" y1="70" x2="470" y2="170" style="stroke-opacity:0.0638; stroke-width:6.38"/>
<line x1="470" y1="170" x2="270" y2="270" style="stroke-opacity:0.05; stroke-width:3.078"/>
<line x1="270" y1="270" x2="170" y2="170" style="stroke-opacity:0.07957; stroke-width:7.957"/>
<line x1="170" y1="170" x2="270" y2="70" style="stroke-opacity:0.09004; stroke-width:9.004"/>
<line x1="870" y1="170" x2="970" y2="170" style="stroke-opacity:0.06727; stroke-width:6.727"/>
<line x1="970" y1="170" x2="1070" y2="170" style="stroke-opacity:0.05; stroke-width:2.161"/>
<line x1="270" y1="170" x2="270" y2="270" style="stroke-opacity:0.15826; stroke-width:15.826"/>
<line x1="270" y1="270" x2="270" y2="170" style="stroke-opacity:0.11505; stroke-width:11.505"/>
<line x1="770" y1="70" x2="870" y2="70" style="stroke-opacity:0.06039; stroke-width:6.039"/>
<line x1="870" y1="70" x2="770" y2="170" style="stroke-opacity:0.09189; stroke-width:9.189"/>
<line x1="770" y1="170" x2="770" y2="70" style="stroke-opacity:0.05445; stroke-width:5.445"/>
<line x1="770" y1="70" x2="1070" y2="270" style="stroke-opacity:0.05; stroke-width:0.695"/>
<line x1="1070" y1="270" x2="970" y2="170" style="stroke-opacity:0.05; stroke-width:0.504"/>
<line x1="970" y1="170" x2="970" y2="70" style="stroke-opacity:0.05; stroke-width:0.94"/>
<line x1="970" y1="70" x2="770" y2="70" style="stroke-opacity:0.05; stroke-width:0.5"/>
<line x1="770" y1="70" x2="970" y2="270" style="stroke-opacity:0.05; stroke-width:0.619"/>
<line x1="70" y1="170" x2="170" y2="170" style="stroke-opacity:0.08689; stroke-width:8.689"/>
<line x1="770" y1="170" x2="670" y2="170" style="stroke-opacity:0.07827; stroke-width:7.827"/>
<line x1="670" y1="170" x2="870" y2="70" style="stroke-opacity:0.05556; stroke-width:5.556"/>
<line x1="270" y1="270" x2="370" y2="70" style="stroke-opacity:0.05; stroke-width:3.472"/>
<line x1="170" y1="270" x2="370" y2="270" style="stroke-opacity:0.05; stroke-width:1.585"/>
<line x1="370" y1="270" x2="170" y2="270" style="stroke-opacity:0.05; stroke-width:2.942"/>
<line x1="470" y1="170" x2="270" y2="170" style="stroke-opacity:0.15534; stroke-width:15.534"/>
<line x1="870" y1="70" x2="870" y2="170" style="stroke-opacity:0.09503; stroke-width:9.503"/>
<line x1="870" y1="170" x2="670" y2="170" style="stroke-opacity:0.0687; stroke-width:6.87"/>
<line x1="170" y1="170" x2="270" y2="170" style="stroke-opacity:0.16256; stroke-width:16.256"/>
<line x1="670" y1="270" x2="770" y2="170" style="stroke-opacity:0.05; stroke-width:4.27"/>
<line x1="270" y1="70" x2="470" y2="270" style="stroke-opacity:0.05; stroke-width:0.811"/>
<line x1="770" y1="270" x2="670" y2="270" style="stroke-opacity:0.05; stroke-width:3.3"/>
<line x1="370" y1="170" x2="270" y2="70" style="stroke-opacity:0.12796; stroke-width:12.796"/>
<line x1="270" y1="70" x2="370" y2="70" style="stroke-opacity:0.05244; stroke-width:5.244"/>
<line x1="870" y1="270" x2="870" y2="170" style="stroke-opacity:0.11593; stroke-width:11.593"/>
<line x1="970" y1="270" x2="670" y2="270" style="stroke-opacity:0.05; stroke-width:2.429"/>
<line x1="270" y1="170" x2="70" y2="170" style="stroke-opacity:0.08013; stroke-width:8.013"/>
<line x1="470" y1="170" x2="370" y2="270" style="stroke-opacity:0.05691; stroke-width:5.691"/>
<line x1="470" y1="170" x2="270" y2="70" style="stroke-opacity:0.05; stroke-width:4.463"/>
<line x1="370" y1="270" x2="170" y2="170" style="stroke-opacity:0.05; stroke-width:3.519"/>
<line x1="370" y1="170" x2="170" y2="70" style="stroke-opacity:0.05; stroke-width:4.325"/>
<line x1="170" y1="70" x2="270" y2="170" style="stroke-opacity:0.10313; stroke-width:10.313"/>
<line x1="470" y1="170" x2="170" y2="170" style="stroke-opacity:0.05; stroke-width:2.274"/>
<line x1="270" y1="170" x2="470" y2="270" style="stroke-opacity:0.09635; stroke-width:9.635"/>
<line x1="870" y1="170" x2="970" y2="70" style="stroke-opacity:0.07795; stroke-width:7.795"/>
<line x1="470" y1="270" x2="270" y2="270" style="stroke-opacity:0.0524; stroke-width:5.24"/>
<line x1="270" y1="270" x2="170" y2="270" style="stroke-opacity:0.05; stroke-width:2.574"/>
<line x1="370" y1="270" x2="470" y2="170" style="stroke-opacity:0.06941; stroke-width:6.941"/>
<line x1="470" y1="170" x2="70" y2="270" style="stroke-opacity:0.05; stroke-width:4.484"/>
<line x1="970" y1="70" x2="870" y2="170" style="stroke-opacity:0.08519; stroke-width:8.519"/>
<line x1="270" y1="170" x2="370" y2="70" style="stroke-opacity:0.10602; stroke-width:10.602"/>
<line x1="770" y1="170" x2="970" y2="70" style="stroke-opacity:0.05; stroke-width:3.01"/>
<line x1="970" y1="170" x2="670" y2="170" style="stroke-opacity:0.05; stroke-width:1.206"/>
<line x1="370" y1="270" x2="270" y2="270" style="stroke-opacity:0.06862; stroke-width:6.862"/>
<line x1="270" y1="270" x2="470" y2="170" style="stroke-opacity:0.05261; stroke-width:5.261"/>
<line x1="970" y1="170" x2="870" y2="270" style="stroke-opacity:0.05; stroke-width:3.88"/>
<line x1="270" y1="70" x2="370" y2="270" style="stroke-opacity:0.05; stroke-width:3.496"/>
<line x1="870" y1="70" x2="1070" y2="70" style="stroke-opacity:0.05; stroke-width:0.5"/>
<line x1="1070" y1="70" x2="970" y2="170" style="stroke-opacity:0.05; stroke-width:0.926"/>
<line x1="770" y1="70" x2="770" y2="170" style="stroke-opacity:0.08248; stroke-width:8.248"/>
<line x1="870" y1="270" x2="1070" y2="170" style="stroke-opacity:0.05; stroke-width:2.718"/>
<line x1="970" y1="170" x2="870" y2="170" style="stroke-opacity:0.0684; stroke-width:6.84"/>
<line x1="870" y1="170" x2="670" y2="270" style="stroke-opacity:0.08538; stroke-width:8.538"/>
<line x1="170" y1="170" x2="470" y2="170" style="stroke-opacity:0.05; stroke-width:4.808"/>
<line x1="870" y1="170" x2="870" y2="270" style="stroke-opacity:0.14893; stroke-width:14.893"/>
<line x1="870" y1="70" x2="970" y2="70" style="stroke-opacity:0.05; stroke-width:4.131"/>
<line x1="970" y1="70" x2="870" y2="70" style="stroke-opacity:0.05; stroke-width:3.745"/>
<line x1="370" y1="70" x2="270" y2="170" style="stroke-opacity:0.08197; stroke-width:8.197"/>
<line x1="970" y1="170" x2="770" y2="270" style="stroke-opacity:0.05; stroke-width:0.993"/>
<line x1="770" y1="270" x2="1070" y2="170" style="stroke-opacity:0.05; stroke-width:1.907"/>
<line x1="970" y1="70" x2="770" y2="270" style="stroke-opacity:0.05; stroke-width:1.709"/>
<line x1="770" y1="270" x2="770" y2="70" style="stroke-opacity:0.05; stroke-width:0.717"/>
<line x1="470" y1="170" x2="370" y2="170" style="stroke-opacity:0.08406; stroke-width:8.406"/>
<line x1="870" y1="170" x2="870" y2="70" style="stroke-opacity:0.1263; stroke-width:12.63"/>
<line x1="670" y1="270" x2="870" y2="70" style="stroke-opacity:0.05; stroke-width:2.68"/>
<line x1="870" y1="70" x2="670" y2="170" style="stroke-opacity:0.05; stroke-width:0.625"/>
<line x1="170" y1="170" x2="370" y2="70" style="stroke-opacity:0.05; stroke-width:2.476"/>
<line x1="70" y1="270" x2="370" y2="170" style="stroke-opacity:0.05; stroke-width:3.472"/>
<line x1="270" y1="170" x2="70" y2="270" style="stroke-opacity:0.07684; stroke-width:7.684"/>
<line x1="70" y1="270" x2="170" y2="170" style="stroke-opacity:0.067; stroke-width:6.7"/>
<line x1="370" y1="170" x2="370" y2="270" style="stroke-opacity:0.10647; stroke-width:10.647"/>
<line x1="870" y1="270" x2="670" y2="170" style="stroke-opacity:0.05; stroke-width:3.151"/>
<line x1="170" y1="270" x2="370" y2="170" style="stroke-opacity:0.05; stroke-width:2.205"/>
<line x1="170" y1="270" x2="270" y2="70" style="stroke-opacity:0.05; stroke-width:0.89"/>
<line x1="370" y1="170" x2="470" y2="170" style="stroke-opacity:0.05115; stroke-width:5.115"/>
<line x1="270" y1="270" x2="270" y2="70" style="stroke-opacity:0.05; stroke-width:1.803"/>
<line x1="470" y1="170" x2="470" y2="270" style="stroke-opacity:0.05; stroke-width:2.77"/>
<line x1="1070" y1="170" x2="770" y2="170" style="stroke-opacity:0.0782; stroke-width:7.82"/>
<line x1="670" y1="170" x2="870" y2="170" style="stroke-opacity:0.08064; stroke-width:8.064"/>
<line x1="770" y1="170" x2="670" y2="270" style="stroke-opacity:0.07163; stroke-width:7.163"/>
<line x1="770" y1="270" x2="870" y2="170" style="stroke-opacity:0.09733; stroke-width:9.733"/>
<line x1="670" y1="270" x2="970" y2="70" style="stroke-opacity:0.05; stroke-width:3.896"/>
<line x1="970" y1="70" x2="870" y2="270" style="stroke-opacity:0.05; stroke-width:3.645"/>
<line x1="270" y1="270" x2="470" y2="270" style="stroke-opacity:0.05; stroke-width:2.985"/>
<line x1="470" y1="270" x2="70" y2="270" style="stroke-opacity:0.05; stroke-width:0.5"/>
<line x1="70" y1="70" x2="370" y2="270" style="stroke-opacity:0.05; stroke-width:0.5"/>
<line x1="370" y1="270" x2="370" y2="170" style="stroke-opacity:0.06316; stroke-width:6.316"/>
<line x1="370" y1="270" x2="70" y2="170" style="stroke-opacity:0.05; stroke-width:2.331"/>
<line x1="670" y1="270" x2="870" y2="170" style="stroke-opacity:0.10872; stroke-width:10.872"/>
<line x1="870" y1="170" x2="970" y2="270" style="stroke-opacity:0.06484; stroke-width:6.484"/>
<line x1="970" y1="270" x2="870" y2="170" style="stroke-opacity:0.07995; stroke-width:7.995"/>
<line x1="870" y1="270" x2="770" y2="70" style="stroke-opacity:0.05; stroke-width:1.877"/>
<line x1="770" y1="70" x2="970" y2="170" style="stroke-opacity:0.05; stroke-width:1.015"/>
<line x1="970" y1="170" x2="770" y2="170" style="stroke-opacity:0.05; stroke-width:4.004"/>
<line x1="270" y1="270" x2="70" y2="70" style="stroke-opacity:0.05; stroke-width:0.597"/>
<line x1="70" y1="70" x2="270" y2="70" style="stroke-opacity:0.05; stroke-width:0.5"/>
<line x1="970" y1="170" x2="870" y2="70" style="stroke-opacity:0.05; stroke-width:2.007"/>
<line x1="70" y1="70" x2="270" y2="170" style="stroke-opacity:0.05; stroke-width:3.798"/>
<line x1="170" y1="270" x2="170" y2="70" style="stroke-opacity:0.05; stroke-width:0.855"/>
<line x1="170" y1="70" x2="270" y2="70" style="stroke-opacity:0.05; stroke-width:1.988"/>
<line x1="770" y1="170" x2="970" y2="170" style="stroke-opacity:0.06779; stroke-width:6.779"/>
<line x1="670" y1="270" x2="870" y2="270" style="stroke-opacity:0.05; stroke-width:1.687"/>
<line x1="1070" y1="170" x2="870" y2="70" style="stroke-opacity:0.05; stroke-width:2.072"/>
<line x1="170" y1="170" x2="270" y2="270" style="stroke-opacity:0.05; stroke-width:4.453"/>
<line x1="870" y1="70" x2="770" y2="270" style="stroke-opacity:0.05; stroke-width:1.716"/>
<line x1="670" y1="170" x2="670" y2="270" style="stroke-opacity:0.05; stroke-width:1.555"/>
<line x1="770" y1="270" x2="870" y2="270" style="stroke-opacity:0.07828; stroke-width:7.828"/>
<line x1="270" y1="70" x2="70" y2="170" style="stroke-opacity:0.05; stroke-width:1.811"/>
<line x1="670" y1="270" x2="770" y2="70" style="stroke-opacity:0.05; stroke-width:1.527"/>
<line x1="170" y1="170" x2="170" y2="270" style="stroke-opacity:0.05; stroke-width:1.787"/>
<line x1="970" y1="70" x2="1070" y2="170" style="stroke-opacity:0.05; stroke-width:2.139"/>
<line x1="70" y1="170" x2="270" y2="70" style="stroke-opacity:0.05; stroke-width:0.909"/>
<line x1="370" y1="270" x2="170" y2="70" style="stroke-opacity:0.05; stroke-width:1.8"/>
<line x1="170" y1="70" x2="470" y2="170" style="stroke-opacity:0.05; stroke-width:0.969"/>
<line x1="670" y1="170" x2="970" y2="270" style="stroke-opacity:0.05; stroke-width:0.944"/>
<line x1="70" y1="70" x2="370" y2="170" style="stroke-opacity:0.05; stroke-width:0.5"/>
<line x1="870" y1="270" x2="970" y2="170" style="stroke-opacity:0.07563; stroke-width:7.563"/>
<line x1="970" y1="170" x2="670" y2="270" style="stroke-opacity:0.05; stroke-width:1.282"/>
<line x1="370" y1="270" x2="70" y2="270" style="stroke-opacity:0.05; stroke-width:1.432"/>
<line x1="770" y1="70" x2="870" y2="270" style="stroke-opacity:0.05; stroke-width:1.965"/>
<line x1="370" y1="70" x2="470" y2="270" style="stroke-opacity:0.05; stroke-width:0.924"/>
<line x1="1070" y1="170" x2="670" y2="270" style="stroke-opacity:0.05; stroke-width:1.721"/>
<line x1="370" y1="70" x2="170" y2="170" style="stroke-opacity:0.05; stroke-width:0.718"/>
<line x1="470" y1="170" x2="70" y2="170" style="stroke-opacity:0.05; stroke-width:3.056"/>
<line x1="870" y1="70" x2="1070" y2="170" style="stroke-opacity:0.05; stroke-width:3.263"/>
<line x1="970" y1="70" x2="670" y2="170" style="stroke-opacity:0.05; stroke-width:0.561"/>
<line x1="170" y1="70" x2="270" y2="270" style="stroke-opacity:0.05; stroke-width:1.051"/>
<line x1="170" y1="270" x2="270" y2="270" style="stroke-opacity:0.05; stroke-width:1.841"/>
<line x1="770" y1="270" x2="970" y2="270" style="stroke-opacity:0.05; stroke-width:2.194"/>
<line x1="970" y1="270" x2="870" y2="270" style="stroke-opacity:0.05; stroke-width:1.249"/>
<line x1="870" y1="270" x2="670" y2="270" style="stroke-opacity:0.05; stroke-width:2.067"/>
<line x1="270" y1="270" x2="370" y2="270" style="stroke-opacity:0.05; stroke-width:3.443"/>
<line x1="370" y1="270" x2="370" y2="70" style="stroke-opacity:0.05; stroke-width:1.262"/>
<line x1="1070" y1="170" x2="970" y2="270" style="stroke-opacity:0.05; stroke-width:1.061"/>
<line x1="870" y1="70" x2="1070" y2="270" style="stroke-opacity:0.05; stroke-width:0.92"/>
<line x1="1070" y1="270" x2="770" y2="170" style="stroke-opacity:0.05; stroke-width:1.144"/>
<line x1="70" y1="270" x2="270" y2="270" style="stroke-opacity:0.05; stroke-width:1.394"/>
<line x1="370" y1="270" x2="270" y2="70" style="stroke-opacity:0.05; stroke-width:3.408"/>
<line x1="670" y1="170" x2="770" y2="270" style="stroke-opacity:0.05; stroke-width:1.453"/>
<line x1="670" y1="270" x2="670" y2="170" style="stroke-opacity:0.05; stroke-width:1.276"/>
<line x1="370" y1="170" x2="470" y2="270" style="stroke-opacity:0.05; stroke-width:2.159"/>
<line x1="170" y1="270" x2="170" y2="170" style="stroke-opacity:0.05; stroke-width:1.082"/>
<line x1="170" y1="170" x2="170" y2="70" style="stroke-opacity:0.05; stroke-width:2.947"/>
<line x1="270" y1="170" x2="170" y2="70" style="stroke-opacity:0.05985; stroke-width:5.985"/>
<line x1="670" y1="170" x2="870" y2="270" style="stroke-opacity:0.05; stroke-width:1.183"/>
<line x1="870" y1="170" x2="1070" y2="70" style="stroke-opacity:0.05; stroke-width:0.5"/>
<line x1="70" y1="170" x2="370" y2="270" style="stroke-opacity:0.05; stroke-width:1.164"/>
<line x1="270" y1="270" x2="70" y2="270" style="stroke-opacity:0.05; stroke-width:0.674"/>
<line x1="70" y1="270" x2="170" y2="70" style="stroke-opacity:0.05; stroke-width:0.5"/>
<line x1="970" y1="270" x2="770" y2="70" style="stroke-opacity:0.05; stroke-width:1.384"/>
<line x1="270" y1="270" x2="70" y2="170" style="stroke-opacity:0.05; stroke-width:0.823"/>
<line x1="70" y1="170" x2="270" y2="270" style="stroke-opacity:0.05; stroke-width:0.5"/>
<line x1="170" y1="270" x2="70" y2="170" style="stroke-opacity:0.05; stroke-width:0.799"/>
<line x1="70" y1="270" x2="370" y2="270" style="stroke-opacity:0.05; stroke-width:2.325"/>
<line x1="470" y1="170" x2="170" y2="270" style="stroke-opacity:0.05; stroke-width:2.677"/>
<line x1="170" y1="270" x2="470" y2="170" style="stroke-opacity:0.05; stroke-width:2.486"/>
<line x1="270" y1="70" x2="170" y2="270" style="stroke-opacity:0.05; stroke-width:2.565"/>
<line x1="170" y1="270" x2="370" y2="70" style="stroke-opacity:0.05; stroke-width:0.663"/>
<line x1="770" y1="170" x2="970" y2="270" style="stroke-opacity:0.05; stroke-width:3.006"/>
<line x1="470" y1="270" x2="370" y2="170" style="stroke-opacity:0.05; stroke-width:1.908"/>
<line x1="770" y1="270" x2="670" y2="170" style="stroke-opacity:0.05; stroke-width:1.005"/>
<line x1="670" y1="170" x2="970" y2="170" style="stroke-opacity:0.05; stroke-width:0.633"/>
<line x1="1070" y1="270" x2="870" y2="170" style="stroke-opacity:0.05; stroke-width:0.982"/>
<line x1="670" y1="170" x2="1070" y2="170" style="stroke-opacity:0.05; stroke-width:1.602"/>
<line x1="970" y1="70" x2="970" y2="270" style="stroke-opacity:0.05; stroke-width:0.5"/>
<line x1="770" y1="70" x2="1070" y2="170" style="stroke-opacity:0.05; stroke-width:0.5"/>
<line x1="1070" y1="170" x2="770" y2="270" style="stroke-opacity:0.05; stroke-width:1.439"/>
<line x1="870" y1="270" x2="1070" y2="70" style="stroke-opacity:0.05; stroke-width:0.5"/>
<line x1="70" y1="170" x2="370" y2="170" style="stroke-opacity:0.05; stroke-width:2.205"/>
<line x1="770" y1="70" x2="770" y2="270" style="stroke-opacity:0.05; stroke-width:2.286"/>
<line x1="170" y1="170" x2="370" y2="270" style="stroke-opacity:0.06517; stroke-width:6.517"/>
<line x1="470" y1="270" x2="370" y2="70" style="stroke-opacity:0.05; stroke-width:0.604"/>
<line x1="470" y1="270" x2="370" y2="270" style="stroke-opacity:0.05; stroke-width:1.18"/>
<line x1="870" y1="70" x2="770" y2="70" style="stroke-opacity:0.05; stroke-width:1.537"/>
<line x1="270" y1="270" x2="170" y2="70" style="stroke-opacity:0.05; stroke-width:1.162"/>
<line x1="70" y1="270" x2="370" y2="70" style="stroke-opacity:0.05; stroke-width:0.731"/>
<line x1="370" y1="70" x2="270" y2="270" style="stroke-opacity:0.05; stroke-width:1.646"/>
<line x1="870" y1="270" x2="870" y2="70" style="stroke-opacity:0.05; stroke-width:2.387"/>
<line x1="870" y1="70" x2="870" y2="270" style="stroke-opacity:0.05; stroke-width:1.609"/>
<line x1="370" y1="270" x2="470" y2="270" style="stroke-opacity:0.05; stroke-width:1.925"/>
<line x1="270" y1="70" x2="270" y2="270" style="stroke-opacity:0.05; stroke-width:1.125"/>
<line x1="470" y1="270" x2="170" y2="270" style="stroke-opacity:0.05; stroke-width:0.5"/>
<line x1="970" y1="170" x2="970" y2="270" style="stroke-opacity:0.05; stroke-width:1.649"/>
<line x1="1070" y1="170" x2="1070" y2="270" style="stroke-opacity:0.05; stroke-width:0.762"/>
<line x1="370" y1="70" x2="70" y2="270" style="stroke-opacity:0.05; stroke-width:1.167"/>
<line x1="1070" y1="170" x2="870" y2="270" style="stroke-opacity:0.05; stroke-width:1.671"/>
<line x1="70" y1="170" x2="470" y2="170" style="stroke-opacity:0.05; stroke-width:0.5"/>
<line x1="170" y1="70" x2="370" y2="70" style="stroke-opacity:0.05; stroke-width:0.5"/>
<line x1="370" y1="70" x2="70" y2="70" style="stroke-opacity:0.05; stroke-width:0.5"/>
<line x1="270" y1="70" x2="170" y2="70" style="stroke-opacity:0.05; stroke-width:0.816"/>
<line x1="170" y1="70" x2="170" y2="270" style="stroke-opacity:0.05; stroke-width:0.5"/>
<line x1="770" y1="70" x2="670" y2="270" style="stroke-opacity:0.05; stroke-width:0.636"/>
<line x1="70" y1="270" x2="470" y2="270" style="stroke-opacity:0.05; stroke-width:0.655"/>
<line x1="470" y1="270" x2="470" y2="170" style="stroke-opacity:0.05; stroke-width:1.182"/>
<line x1="870" y1="270" x2="970" y2="70" style="stroke-opacity:0.05; stroke-width:1.398"/>
<line x1="770" y1="70" x2="970" y2="70" style="stroke-opacity:0.05; stroke-width:1.351"/>
<line x1="170" y1="270" x2="470" y2="270" style="stroke-opacity:0.05; stroke-width:0.5"/>
<line x1="770" y1="70" x2="670" y2="170" style="stroke-opacity:0.05; stroke-width:0.5"/>
<line x1="970" y1="270" x2="870" y2="70" style="stroke-opacity:0.05; stroke-width:0.5"/>
<line x1="970" y1="270" x2="970" y2="170" style="stroke-opacity:0.05; stroke-width:1.009"/>
<line x1="170" y1="70" x2="170" y2="170" style="stroke-opacity:0.05; stroke-width:0.5"/>
<line x1="670" y1="270" x2="1070" y2="70" style="stroke-opacity:0.05; stroke-width:0.5"/>
<line x1="470" y1="270" x2="70" y2="170" style="stroke-opacity:0.05; stroke-width:0.5"/>
<line x1="470" y1="170" x2="170" y2="70" style="stroke-opacity:0.05; stroke-width:1.803"/>
<line x1="370" y1="70" x2="70" y2="170" style="stroke-opacity:0.05; stroke-width:0.696"/>
<line x1="70" y1="170" x2="470" y2="270" style="stroke-opacity:0.05; stroke-width:0.5"/>
<line x1="270" y1="70" x2="70" y2="270" style="stroke-opacity:0.05; stroke-width:0.75"/>
<line x1="170" y1="70" x2="370" y2="270" style="stroke-opacity:0.05; stroke-width:1.019"/>
<line x1="670" y1="270" x2="970" y2="270" style="stroke-opacity:0.05; stroke-width:2.036"/>
<line x1="770" y1="270" x2="970" y2="70" style="stroke-opacity:0.05; stroke-width:0.787"/>
<line x1="470" y1="270" x2="270" y2="70" style="stroke-opacity:0.05; stroke-width:0.749"/>
<line x1="70" y1="270" x2="470" y2="170" style="stroke-opacity:0.05; stroke-width:0.943"/>
<line x1="270" y1="170" x2="70" y2="70" style="stroke-opacity:0.05; stroke-width:1.835"/>
<line x1="770" y1="70" x2="1070" y2="70" style="stroke-opacity:0.05; stroke-width:0.5"/>
<line x1="470" y1="270" x2="170" y2="70" style="stroke-opacity:0.05; stroke-width:0.5"/>
<line x1="170" y1="70" x2="70" y2="170" style="stroke-opacity:0.05; stroke-width:0.5"/>
<line x1="70" y1="170" x2="370" y2="70" style="stroke-opacity:0.05; stroke-width:0.5"/>
<line x1="70" y1="170" x2="170" y2="270" style="stroke-opacity:0.05; stroke-width:0.5"/>
<line x1="970" y1="70" x2="970" y2="170" style="stroke-opacity:0.05; stroke-width:0.5"/>
<line x1="970" y1="270" x2="970" y2="70" style="stroke-opacity:0.05; stroke-width:0.5"/>
<line x1="670" y1="270" x2="1070" y2="270" style="stroke-opacity:0.05; stroke-width:0.662"/>
<line x1="1070" y1="270" x2="970" y2="270" style="stroke-opacity:0.05; stroke-width:0.5"/>
<line x1="970" y1="270" x2="770" y2="270" style="stroke-opacity:0.05; stroke-width:0.893"/>
<line x1="670" y1="270" x2="770" y2="270" style="stroke-opacity:0.05; stroke-width:0.603"/>
<line x1="970" y1="270" x2="1070" y2="70" style="stroke-opacity:0.05; stroke-width:0.5"/>
<line x1="70" y1="270" x2="70" y2="170" style="stroke-opacity:0.05; stroke-width:0.5"/>
<line x1="70" y1="270" x2="170" y2="270" style="stroke-opacity:0.05; stroke-width:0.5"/>
<line x1="170" y1="70" x2="470" y2="270" style="stroke-opacity:0.05; stroke-width:0.5"/>
<line x1="970" y1="70" x2="670" y2="270" style="stroke-opacity:0.05; stroke-width:0.5"/>
<line x1="870" y1="70" x2="970" y2="270" style="stroke-opacity:0.05; stroke-width:0.682"/>
<line x1="670" y1="170" x2="770" y2="70" style="stroke-opacity:0.05; stroke-width:0.544"/>
<line x1="1070" y1="270" x2="870" y2="270" style="stroke-opacity:0.05; stroke-width:0.5"/>
<line x1="370" y1="70" x2="170" y2="70" style="stroke-opacity:0.05; stroke-width:0.674"/>
<line x1="170" y1="270" x2="70" y2="270" style="stroke-opacity:0.05; stroke-width:0.5"/>
<line x1="470" y1="170" x2="70" y2="70" style="stroke-opacity:0.05; stroke-width:0.5"/>
<line x1="970" y1="70" x2="1070" y2="270" style="stroke-opacity:0.05; stroke-width:0.5"/>
<line x1="670" y1="170" x2="970" y2="70" style="stroke-opacity:0.05; stroke-width:0.5"/>
<line x1="1070" y1="170" x2="670" y2="170" style="stroke-opacity:0.05; stroke-width:0.5"/>
<line x1="770" y1="270" x2="970" y2="170" style="stroke-opacity:0.05; stroke-width:0.657"/>
<line x1="170" y1="170" x2="70" y2="70" style="stroke-opacity:0.05; stroke-width:0.638"/>
<line x1="670" y1="170" x2="1070" y2="270" style="stroke-opacity:0.05; stroke-width:0.5"/>
<line x1="1070" y1="270" x2="770" y2="70" style="stroke-opacity:0.05; stroke-width:0.715"/>
<line x1="70" y1="170" x2="170" y2="70" style="stroke-opacity:0.05; stroke-width:0.5"/>
<line x1="1070" y1="270" x2="870" y2="70" style="stroke-opacity:0.05; stroke-width:0.5"/>
<line x1="970" y1="170" x2="1070" y2="70" style="stroke-opacity:0.05; stroke-width:0.5"/>
<line x1="1070" y1="70" x2="770" y2="170" style="stroke-opacity:0.05; stroke-width:0.5"/>
<line x1="370" y1="170" x2="70" y2="70" style="stroke-opacity:0.05; stroke-width:0.618"/>
<line x1="70" y1="270" x2="70" y2="70" style="stroke-opacity:0.05; stroke-width:0.5"/>
<line x1="170" y1="70" x2="370" y2="170" style="stroke-opacity:0.05; stroke-width:1.621"/>
<line x1="1070" y1="170" x2="970" y2="70" style="stroke-opacity:0.05; stroke-width:0.524"/>
<line x1="70" y1="70" x2="270" y2="270" style="stroke-opacity:0.05; stroke-width:0.565"/>
<line x1="1070" y1="270" x2="770" y2="270" style="stroke-opacity:0.05; stroke-width:0.5"/>
<line x1="370" y1="70" x2="170" y2="270" style="stroke-opacity:0.05; stroke-width:0.648"/>
<line x1="70" y1="170" x2="70" y2="270" style="stroke-opacity:0.05; stroke-width:0.5"/>
<line x1="1070" y1="170" x2="1070" y2="70" style="stroke-opacity:0.05; stroke-width:0.5"/>
<line x1="1070" y1="70" x2="1070" y2="170" style="stroke-opacity:0.05; stroke-width:0.5"/>
<line x1="70" y1="70" x2="470" y2="170" style="stroke-opacity:0.05; stroke-width:0.5"/>
<line x1="1070" y1="270" x2="970" y2="70" style="stroke-opacity:0.05; stroke-width:0.5"/>
<line x1="70" y1="70" x2="170" y2="70" style="stroke-opacity:0.05; stroke-width:0.5"/>
<line x1="1070" y1="270" x2="670" y2="170" style="stroke-opacity:0.05; stroke-width:0.5"/>
<line x1="70" y1="70" x2="370" y2="70" style="stroke-opacity:0.05; stroke-width:0.5"/>
<line x1="970" y1="170" x2="770" y2="70" style="stroke-opacity:0.05; stroke-width:0.683"/>
<line x1="170" y1="70" x2="70" y2="270" style="stroke-opacity:0.05; stroke-width:0.5"/>
<line x1="670" y1="170" x2="1070" y2="70" style="stroke-opacity:0.05; stroke-width:0.5"/>
<line x1="470" y1="270" x2="70" y2="70" style="stroke-opacity:0.05; stroke-width:0.5"/>
<line x1="1070" y1="70" x2="870" y2="170" style="stroke-opacity:0.05; stroke-width:0.5"/>
<line x1="1070" y1="70" x2="870" y2="270" style="stroke-opacity:0.05; stroke-width:0.5"/>
<line x1="1070" y1="70" x2="1070" y2="270" style="stroke-opacity:0.05; stroke-width:0.5"/>
<line x1="770" y1="170" x2="1070" y2="70" style="stroke-opacity:0.05; stroke-width:0.5"/>
<line x1="870" y1="270" x2="1070" y2="270" style="stroke-opacity:0.05; stroke-width:0.5"/>
<line x1="1070" y1="270" x2="1070" y2="170" style="stroke-opacity:0.05; stroke-width:0.5"/>
<line x1="1070" y1="70" x2="770" y2="270" style="stroke-opacity:0.05; stroke-width:0.5"/>
<line x1="370" y1="270" x2="70" y2="70" style="stroke-opacity:0.05; stroke-width:0.5"/>
<line x1="270" y1="70" x2="70" y2="70" style="stroke-opacity:0.05; stroke-width:0.5"/>
<line x1="970" y1="170" x2="1070" y2="270" style="stroke-opacity:0.05; stroke-width:0.5"/>
<line x1="70" y1="70" x2="70" y2="270" style="stroke-opacity:0.05; stroke-width:0.5"/>
<line x1="970" y1="270" x2="1070" y2="270" style="stroke-opacity:0.05; stroke-width:0.5"/>
<line x1="170" y1="270" x2="70" y2="70" style="stroke-opacity:0.05; stroke-width:0.5"/>
<line x1="70" y1="70" x2="170" y2="170" style="stroke-opacity:0.05; stroke-width:0.5"/>
<line x1="770" y1="270" x2="1070" y2="270" style="stroke-opacity:0.05; stroke-width:0.5"/>
<line x1="170" y1="70" x2="70" y2="70" style="stroke-opacity:0.05; stroke-width:0.5"/>
<line x1="70" y1="70" x2="470" y2="270" style="stroke-opacity:0.05; stroke-width:0.5"/>
<line x1="1070" y1="70" x2="970" y2="70" style="stroke-opacity:0.05; stroke-width:0.5"/>
<line x1="1070" y1="70" x2="970" y2="270" style="stroke-opacity:0.05; stroke-width:0.5"/>
<line x1="70" y1="70" x2="170" y2="270" style="stroke-opacity:0.05; stroke-width:0.5"/>
<line x1="70" y1="70" x2="70" y2="170" style="stroke-opacity:0.05; stroke-width:0.5"/>
<line x1="1070" y1="70" x2="670" y2="170" style="stroke-opacity:0.05; stroke-width:0.5"/>
<line x1="70" y1="170" x2="70" y2="70" style="stroke-opacity:0.05; stroke-width:0.5"/>
<line x1="770" y1="270" x2="1070" y2="70" style="stroke-opacity:0.05; stroke-width:0.5"/>
<line x1="970" y1="70" x2="1070" y2="70" style="stroke-opacity:0.05; stroke-width:0.5"/>
<line x1="1070" y1="70" x2="770" y2="70" style="stroke-opacity:0.05; stroke-width:0.5"/>
<line x1="1070" y1="70" x2="870" y2="70" style="stroke-opacity:0.05; stroke-width:0.5"/>
</g>

</svg>