<?xml version="1.0" standalone="no"?>
<!DOCTYPE svg PUBLIC "-//W3C//DTD SVG 1.1//EN" "http://www.w3.org/Graphics/SVG/1.1/DTD/svg11.dtd">

<svg width="1140" height="340" style="background:#f0f0f0" 
  xmlns="http://www.w3.org/2000/svg"
  xmlns:xlink="http://www.w3.org/1999/xlink">


<marker id="arrow" viewBox="-5 -10 10 20" orient="auto" markerUnits="strokeWidth" markerWidth="1.8" markerHeight="1.8">
<polygon points="0,-10 5,0 0,10" stroke="none" style="fill:#f00000; fill-opacity:0.6"/>
</marker>
<g>
<rect x="20" y="20" width="100" height="100" style="stroke:#808080; fill:#f0f0f0"/>
<g style="stroke:#404040; fill:#404040">
<text x="30" y="50" font-size="20">
ろ
</text>
<text x="30" y="70" font-size="16">
ほ
</text>
</g>
</g>
<g>
<rect x="20" y="120" width="100" height="100" style="stroke:#808080; fill:#f0f0f0"/>
<g style="stroke:#404040; fill:#404040">
<text x="30" y="150" font-size="20">
ー
</text>
<text x="30" y="170" font-size="16">
そ
</text>
</g>
</g>
<g>
<rect x="20" y="220" width="100" height="100" style="stroke:#808080; fill:#f0f0f0"/>
<g style="stroke:#404040; fill:#404040">
<text x="30" y="250" font-size="20">
ら
</text>
<text x="30" y="270" font-size="16">
せ
</text>
</g>
</g>
<g>
<rect x="120" y="20" width="100" height="100" style="stroke:#808080; fill:#f0f0f0"/>
<g style="stroke:#404040; fill:#404040">
<text x="130" y="50" font-size="20">
ひ
</text>
<text x="130" y="70" font-size="16">
ね
</text>
</g>
</g>
<g>
<rect x="120" y="120" width="100" height="100" style="stroke:#808080; fill:#f0f0f0"/>
<g style="stroke:#404040; fill:#404040">
<text x="130" y="150" font-size="20">
れ
</text>
<text x="130" y="170" font-size="16">
さ
</text>
</g>
</g>
<g>
<rect x="120" y="220" width="100" height="100" style="stroke:#808080; fill:#f0f0f0"/>
<g style="stroke:#404040; fill:#404040">
<text x="130" y="250" font-size="20">
ち
</text>
<text x="130" y="270" font-size="16">
め
</text>
</g>
</g>
<g>
<rect x="220" y="20" width="100" height="100" style="stroke:#808080; fill:#f0f0f0"/>
<g style="stroke:#404040; fill:#404040">
<text x="230" y="50" font-size="20">
と
</text>
<text x="230" y="70" font-size="16">
り
</text>
</g>
</g>
<g>
<rect x="220" y="120" width="100" height="100" style="stroke:#808080; fill:#f0f0f0"/>
<g style="stroke:#404040; fill:#404040">
<text x="230" y="150" font-size="20">
ん
</text>
<text x="230" y="170" font-size="16">
は
</text>
</g>
</g>
<g>
<rect x="220" y="220" width="100" height="100" style="stroke:#808080; fill:#f0f0f0"/>
<g style="stroke:#404040; fill:#404040">
<text x="230" y="250" font-size="20">
て
</text>
<text x="230" y="270" font-size="16">
も
</text>
</g>
</g>
<g>
<rect x="320" y="20" width="100" height="100" style="stroke:#808080; fill:#f0f0f0"/>
<g style="stroke:#404040; fill:#404040">
<text x="330" y="50" font-size="20">
こ
</text>
<text x="330" y="70" font-size="16">
み
</text>
</g>
</g>
<g>
<rect x="320" y="120" width="100" height="100" style="stroke:#808080; fill:#f0f0f0"/>
<g style="stroke:#404040; fill:#404040">
<text x="330" y="150" font-size="20">
か
</text>
<text x="330" y="170" font-size="16">
に
</text>
</g>
</g>
<g>
<rect x="320" y="220" width="100" height="100" style="stroke:#808080; fill:#f0f0f0"/>
<g style="stroke:#404040; fill:#404040">
<text x="330" y="250" font-size="20">
し
</text>
<text x="330" y="270" font-size="16">
の
</text>
</g>
</g>
<g>
<rect x="420" y="20" width="100" height="100" style="stroke:#808080; fill:#f0f0f0"/>
<g style="stroke:#404040; fill:#404040">
<text x="430" y="50" font-size="20">
け
</text>
<text x="430" y="70" font-size="16">
小
</text>
</g>
</g>
<g>
<rect x="420" y="120" width="100" height="100" style="stroke:#808080; fill:#f0f0f0"/>
<g style="stroke:#404040; fill:#404040">
<text x="430" y="150" font-size="20">
く
</text>
<text x="430" y="170" font-size="16">
ま
</text>
</g>
</g>
<g>
<rect x="420" y="220" width="100" height="100" style="stroke:#808080; fill:#f0f0f0"/>
<g style="stroke:#404040; fill:#404040">
<text x="430" y="250" font-size="20">
き
</text>
<text x="430" y="270" font-size="16">
っ
</text>
</g>
</g>
<g>
<rect x="620" y="20" width="100" height="100" style="stroke:#808080; fill:#f0f0f0"/>
<g style="stroke:#404040; fill:#404040">
<text x="630" y="50" font-size="20">
へ
</text>
<text x="630" y="70" font-size="16">
ぬ
</text>
</g>
</g>
<g>
<rect x="620" y="120" width="100" height="100" style="stroke:#808080; fill:#f0f0f0"/>
<g style="stroke:#404040; fill:#404040">
<text x="630" y="150" font-size="20">
あ
</text>
<text x="630" y="170" font-size="16">
ゆ
</text>
</g>
</g>
<g>
<rect x="620" y="220" width="100" height="100" style="stroke:#808080; fill:#f0f0f0"/>
<g style="stroke:#404040; fill:#404040">
<text x="630" y="250" font-size="20">
な
</text>
<text x="630" y="270" font-size="16">
え
</text>
</g>
</g>
<g>
<rect x="720" y="20" width="100" height="100" style="stroke:#808080; fill:#f0f0f0"/>
<g style="stroke:#404040; fill:#404040">
<text x="730" y="50" font-size="20">
す
</text>
<text x="730" y="70" font-size="16">
や
</text>
</g>
</g>
<g>
<rect x="720" y="120" width="100" height="100" style="stroke:#808080; fill:#f0f0f0"/>
<g style="stroke:#404040; fill:#404040">
<text x="730" y="150" font-size="20">
い
</text>
<text x="730" y="170" font-size="16">
よ
</text>
</g>
</g>
<g>
<rect x="720" y="220" width="100" height="100" style="stroke:#808080; fill:#f0f0f0"/>
<g style="stroke:#404040; fill:#404040">
<text x="730" y="250" font-size="20">
つ
</text>
<text x="730" y="270" font-size="16">
お
</text>
</g>
</g>
<g>
<rect x="820" y="20" width="100" height="100" style="stroke:#808080; fill:#f0f0f0"/>
<g style="stroke:#404040; fill:#404040">
<text x="830" y="50" font-size="20">
る
</text>
<text x="830" y="70" font-size="16">
ふ
</text>
</g>
</g>
<g>
<rect x="820" y="120" width="100" height="100" style="stroke:#808080; fill:#f0f0f0"/>
<g style="stroke:#404040; fill:#404040">
<text x="830" y="150" font-size="20">
う
</text>
<text x="830" y="170" font-size="16">
わ
</text>
</g>
</g>
<g>
<rect x="820" y="220" width="100" height="100" style="stroke:#808080; fill:#f0f0f0"/>
<g style="stroke:#404040; fill:#404040">
<text x="830" y="250" font-size="20">
た
</text>
<text x="830" y="270" font-size="16">
む
</text>
</g>
</g>
<g>
<rect x="920" y="20" width="100" height="100" style="stroke:#808080; fill:#f0f0f0"/>
<g style="stroke:#404040; fill:#404040">
<text x="930" y="50" font-size="20">
★
</text>
<text x="930" y="70" font-size="16">
★
</text>
</g>
</g>
<g>
<rect x="920" y="120" width="100" height="100" style="stroke:#808080; fill:#f0f0f0"/>
<g style="stroke:#404040; fill:#404040">
<text x="930" y="150" font-size="20">
★
</text>
<text x="930" y="170" font-size="16">
★
</text>
</g>
</g>
<g>
<rect x="920" y="220" width="100" height="100" style="stroke:#808080; fill:#f0f0f0"/>
<g style="stroke:#404040; fill:#404040">
<text x="930" y="250" font-size="20">
★
</text>
<text x="930" y="270" font-size="16">
★
</text>
</g>
</g>
<g>
<rect x="1020" y="20" width="100" height="100" style="stroke:#808080; fill:#f0f0f0"/>
<g style="stroke:#404040; fill:#404040">
<text x="1030" y="50" font-size="20">
★
</text>
<text x="1030" y="70" font-size="16">
★
</text>
</g>
</g>
<g>
<rect x="1020" y="120" width="100" height="100" style="stroke:#808080; fill:#f0f0f0"/>
<g style="stroke:#404040; fill:#404040">
<text x="1030" y="150" font-size="20">
★
</text>
<text x="1030" y="170" font-size="16">
★
</text>
</g>
</g>
<g>
<rect x="1020" y="220" width="100" height="100" style="stroke:#808080; fill:#f0f0f0"/>
<g style="stroke:#404040; fill:#404040">
<text x="1030" y="250" font-size="20">
★
</text>
<text x="1030" y="270" font-size="16">
★
</text>
</g>
</g>
<g style="stroke:#f00000" marker-end="url(#arrow)">
<line x1="370" y1="70" x2="270" y2="170" style="stroke-opacity:0.025; stroke-width:2.348"/>
<line x1="270" y1="170" x2="370" y2="170" style="stroke-opacity:0.11275; stroke-width:11.275"/>
<line x1="270" y1="170" x2="170" y2="270" style="stroke-opacity:0.025; stroke-width:2.404"/>
<line x1="770" y1="170" x2="870" y2="170" style="stroke-opacity:0.29485; stroke-width:29.485"/>
<line x1="370" y1="270" x2="70" y2="270" style="stroke-opacity:0.03205; stroke-width:3.205"/>
<line x1="70" y1="270" x2="270" y2="170" style="stroke-opacity:0.07143; stroke-width:7.143"/>
<line x1="270" y1="270" x2="270" y2="170" style="stroke-opacity:0.08628; stroke-width:8.628"/>
<line x1="270" y1="170" x2="470" y2="270" style="stroke-opacity:0.0293; stroke-width:2.93"/>
<line x1="470" y1="270" x2="370" y2="270" style="stroke-opacity:0.04333; stroke-width:4.333"/>
<line x1="370" y1="270" x2="470" y2="170" style="stroke-opacity:0.04901; stroke-width:4.901"/>
<line x1="470" y1="170" x2="370" y2="270" style="stroke-opacity:0.08144; stroke-width:8.144"/>
<line x1="870" y1="170" x2="670" y2="270" style="stroke-opacity:0.03275; stroke-width:3.275"/>
<line x1="270" y1="270" x2="370" y2="270" style="stroke-opacity:0.12157; stroke-width:12.157"/>
<line x1="370" y1="270" x2="170" y2="170" style="stroke-opacity:0.03947; stroke-width:3.947"/>
<line x1="170" y1="170" x2="470" y2="170" style="stroke-opacity:0.08437; stroke-width:8.437"/>
<line x1="470" y1="170" x2="270" y2="70" style="stroke-opacity:0.04115; stroke-width:4.115"/>
<line x1="270" y1="170" x2="270" y2="270" style="stroke-opacity:0.06701; stroke-width:6.701"/>
<line x1="270" y1="270" x2="70" y2="170" style="stroke-opacity:0.025; stroke-width:1.43"/>
<line x1="70" y1="170" x2="270" y2="170" style="stroke-opacity:0.03405; stroke-width:3.405"/>
<line x1="470" y1="170" x2="70" y2="170" style="stroke-opacity:0.025; stroke-width:0.776"/>
<line x1="470" y1="270" x2="270" y2="70" style="stroke-opacity:0.03987; stroke-width:3.987"/>
<line x1="270" y1="70" x2="70" y2="170" style="stroke-opacity:0.03949; stroke-width:3.949"/>
<line x1="70" y1="170" x2="470" y2="170" style="stroke-opacity:0.025; stroke-width:2.483"/>
<line x1="370" y1="170" x2="270" y2="170" style="stroke-opacity:0.11653; stroke-width:11.653"/>
<line x1="70" y1="270" x2="370" y2="270" style="stroke-opacity:0.025; stroke-width:2.207"/>
<line x1="370" y1="270" x2="270" y2="70" style="stroke-opacity:0.04373; stroke-width:4.373"/>
<line x1="870" y1="270" x2="770" y2="170" style="stroke-opacity:0.13196; stroke-width:13.196"/>
<line x1="470" y1="270" x2="170" y2="170" style="stroke-opacity:0.025; stroke-width:1.462"/>
<line x1="370" y1="170" x2="370" y2="70" style="stroke-opacity:0.03691; stroke-width:3.691"/>
<line x1="170" y1="70" x2="270" y2="170" style="stroke-opacity:0.06367; stroke-width:6.367"/>
<line x1="270" y1="170" x2="370" y2="270" style="stroke-opacity:0.17375; stroke-width:17.375"/>
<line x1="370" y1="270" x2="270" y2="270" style="stroke-opacity:0.13603; stroke-width:13.603"/>
<line x1="370" y1="270" x2="370" y2="170" style="stroke-opacity:0.14302; stroke-width:14.302"/>
<line x1="270" y1="70" x2="270" y2="270" style="stroke-opacity:0.03784; stroke-width:3.784"/>
<line x1="870" y1="170" x2="770" y2="170" style="stroke-opacity:0.08244; stroke-width:8.244"/>
<line x1="370" y1="270" x2="270" y2="170" style="stroke-opacity:0.1575; stroke-width:15.75"/>
<line x1="870" y1="70" x2="770" y2="270" style="stroke-opacity:0.025; stroke-width:2.221"/>
<line x1="370" y1="270" x2="170" y2="70" style="stroke-opacity:0.025; stroke-width:1.915"/>
<line x1="170" y1="70" x2="270" y2="70" style="stroke-opacity:0.02504; stroke-width:2.504"/>
<line x1="270" y1="70" x2="270" y2="170" style="stroke-opacity:0.0463; stroke-width:4.63"/>
<line x1="270" y1="170" x2="270" y2="70" style="stroke-opacity:0.06318; stroke-width:6.318"/>
<line x1="670" y1="270" x2="870" y2="70" style="stroke-opacity:0.03369; stroke-width:3.369"/>
<line x1="870" y1="70" x2="870" y2="170" style="stroke-opacity:0.025; stroke-width:1.142"/>
<line x1="870" y1="70" x2="770" y2="170" style="stroke-opacity:0.02948; stroke-width:2.948"/>
<line x1="870" y1="170" x2="770" y2="70" style="stroke-opacity:0.05042; stroke-width:5.042"/>
<line x1="770" y1="170" x2="770" y2="70" style="stroke-opacity:0.03346; stroke-width:3.346"/>
<line x1="270" y1="170" x2="170" y2="170" style="stroke-opacity:0.04985; stroke-width:4.985"/>
<line x1="670" y1="170" x2="870" y2="170" style="stroke-opacity:0.0937; stroke-width:9.37"/>
<line x1="670" y1="170" x2="870" y2="70" style="stroke-opacity:0.05677; stroke-width:5.677"/>
<line x1="270" y1="70" x2="370" y2="270" style="stroke-opacity:0.08471; stroke-width:8.471"/>
<line x1="370" y1="170" x2="270" y2="270" style="stroke-opacity:0.04666; stroke-width:4.666"/>
<line x1="470" y1="170" x2="170" y2="270" style="stroke-opacity:0.025; stroke-width:2.011"/>
<line x1="170" y1="270" x2="370" y2="270" style="stroke-opacity:0.02659; stroke-width:2.659"/>
<line x1="270" y1="270" x2="370" y2="70" style="stroke-opacity:0.025; stroke-width:1.963"/>
<line x1="370" y1="70" x2="470" y2="270" style="stroke-opacity:0.025; stroke-width:1.031"/>
<line x1="470" y1="270" x2="470" y2="170" style="stroke-opacity:0.03401; stroke-width:3.401"/>
<line x1="770" y1="170" x2="870" y2="70" style="stroke-opacity:0.08081; stroke-width:8.081"/>
<line x1="270" y1="70" x2="470" y2="170" style="stroke-opacity:0.05636; stroke-width:5.636"/>
<line x1="370" y1="270" x2="470" y2="70" style="stroke-opacity:0.03084; stroke-width:3.084"/>
<line x1="470" y1="70" x2="270" y2="170" style="stroke-opacity:0.07093; stroke-width:7.093"/>
<line x1="370" y1="170" x2="470" y2="170" style="stroke-opacity:0.05359; stroke-width:5.359"/>
<line x1="470" y1="170" x2="470" y2="270" style="stroke-opacity:0.025; stroke-width:2.311"/>
<line x1="470" y1="270" x2="370" y2="70" style="stroke-opacity:0.025; stroke-width:1.737"/>
<line x1="370" y1="70" x2="470" y2="170" style="stroke-opacity:0.02759; stroke-width:2.759"/>
<line x1="470" y1="170" x2="170" y2="170" style="stroke-opacity:0.03657; stroke-width:3.657"/>
<line x1="170" y1="170" x2="270" y2="270" style="stroke-opacity:0.03179; stroke-width:3.179"/>
<line x1="370" y1="70" x2="270" y2="70" style="stroke-opacity:0.05764; stroke-width:5.764"/>
<line x1="70" y1="170" x2="170" y2="170" style="stroke-opacity:0.02568; stroke-width:2.568"/>
<line x1="370" y1="170" x2="170" y2="170" style="stroke-opacity:0.05134; stroke-width:5.134"/>
<line x1="170" y1="170" x2="270" y2="70" style="stroke-opacity:0.025; stroke-width:1.121"/>
<line x1="270" y1="70" x2="170" y2="70" style="stroke-opacity:0.025; stroke-width:1.347"/>
<line x1="370" y1="170" x2="170" y2="270" style="stroke-opacity:0.025; stroke-width:1.57"/>
<line x1="470" y1="270" x2="370" y2="170" style="stroke-opacity:0.04691; stroke-width:4.691"/>
<line x1="370" y1="170" x2="70" y2="270" style="stroke-opacity:0.06023; stroke-width:6.023"/>
<line x1="270" y1="270" x2="470" y2="270" style="stroke-opacity:0.04803; stroke-width:4.803"/>
<line x1="770" y1="70" x2="870" y2="70" style="stroke-opacity:0.05008; stroke-width:5.008"/>
<line x1="670" y1="270" x2="770" y2="170" style="stroke-opacity:0.08672; stroke-width:8.672"/>
<line x1="370" y1="170" x2="370" y2="270" style="stroke-opacity:0.08798; stroke-width:8.798"/>
<line x1="270" y1="170" x2="470" y2="170" style="stroke-opacity:0.02656; stroke-width:2.656"/>
<line x1="670" y1="170" x2="670" y2="270" style="stroke-opacity:0.025; stroke-width:0.645"/>
<line x1="470" y1="170" x2="370" y2="170" style="stroke-opacity:0.04283; stroke-width:4.283"/>
<line x1="370" y1="170" x2="170" y2="70" style="stroke-opacity:0.025; stroke-width:1.37"/>
<line x1="170" y1="70" x2="70" y2="70" style="stroke-opacity:0.025; stroke-width:1.243"/>
<line x1="770" y1="270" x2="670" y2="270" style="stroke-opacity:0.025; stroke-width:1.747"/>
<line x1="170" y1="70" x2="470" y2="270" style="stroke-opacity:0.025; stroke-width:1.323"/>
<line x1="70" y1="270" x2="170" y2="170" style="stroke-opacity:0.02737; stroke-width:2.737"/>
<line x1="870" y1="170" x2="870" y2="270" style="stroke-opacity:0.03133; stroke-width:3.133"/>
<line x1="870" y1="70" x2="670" y2="170" style="stroke-opacity:0.025; stroke-width:0.963"/>
<line x1="70" y1="170" x2="370" y2="270" style="stroke-opacity:0.06418; stroke-width:6.418"/>
<line x1="270" y1="170" x2="70" y2="170" style="stroke-opacity:0.0402; stroke-width:4.02"/>
<line x1="770" y1="170" x2="870" y2="270" style="stroke-opacity:0.06731; stroke-width:6.731"/>
<line x1="270" y1="270" x2="370" y2="170" style="stroke-opacity:0.02984; stroke-width:2.984"/>
<line x1="770" y1="270" x2="770" y2="170" style="stroke-opacity:0.03571; stroke-width:3.571"/>
<line x1="170" y1="270" x2="270" y2="270" style="stroke-opacity:0.025; stroke-width:1.664"/>
<line x1="70" y1="270" x2="270" y2="270" style="stroke-opacity:0.025; stroke-width:1.381"/>
<line x1="370" y1="70" x2="70" y2="270" style="stroke-opacity:0.025; stroke-width:1.689"/>
<line x1="70" y1="270" x2="470" y2="170" style="stroke-opacity:0.025; stroke-width:1.353"/>
<line x1="870" y1="270" x2="770" y2="270" style="stroke-opacity:0.025; stroke-width:1.267"/>
<line x1="270" y1="70" x2="70" y2="70" style="stroke-opacity:0.025; stroke-width:1.209"/>
<line x1="70" y1="70" x2="470" y2="270" style="stroke-opacity:0.025; stroke-width:1.217"/>
<line x1="70" y1="70" x2="270" y2="70" style="stroke-opacity:0.025; stroke-width:0.994"/>
<line x1="270" y1="70" x2="70" y2="270" style="stroke-opacity:0.025; stroke-width:1.281"/>
<line x1="470" y1="170" x2="170" y2="70" style="stroke-opacity:0.03775; stroke-width:3.775"/>
<line x1="70" y1="270" x2="370" y2="70" style="stroke-opacity:0.025; stroke-width:0.493"/>
<line x1="370" y1="70" x2="70" y2="170" style="stroke-opacity:0.025; stroke-width:0.728"/>
<line x1="770" y1="170" x2="670" y2="70" style="stroke-opacity:0.025; stroke-width:0.879"/>
<line x1="670" y1="270" x2="770" y2="70" style="stroke-opacity:0.025; stroke-width:0.937"/>
<line x1="870" y1="270" x2="770" y2="70" style="stroke-opacity:0.025; stroke-width:2.134"/>
<line x1="370" y1="170" x2="270" y2="70" style="stroke-opacity:0.03283; stroke-width:3.283"/>
<line x1="670" y1="170" x2="770" y2="170" style="stroke-opacity:0.025; stroke-width:1.951"/>
<line x1="470" y1="170" x2="70" y2="270" style="stroke-opacity:0.03301; stroke-width:3.301"/>
<line x1="370" y1="170" x2="470" y2="270" style="stroke-opacity:0.04504; stroke-width:4.504"/>
<line x1="470" y1="270" x2="270" y2="270" style="stroke-opacity:0.06298; stroke-width:6.298"/>
<line x1="70" y1="70" x2="270" y2="170" style="stroke-opacity:0.04723; stroke-width:4.723"/>
<line x1="670" y1="70" x2="770" y2="270" style="stroke-opacity:0.025; stroke-width:0.668"/>
<line x1="770" y1="270" x2="770" y2="70" style="stroke-opacity:0.025; stroke-width:1.285"/>
<line x1="470" y1="70" x2="270" y2="270" style="stroke-opacity:0.025; stroke-width:1.74"/>
<line x1="770" y1="170" x2="670" y2="270" style="stroke-opacity:0.03793; stroke-width:3.793"/>
<line x1="670" y1="70" x2="670" y2="270" style="stroke-opacity:0.025; stroke-width:0.08"/>
<line x1="370" y1="70" x2="370" y2="270" style="stroke-opacity:0.04203; stroke-width:4.203"/>
<line x1="170" y1="270" x2="370" y2="170" style="stroke-opacity:0.03276; stroke-width:3.276"/>
<line x1="270" y1="270" x2="70" y2="70" style="stroke-opacity:0.025; stroke-width:0.813"/>
<line x1="170" y1="170" x2="470" y2="270" style="stroke-opacity:0.025; stroke-width:1.739"/>
<line x1="370" y1="270" x2="470" y2="270" style="stroke-opacity:0.0475; stroke-width:4.75"/>
<line x1="470" y1="170" x2="70" y2="70" style="stroke-opacity:0.025; stroke-width:0.861"/>
<line x1="270" y1="70" x2="370" y2="70" style="stroke-opacity:0.03491; stroke-width:3.491"/>
<line x1="370" y1="70" x2="70" y2="70" style="stroke-opacity:0.025; stroke-width:2.273"/>
<line x1="70" y1="70" x2="370" y2="270" style="stroke-opacity:0.025; stroke-width:1.544"/>
<line x1="470" y1="170" x2="270" y2="270" style="stroke-opacity:0.03602; stroke-width:3.602"/>
<line x1="370" y1="270" x2="170" y2="270" style="stroke-opacity:0.03791; stroke-width:3.791"/>
<line x1="170" y1="270" x2="170" y2="170" style="stroke-opacity:0.025; stroke-width:0.393"/>
<line x1="770" y1="70" x2="670" y2="270" style="stroke-opacity:0.025; stroke-width:0.871"/>
<line x1="270" y1="70" x2="470" y2="270" style="stroke-opacity:0.02769; stroke-width:2.769"/>
<line x1="770" y1="170" x2="670" y2="170" style="stroke-opacity:0.025; stroke-width:2.003"/>
<line x1="670" y1="170" x2="770" y2="270" style="stroke-opacity:0.025; stroke-width:1.445"/>
<line x1="770" y1="270" x2="870" y2="170" style="stroke-opacity:0.025; stroke-width:2.102"/>
<line x1="170" y1="170" x2="70" y2="270" style="stroke-opacity:0.025; stroke-width:1.821"/>
<line x1="370" y1="170" x2="470" y2="70" style="stroke-opacity:0.025; stroke-width:1.904"/>
<line x1="470" y1="70" x2="370" y2="170" style="stroke-opacity:0.025; stroke-width:0.671"/>
<line x1="670" y1="70" x2="670" y2="170" style="stroke-opacity:0.025; stroke-width:0.08"/>
<line x1="670" y1="70" x2="870" y2="270" style="stroke-opacity:0.025; stroke-width:0.155"/>
<line x1="670" y1="270" x2="870" y2="270" style="stroke-opacity:0.025; stroke-width:1.379"/>
<line x1="270" y1="170" x2="370" y2="70" style="stroke-opacity:0.05259; stroke-width:5.259"/>
<line x1="170" y1="270" x2="470" y2="170" style="stroke-opacity:0.025; stroke-width:1.203"/>
<line x1="70" y1="70" x2="470" y2="170" style="stroke-opacity:0.025; stroke-width:0.913"/>
<line x1="170" y1="70" x2="170" y2="270" style="stroke-opacity:0.025; stroke-width:0.107"/>
<line x1="470" y1="70" x2="70" y2="270" style="stroke-opacity:0.025; stroke-width:0.476"/>
<line x1="70" y1="270" x2="170" y2="70" style="stroke-opacity:0.025; stroke-width:0.261"/>
<line x1="770" y1="170" x2="770" y2="270" style="stroke-opacity:0.025; stroke-width:1.294"/>
<line x1="270" y1="270" x2="270" y2="70" style="stroke-opacity:0.0346; stroke-width:3.46"/>
<line x1="270" y1="270" x2="170" y2="270" style="stroke-opacity:0.025; stroke-width:1.173"/>
<line x1="270" y1="70" x2="370" y2="170" style="stroke-opacity:0.06393; stroke-width:6.393"/>
<line x1="870" y1="270" x2="670" y2="270" style="stroke-opacity:0.025; stroke-width:0.95"/>
<line x1="370" y1="170" x2="70" y2="170" style="stroke-opacity:0.025; stroke-width:2.26"/>
<line x1="470" y1="170" x2="270" y2="170" style="stroke-opacity:0.0301; stroke-width:3.01"/>
<line x1="170" y1="270" x2="270" y2="70" style="stroke-opacity:0.025; stroke-width:1.256"/>
<line x1="170" y1="170" x2="370" y2="170" style="stroke-opacity:0.02689; stroke-width:2.689"/>
<line x1="670" y1="270" x2="770" y2="270" style="stroke-opacity:0.025; stroke-width:0.833"/>
<line x1="170" y1="170" x2="270" y2="170" style="stroke-opacity:0.04916; stroke-width:4.916"/>
<line x1="370" y1="270" x2="370" y2="70" style="stroke-opacity:0.05052; stroke-width:5.052"/>
<line x1="770" y1="70" x2="770" y2="170" style="stroke-opacity:0.025; stroke-width:1.756"/>
<line x1="870" y1="270" x2="870" y2="70" style="stroke-opacity:0.025; stroke-width:1.054"/>
<line x1="370" y1="70" x2="370" y2="170" style="stroke-opacity:0.02943; stroke-width:2.943"/>
<line x1="870" y1="270" x2="670" y2="170" style="stroke-opacity:0.025; stroke-width:0.877"/>
<line x1="670" y1="170" x2="870" y2="270" style="stroke-opacity:0.025; stroke-width:0.882"/>
<line x1="70" y1="270" x2="370" y2="170" style="stroke-opacity:0.025; stroke-width:2.232"/>
<line x1="270" y1="70" x2="170" y2="270" style="stroke-opacity:0.025; stroke-width:1.095"/>
<line x1="670" y1="270" x2="670" y2="170" style="stroke-opacity:0.025; stroke-width:0.491"/>
<line x1="270" y1="270" x2="470" y2="170" style="stroke-opacity:0.025; stroke-width:1.751"/>
<line x1="470" y1="270" x2="70" y2="170" style="stroke-opacity:0.025; stroke-width:0.828"/>
<line x1="770" y1="70" x2="670" y2="170" style="stroke-opacity:0.025; stroke-width:0.345"/>
<line x1="70" y1="270" x2="470" y2="270" style="stroke-opacity:0.025; stroke-width:1.816"/>
<line x1="470" y1="270" x2="70" y2="270" style="stroke-opacity:0.025; stroke-width:1.169"/>
<line x1="470" y1="270" x2="470" y2="70" style="stroke-opacity:0.025; stroke-width:0.634"/>
<line x1="870" y1="70" x2="770" y2="70" style="stroke-opacity:0.025; stroke-width:1.237"/>
<line x1="670" y1="270" x2="670" y2="70" style="stroke-opacity:0.025; stroke-width:0.08"/>
<line x1="270" y1="270" x2="170" y2="170" style="stroke-opacity:0.025; stroke-width:0.73"/>
<line x1="170" y1="170" x2="170" y2="70" style="stroke-opacity:0.025; stroke-width:0.326"/>
<line x1="170" y1="70" x2="370" y2="270" style="stroke-opacity:0.025; stroke-width:0.821"/>
<line x1="70" y1="170" x2="170" y2="70" style="stroke-opacity:0.025; stroke-width:0.172"/>
<line x1="170" y1="70" x2="370" y2="70" style="stroke-opacity:0.025; stroke-width:0.834"/>
<line x1="170" y1="270" x2="270" y2="170" style="stroke-opacity:0.025; stroke-width:2.099"/>
<line x1="270" y1="170" x2="170" y2="70" style="stroke-opacity:0.025; stroke-width:1.366"/>
<line x1="370" y1="270" x2="70" y2="70" style="stroke-opacity:0.025; stroke-width:2.242"/>
<line x1="470" y1="270" x2="170" y2="270" style="stroke-opacity:0.025; stroke-width:0.696"/>
<line x1="370" y1="170" x2="70" y2="70" style="stroke-opacity:0.025; stroke-width:0.816"/>
<line x1="270" y1="170" x2="70" y2="270" style="stroke-opacity:0.02629; stroke-width:2.629"/>
<line x1="170" y1="170" x2="70" y2="170" style="stroke-opacity:0.025; stroke-width:1.091"/>
<line x1="870" y1="170" x2="870" y2="70" style="stroke-opacity:0.03013; stroke-width:3.013"/>
<line x1="70" y1="70" x2="70" y2="170" style="stroke-opacity:0.025; stroke-width:1.081"/>
<line x1="170" y1="170" x2="370" y2="270" style="stroke-opacity:0.025; stroke-width:1.169"/>
<line x1="870" y1="70" x2="870" y2="270" style="stroke-opacity:0.02863; stroke-width:2.863"/>
<line x1="870" y1="70" x2="670" y2="270" style="stroke-opacity:0.025; stroke-width:0.796"/>
<line x1="70" y1="170" x2="270" y2="70" style="stroke-opacity:0.03207; stroke-width:3.207"/>
<line x1="170" y1="270" x2="70" y2="70" style="stroke-opacity:0.025; stroke-width:0.499"/>
<line x1="270" y1="170" x2="470" y2="70" style="stroke-opacity:0.025; stroke-width:2.247"/>
<line x1="870" y1="170" x2="670" y2="170" style="stroke-opacity:0.025; stroke-width:1.67"/>
<line x1="770" y1="70" x2="670" y2="70" style="stroke-opacity:0.025; stroke-width:0.902"/>
<line x1="270" y1="270" x2="170" y2="70" style="stroke-opacity:0.025; stroke-width:0.719"/>
<line x1="170" y1="270" x2="370" y2="70" style="stroke-opacity:0.025; stroke-width:0.567"/>
<line x1="370" y1="70" x2="470" y2="70" style="stroke-opacity:0.025; stroke-width:0.08"/>
<line x1="370" y1="70" x2="170" y2="170" style="stroke-opacity:0.025; stroke-width:1.06"/>
<line x1="70" y1="70" x2="70" y2="270" style="stroke-opacity:0.025; stroke-width:0.327"/>
<line x1="70" y1="270" x2="70" y2="170" style="stroke-opacity:0.025; stroke-width:0.828"/>
<line x1="370" y1="70" x2="270" y2="270" style="stroke-opacity:0.025; stroke-width:0.747"/>
<line x1="670" y1="70" x2="870" y2="70" style="stroke-opacity:0.025; stroke-width:0.534"/>
<line x1="370" y1="270" x2="70" y2="170" style="stroke-opacity:0.025; stroke-width:2.227"/>
<line x1="70" y1="70" x2="170" y2="170" style="stroke-opacity:0.025; stroke-width:0.404"/>
<line x1="770" y1="70" x2="870" y2="170" style="stroke-opacity:0.025; stroke-width:2.407"/>
<line x1="470" y1="170" x2="370" y2="70" style="stroke-opacity:0.025; stroke-width:1.677"/>
<line x1="770" y1="270" x2="870" y2="270" style="stroke-opacity:0.025; stroke-width:1.265"/>
<line x1="70" y1="70" x2="370" y2="170" style="stroke-opacity:0.025; stroke-width:1.362"/>
<line x1="270" y1="270" x2="70" y2="270" style="stroke-opacity:0.025; stroke-width:0.694"/>
<line x1="470" y1="70" x2="170" y2="170" style="stroke-opacity:0.025; stroke-width:0.726"/>
<line x1="70" y1="170" x2="370" y2="70" style="stroke-opacity:0.025; stroke-width:0.589"/>
<line x1="470" y1="70" x2="470" y2="270" style="stroke-opacity:0.025; stroke-width:1.793"/>
<line x1="170" y1="270" x2="70" y2="170" style="stroke-opacity:0.025; stroke-width:0.725"/>
<line x1="770" y1="270" x2="870" y2="70" style="stroke-opacity:0.025; stroke-width:0.511"/>
<line x1="870" y1="270" x2="870" y2="170" style="stroke-opacity:0.025; stroke-width:0.482"/>
<line x1="370" y1="70" x2="170" y2="270" style="stroke-opacity:0.025; stroke-width:1.105"/>
<line x1="170" y1="70" x2="270" y2="270" style="stroke-opacity:0.025; stroke-width:0.441"/>
<line x1="870" y1="170" x2="770" y2="270" style="stroke-opacity:0.025; stroke-width:0.797"/>
<line x1="70" y1="270" x2="270" y2="70" style="stroke-opacity:0.025; stroke-width:0.447"/>
<line x1="370" y1="70" x2="170" y2="70" style="stroke-opacity:0.025; stroke-width:0.297"/>
<line x1="470" y1="70" x2="470" y2="170" style="stroke-opacity:0.025; stroke-width:0.08"/>
<line x1="270" y1="70" x2="170" y2="170" style="stroke-opacity:0.025; stroke-width:0.999"/>
<line x1="70" y1="70" x2="170" y2="70" style="stroke-opacity:0.025; stroke-width:0.145"/>
<line x1="70" y1="270" x2="470" y2="70" style="stroke-opacity:0.025; stroke-width:0.204"/>
<line x1="70" y1="70" x2="470" y2="70" style="stroke-opacity:0.025; stroke-width:0.403"/>
<line x1="470" y1="270" x2="170" y2="70" style="stroke-opacity:0.025; stroke-width:0.575"/>
<line x1="170" y1="70" x2="370" y2="170" style="stroke-opacity:0.025; stroke-width:1.048"/>
<line x1="270" y1="170" x2="70" y2="70" style="stroke-opacity:0.025; stroke-width:1.852"/>
<line x1="170" y1="70" x2="70" y2="170" style="stroke-opacity:0.025; stroke-width:1.116"/>
<line x1="770" y1="70" x2="770" y2="270" style="stroke-opacity:0.025; stroke-width:0.382"/>
<line x1="470" y1="270" x2="70" y2="70" style="stroke-opacity:0.025; stroke-width:1.167"/>
<line x1="470" y1="70" x2="370" y2="270" style="stroke-opacity:0.025; stroke-width:0.598"/>
<line x1="170" y1="270" x2="170" y2="70" style="stroke-opacity:0.025; stroke-width:0.319"/>
<line x1="170" y1="70" x2="70" y2="270" style="stroke-opacity:0.025; stroke-width:0.422"/>
<line x1="70" y1="70" x2="270" y2="270" style="stroke-opacity:0.025; stroke-width:0.466"/>
<line x1="70" y1="70" x2="370" y2="70" style="stroke-opacity:0.025; stroke-width:0.294"/>
<line x1="70" y1="170" x2="270" y2="270" style="stroke-opacity:0.025; stroke-width:0.991"/>
<line x1="70" y1="170" x2="370" y2="170" style="stroke-opacity:0.025; stroke-width:1.504"/>
<line x1="470" y1="70" x2="370" y2="70" style="stroke-opacity:0.025; stroke-width:0.08"/>
<line x1="170" y1="70" x2="470" y2="170" style="stroke-opacity:0.025; stroke-width:0.305"/>
<line x1="470" y1="270" x2="270" y2="170" style="stroke-opacity:0.02833; stroke-width:2.833"/>
<line x1="170" y1="270" x2="470" y2="270" style="stroke-opacity:0.025; stroke-width:0.568"/>
<line x1="870" y1="70" x2="670" y2="70" style="stroke-opacity:0.025; stroke-width:0.227"/>
<line x1="270" y1="70" x2="470" y2="70" style="stroke-opacity:0.025; stroke-width:0.452"/>
<line x1="70" y1="270" x2="170" y2="270" style="stroke-opacity:0.025; stroke-width:0.207"/>
<line x1="770" y1="70" x2="870" y2="270" style="stroke-opacity:0.025; stroke-width:1.688"/>
<line x1="470" y1="170" x2="470" y2="70" style="stroke-opacity:0.025; stroke-width:0.313"/>
<line x1="470" y1="70" x2="270" y2="70" style="stroke-opacity:0.025; stroke-width:0.24"/>
<line x1="170" y1="270" x2="70" y2="270" style="stroke-opacity:0.025; stroke-width:0.615"/>
<line x1="70" y1="270" x2="70" y2="70" style="stroke-opacity:0.025; stroke-width:0.08"/>
<line x1="70" y1="170" x2="70" y2="70" style="stroke-opacity:0.025; stroke-width:0.457"/>
<line x1="670" y1="70" x2="770" y2="70" style="stroke-opacity:0.025; stroke-width:0.28"/>
<line x1="70" y1="170" x2="170" y2="270" style="stroke-opacity:0.025; stroke-width:0.295"/>
<line x1="170" y1="70" x2="170" y2="170" style="stroke-opacity:0.025; stroke-width:0.176"/>
<line x1="770" y1="270" x2="670" y2="170" style="stroke-opacity:0.025; stroke-width:0.266"/>
<line x1="870" y1="170" x2="670" y2="70" style="stroke-opacity:0.025; stroke-width:0.677"/>
<line x1="670" y1="70" x2="770" y2="170" style="stroke-opacity:0.025; stroke-width:1.007"/>
<line x1="470" y1="70" x2="70" y2="170" style="stroke-opacity:0.025; stroke-width:0.479"/>
<line x1="170" y1="170" x2="470" y2="70" style="stroke-opacity:0.025; stroke-width:0.228"/>
<line x1="70" y1="170" x2="470" y2="270" style="stroke-opacity:0.025; stroke-width:0.204"/>
<line x1="870" y1="270" x2="670" y2="70" style="stroke-opacity:0.025; stroke-width:0.178"/>
<line x1="670" y1="270" x2="870" y2="170" style="stroke-opacity:0.025; stroke-width:0.756"/>
<line x1="470" y1="70" x2="170" y2="70" style="stroke-opacity:0.025; stroke-width:0.206"/>
<line x1="270" y1="270" x2="470" y2="70" style="stroke-opacity:0.025; stroke-width:0.329"/>
<line x1="170" y1="170" x2="70" y2="70" style="stroke-opacity:0.025; stroke-width:0.12"/>
<line x1="670" y1="170" x2="770" y2="70" style="stroke-opacity:0.025; stroke-width:0.582"/>
<line x1="70" y1="170" x2="70" y2="270" style="stroke-opacity:0.025; stroke-width:0.35"/>
<line x1="70" y1="170" x2="470" y2="70" style="stroke-opacity:0.025; stroke-width:0.181"/>
<line x1="770" y1="270" x2="670" y2="70" style="stroke-opacity:0.025; stroke-width:0.157"/>
<line x1="170" y1="170" x2="370" y2="70" style="stroke-opacity:0.025; stroke-width:0.247"/>
<line x1="170" y1="170" x2="170" y2="270" style="stroke-opacity:0.025; stroke-width:0.178"/>
<line x1="170" y1="70" x2="470" y2="70" style="stroke-opacity:0.025; stroke-width:0.106"/>
<line x1="670" y1="170" x2="670" y2="70" style="stroke-opacity:0.025; stroke-width:0.08"/>
<line x1="70" y1="70" x2="170" y2="270" style="stroke-opacity:0.025; stroke-width:0.08"/>
<line x1="170" y1="270" x2="470" y2="70" style="stroke-opacity:0.025; stroke-width:0.08"/>
<line x1="670" y1="70" x2="870" y2="170" style="stroke-opacity:0.025; stroke-width:0.08"/>
<line x1="470" y1="70" x2="70" y2="70" style="stroke-opacity:0.025; stroke-width:0.08"/>
<line x1="470" y1="70" x2="170" y2="270" style="stroke-opacity:0.025; stroke-width:0.08"/>
</g>

</svg>