<?xml version="1.0" standalone="no"?>
<!DOCTYPE svg PUBLIC "-//W3C//DTD SVG 1.1//EN" "http://www.w3.org/Graphics/SVG/1.1/DTD/svg11.dtd">

<svg width="1140" height="340" style="background:#f0f0f0" 
  xmlns="http://www.w3.org/2000/svg"
  xmlns:xlink="http://www.w3.org/1999/xlink">


<marker id="arrow" viewBox="-5 -10 10 20" orient="auto" markerUnits="strokeWidth" markerWidth="1.8" markerHeight="1.8">
<polygon points="0,-10 5,0 0,10" stroke="none" style="fill:#f00000; fill-opacity:0.6"/>
</marker>
<g>
<rect x="20" y="20" width="100" height="100" style="stroke:#808080; fill:#f0f0f0"/>
<g style="stroke:#404040; fill:#404040">
<text x="30" y="50" font-size="20">
★
</text>
<text x="30" y="70" font-size="16">
★
</text>
<text x="50" y="70" font-size="16">
★
</text>
</g>
</g>
<g>
<rect x="20" y="120" width="100" height="100" style="stroke:#808080; fill:#f0f0f0"/>
<g style="stroke:#404040; fill:#404040">
<text x="30" y="150" font-size="20">
★
</text>
<text x="30" y="170" font-size="16">
★
</text>
<text x="50" y="170" font-size="16">
★
</text>
</g>
</g>
<g>
<rect x="20" y="220" width="100" height="100" style="stroke:#808080; fill:#f0f0f0"/>
<g style="stroke:#404040; fill:#404040">
<text x="30" y="250" font-size="20">
★
</text>
<text x="30" y="270" font-size="16">
★
</text>
<text x="50" y="270" font-size="16">
★
</text>
</g>
</g>
<g>
<rect x="120" y="20" width="100" height="100" style="stroke:#808080; fill:#f0f0f0"/>
<g style="stroke:#404040; fill:#404040">
<text x="130" y="50" font-size="20">
★
</text>
<text x="130" y="70" font-size="16">
★
</text>
<text x="150" y="70" font-size="16">
★
</text>
</g>
</g>
<g>
<rect x="120" y="120" width="100" height="100" style="stroke:#808080; fill:#f0f0f0"/>
<g style="stroke:#404040; fill:#404040">
<text x="130" y="150" font-size="20">
★
</text>
<text x="130" y="170" font-size="16">
★
</text>
<text x="150" y="170" font-size="16">
★
</text>
</g>
</g>
<g>
<rect x="120" y="220" width="100" height="100" style="stroke:#808080; fill:#f0f0f0"/>
<g style="stroke:#404040; fill:#404040">
<text x="130" y="250" font-size="20">
★
</text>
<text x="130" y="270" font-size="16">
★
</text>
<text x="150" y="270" font-size="16">
★
</text>
</g>
</g>
<g>
<rect x="220" y="20" width="100" height="100" style="stroke:#808080; fill:#f0f0f0"/>
<g style="stroke:#404040; fill:#404040">
<text x="230" y="50" font-size="20">
て
</text>
<text x="230" y="70" font-size="16">
け
</text>
<text x="250" y="70" font-size="16">
ち
</text>
</g>
</g>
<g>
<rect x="220" y="120" width="100" height="100" style="stroke:#808080; fill:#f0f0f0"/>
<g style="stroke:#404040; fill:#404040">
<text x="230" y="150" font-size="20">
ん
</text>
<text x="230" y="170" font-size="16">
り
</text>
<text x="250" y="170" font-size="16">
ま
</text>
</g>
</g>
<g>
<rect x="220" y="220" width="100" height="100" style="stroke:#808080; fill:#f0f0f0"/>
<g style="stroke:#404040; fill:#404040">
<text x="230" y="250" font-size="20">
の
</text>
<text x="230" y="270" font-size="16">
に
</text>
<text x="250" y="270" font-size="16">
わ
</text>
</g>
</g>
<g>
<rect x="320" y="20" width="100" height="100" style="stroke:#808080; fill:#f0f0f0"/>
<g style="stroke:#404040; fill:#404040">
<text x="330" y="50" font-size="20">
こ
</text>
<text x="330" y="70" font-size="16">
ひ
</text>
<text x="350" y="70" font-size="16">
ぬ
</text>
</g>
</g>
<g>
<rect x="320" y="120" width="100" height="100" style="stroke:#808080; fill:#f0f0f0"/>
<g style="stroke:#404040; fill:#404040">
<text x="330" y="150" font-size="20">
し
</text>
<text x="330" y="170" font-size="16">
は
</text>
<text x="350" y="170" font-size="16">
を
</text>
</g>
</g>
<g>
<rect x="320" y="220" width="100" height="100" style="stroke:#808080; fill:#f0f0f0"/>
<g style="stroke:#404040; fill:#404040">
<text x="330" y="250" font-size="20">
か
</text>
<text x="330" y="270" font-size="16">
き
</text>
<text x="350" y="270" font-size="16">
ほ
</text>
</g>
</g>
<g>
<rect x="420" y="20" width="100" height="100" style="stroke:#808080; fill:#f0f0f0"/>
<g style="stroke:#404040; fill:#404040">
<text x="430" y="50" font-size="20">
小
</text>
<text x="430" y="70" font-size="16">
★
</text>
<text x="450" y="70" font-size="16">
★
</text>
</g>
</g>
<g>
<rect x="420" y="120" width="100" height="100" style="stroke:#808080; fill:#f0f0f0"/>
<g style="stroke:#404040; fill:#404040">
<text x="430" y="150" font-size="20">
と
</text>
<text x="430" y="170" font-size="16">
ー
</text>
<text x="450" y="170" font-size="16">
め
</text>
</g>
</g>
<g>
<rect x="420" y="220" width="100" height="100" style="stroke:#808080; fill:#f0f0f0"/>
<g style="stroke:#404040; fill:#404040">
<text x="430" y="250" font-size="20">
も
</text>
<text x="430" y="270" font-size="16">
ふ
</text>
<text x="450" y="270" font-size="16">
み
</text>
</g>
</g>
<g>
<rect x="620" y="20" width="100" height="100" style="stroke:#808080; fill:#f0f0f0"/>
<g style="stroke:#404040; fill:#404040">
<text x="630" y="50" font-size="20">
★
</text>
<text x="630" y="70" font-size="16">
★
</text>
<text x="650" y="70" font-size="16">
★
</text>
</g>
</g>
<g>
<rect x="620" y="120" width="100" height="100" style="stroke:#808080; fill:#f0f0f0"/>
<g style="stroke:#404040; fill:#404040">
<text x="630" y="150" font-size="20">
っ
</text>
<text x="630" y="170" font-size="16">
ゆ
</text>
<text x="650" y="170" font-size="16">
あ
</text>
</g>
</g>
<g>
<rect x="620" y="220" width="100" height="100" style="stroke:#808080; fill:#f0f0f0"/>
<g style="stroke:#404040; fill:#404040">
<text x="630" y="250" font-size="20">
な
</text>
<text x="630" y="270" font-size="16">
む
</text>
<text x="650" y="270" font-size="16">
や
</text>
</g>
</g>
<g>
<rect x="720" y="20" width="100" height="100" style="stroke:#808080; fill:#f0f0f0"/>
<g style="stroke:#404040; fill:#404040">
<text x="730" y="50" font-size="20">
す
</text>
<text x="730" y="70" font-size="16">
せ
</text>
<text x="750" y="70" font-size="16">
え
</text>
</g>
</g>
<g>
<rect x="720" y="120" width="100" height="100" style="stroke:#808080; fill:#f0f0f0"/>
<g style="stroke:#404040; fill:#404040">
<text x="730" y="150" font-size="20">
い
</text>
<text x="730" y="170" font-size="16">
く
</text>
<text x="750" y="170" font-size="16">
そ
</text>
</g>
</g>
<g>
<rect x="720" y="220" width="100" height="100" style="stroke:#808080; fill:#f0f0f0"/>
<g style="stroke:#404040; fill:#404040">
<text x="730" y="250" font-size="20">
れ
</text>
<text x="730" y="270" font-size="16">
よ
</text>
<text x="750" y="270" font-size="16">
お
</text>
</g>
</g>
<g>
<rect x="820" y="20" width="100" height="100" style="stroke:#808080; fill:#f0f0f0"/>
<g style="stroke:#404040; fill:#404040">
<text x="830" y="50" font-size="20">
る
</text>
<text x="830" y="70" font-size="16">
さ
</text>
<text x="850" y="70" font-size="16">
へ
</text>
</g>
</g>
<g>
<rect x="820" y="120" width="100" height="100" style="stroke:#808080; fill:#f0f0f0"/>
<g style="stroke:#404040; fill:#404040">
<text x="830" y="150" font-size="20">
う
</text>
<text x="830" y="170" font-size="16">
つ
</text>
<text x="850" y="170" font-size="16">
ろ
</text>
</g>
</g>
<g>
<rect x="820" y="220" width="100" height="100" style="stroke:#808080; fill:#f0f0f0"/>
<g style="stroke:#404040; fill:#404040">
<text x="830" y="250" font-size="20">
た
</text>
<text x="830" y="270" font-size="16">
ら
</text>
<text x="850" y="270" font-size="16">
ね
</text>
</g>
</g>
<g>
<rect x="920" y="20" width="100" height="100" style="stroke:#808080; fill:#f0f0f0"/>
<g style="stroke:#404040; fill:#404040">
<text x="930" y="50" font-size="20">
★
</text>
<text x="930" y="70" font-size="16">
★
</text>
<text x="950" y="70" font-size="16">
★
</text>
</g>
</g>
<g>
<rect x="920" y="120" width="100" height="100" style="stroke:#808080; fill:#f0f0f0"/>
<g style="stroke:#404040; fill:#404040">
<text x="930" y="150" font-size="20">
★
</text>
<text x="930" y="170" font-size="16">
★
</text>
<text x="950" y="170" font-size="16">
★
</text>
</g>
</g>
<g>
<rect x="920" y="220" width="100" height="100" style="stroke:#808080; fill:#f0f0f0"/>
<g style="stroke:#404040; fill:#404040">
<text x="930" y="250" font-size="20">
★
</text>
<text x="930" y="270" font-size="16">
★
</text>
<text x="950" y="270" font-size="16">
★
</text>
</g>
</g>
<g>
<rect x="1020" y="20" width="100" height="100" style="stroke:#808080; fill:#f0f0f0"/>
<g style="stroke:#404040; fill:#404040">
<text x="1030" y="50" font-size="20">
★
</text>
<text x="1030" y="70" font-size="16">
★
</text>
<text x="1050" y="70" font-size="16">
★
</text>
</g>
</g>
<g>
<rect x="1020" y="120" width="100" height="100" style="stroke:#808080; fill:#f0f0f0"/>
<g style="stroke:#404040; fill:#404040">
<text x="1030" y="150" font-size="20">
★
</text>
<text x="1030" y="170" font-size="16">
★
</text>
<text x="1050" y="170" font-size="16">
★
</text>
</g>
</g>
<g>
<rect x="1020" y="220" width="100" height="100" style="stroke:#808080; fill:#f0f0f0"/>
<g style="stroke:#404040; fill:#404040">
<text x="1030" y="250" font-size="20">
★
</text>
<text x="1030" y="270" font-size="16">
★
</text>
<text x="1050" y="270" font-size="16">
★
</text>
</g>
</g>
<g style="stroke:#f00000" marker-end="url(#arrow)">
<line x1="370" y1="70" x2="270" y2="170" style="stroke-opacity:0.06376; stroke-width:6.376"/>
<line x1="270" y1="170" x2="370" y2="270" style="stroke-opacity:0.14686; stroke-width:14.686"/>
<line x1="370" y1="170" x2="270" y2="70" style="stroke-opacity:0.13944; stroke-width:13.944"/>
<line x1="770" y1="270" x2="870" y2="170" style="stroke-opacity:0.31564; stroke-width:31.564"/>
<line x1="370" y1="170" x2="270" y2="170" style="stroke-opacity:0.21632; stroke-width:21.632"/>
<line x1="870" y1="170" x2="770" y2="170" style="stroke-opacity:0.18627; stroke-width:18.627"/>
<line x1="770" y1="170" x2="670" y2="270" style="stroke-opacity:0.08179; stroke-width:8.179"/>
<line x1="670" y1="270" x2="870" y2="170" style="stroke-opacity:0.07509; stroke-width:7.509"/>
<line x1="270" y1="70" x2="270" y2="170" style="stroke-opacity:0.13509; stroke-width:13.509"/>
<line x1="370" y1="270" x2="370" y2="170" style="stroke-opacity:0.0755; stroke-width:7.55"/>
<line x1="770" y1="270" x2="770" y2="170" style="stroke-opacity:0.07603; stroke-width:7.603"/>
<line x1="870" y1="170" x2="670" y2="270" style="stroke-opacity:0.09028; stroke-width:9.028"/>
<line x1="470" y1="270" x2="270" y2="270" style="stroke-opacity:0.09835; stroke-width:9.835"/>
<line x1="270" y1="270" x2="370" y2="170" style="stroke-opacity:0.16218; stroke-width:16.218"/>
<line x1="870" y1="70" x2="770" y2="170" style="stroke-opacity:0.14726; stroke-width:14.726"/>
<line x1="470" y1="170" x2="270" y2="170" style="stroke-opacity:0.09618; stroke-width:9.618"/>
<line x1="670" y1="170" x2="870" y2="170" style="stroke-opacity:0.14344; stroke-width:14.344"/>
<line x1="870" y1="170" x2="870" y2="70" style="stroke-opacity:0.08592; stroke-width:8.592"/>
<line x1="270" y1="170" x2="370" y2="170" style="stroke-opacity:0.19981; stroke-width:19.981"/>
<line x1="270" y1="70" x2="470" y2="170" style="stroke-opacity:0.02954; stroke-width:2.954"/>
<line x1="770" y1="270" x2="670" y2="170" style="stroke-opacity:0.025; stroke-width:1.698"/>
<line x1="370" y1="270" x2="270" y2="170" style="stroke-opacity:0.16883; stroke-width:16.883"/>
<line x1="370" y1="170" x2="470" y2="170" style="stroke-opacity:0.06912; stroke-width:6.912"/>
<line x1="770" y1="70" x2="870" y2="270" style="stroke-opacity:0.04789; stroke-width:4.789"/>
<line x1="270" y1="170" x2="470" y2="170" style="stroke-opacity:0.10815; stroke-width:10.815"/>
<line x1="270" y1="170" x2="470" y2="270" style="stroke-opacity:0.06119; stroke-width:6.119"/>
<line x1="270" y1="270" x2="270" y2="170" style="stroke-opacity:0.09826; stroke-width:9.826"/>
<line x1="870" y1="270" x2="770" y2="170" style="stroke-opacity:0.17654; stroke-width:17.654"/>
<line x1="770" y1="170" x2="670" y2="170" style="stroke-opacity:0.06244; stroke-width:6.244"/>
<line x1="670" y1="170" x2="870" y2="70" style="stroke-opacity:0.06456; stroke-width:6.456"/>
<line x1="370" y1="170" x2="270" y2="270" style="stroke-opacity:0.07363; stroke-width:7.363"/>
<line x1="770" y1="170" x2="870" y2="170" style="stroke-opacity:0.26435; stroke-width:26.435"/>
<line x1="370" y1="270" x2="470" y2="270" style="stroke-opacity:0.03281; stroke-width:3.281"/>
<line x1="270" y1="70" x2="370" y2="170" style="stroke-opacity:0.09564; stroke-width:9.564"/>
<line x1="870" y1="170" x2="770" y2="70" style="stroke-opacity:0.10702; stroke-width:10.702"/>
<line x1="770" y1="70" x2="770" y2="170" style="stroke-opacity:0.09045; stroke-width:9.045"/>
<line x1="770" y1="170" x2="870" y2="270" style="stroke-opacity:0.10556; stroke-width:10.556"/>
<line x1="270" y1="170" x2="270" y2="270" style="stroke-opacity:0.16309; stroke-width:16.309"/>
<line x1="270" y1="270" x2="470" y2="270" style="stroke-opacity:0.07147; stroke-width:7.147"/>
<line x1="270" y1="270" x2="370" y2="270" style="stroke-opacity:0.14892; stroke-width:14.892"/>
<line x1="870" y1="170" x2="870" y2="270" style="stroke-opacity:0.16887; stroke-width:16.887"/>
<line x1="270" y1="170" x2="270" y2="70" style="stroke-opacity:0.12977; stroke-width:12.977"/>
<line x1="870" y1="170" x2="770" y2="270" style="stroke-opacity:0.11597; stroke-width:11.597"/>
<line x1="270" y1="270" x2="370" y2="70" style="stroke-opacity:0.05276; stroke-width:5.276"/>
<line x1="370" y1="70" x2="470" y2="170" style="stroke-opacity:0.08468; stroke-width:8.468"/>
<line x1="770" y1="70" x2="870" y2="70" style="stroke-opacity:0.08644; stroke-width:8.644"/>
<line x1="870" y1="70" x2="870" y2="170" style="stroke-opacity:0.07754; stroke-width:7.754"/>
<line x1="770" y1="170" x2="770" y2="70" style="stroke-opacity:0.07091; stroke-width:7.091"/>
<line x1="870" y1="270" x2="770" y2="270" style="stroke-opacity:0.0517; stroke-width:5.17"/>
<line x1="770" y1="270" x2="770" y2="70" style="stroke-opacity:0.025; stroke-width:1.372"/>
<line x1="870" y1="170" x2="670" y2="170" style="stroke-opacity:0.1114; stroke-width:11.14"/>
<line x1="470" y1="170" x2="370" y2="170" style="stroke-opacity:0.09331; stroke-width:9.331"/>
<line x1="270" y1="270" x2="270" y2="70" style="stroke-opacity:0.07027; stroke-width:7.027"/>
<line x1="770" y1="170" x2="870" y2="70" style="stroke-opacity:0.12533; stroke-width:12.533"/>
<line x1="870" y1="70" x2="670" y2="270" style="stroke-opacity:0.025; stroke-width:1.93"/>
<line x1="270" y1="70" x2="270" y2="270" style="stroke-opacity:0.0565; stroke-width:5.65"/>
<line x1="770" y1="170" x2="770" y2="270" style="stroke-opacity:0.08425; stroke-width:8.425"/>
<line x1="270" y1="70" x2="370" y2="70" style="stroke-opacity:0.025; stroke-width:1.56"/>
<line x1="670" y1="170" x2="770" y2="170" style="stroke-opacity:0.05503; stroke-width:5.503"/>
<line x1="370" y1="270" x2="370" y2="70" style="stroke-opacity:0.03266; stroke-width:3.266"/>
<line x1="470" y1="170" x2="470" y2="270" style="stroke-opacity:0.02763; stroke-width:2.763"/>
<line x1="370" y1="170" x2="370" y2="270" style="stroke-opacity:0.1032; stroke-width:10.32"/>
<line x1="470" y1="170" x2="370" y2="70" style="stroke-opacity:0.03969; stroke-width:3.969"/>
<line x1="370" y1="70" x2="370" y2="270" style="stroke-opacity:0.02556; stroke-width:2.556"/>
<line x1="270" y1="70" x2="370" y2="270" style="stroke-opacity:0.08423; stroke-width:8.423"/>
<line x1="370" y1="270" x2="270" y2="270" style="stroke-opacity:0.09878; stroke-width:9.878"/>
<line x1="470" y1="170" x2="270" y2="270" style="stroke-opacity:0.06655; stroke-width:6.655"/>
<line x1="270" y1="270" x2="470" y2="170" style="stroke-opacity:0.04578; stroke-width:4.578"/>
<line x1="670" y1="170" x2="670" y2="270" style="stroke-opacity:0.025; stroke-width:1.044"/>
<line x1="870" y1="70" x2="770" y2="270" style="stroke-opacity:0.05531; stroke-width:5.531"/>
<line x1="770" y1="270" x2="870" y2="70" style="stroke-opacity:0.04748; stroke-width:4.748"/>
<line x1="470" y1="270" x2="370" y2="270" style="stroke-opacity:0.02783; stroke-width:2.783"/>
<line x1="670" y1="270" x2="770" y2="270" style="stroke-opacity:0.025; stroke-width:2.146"/>
<line x1="870" y1="70" x2="670" y2="170" style="stroke-opacity:0.025; stroke-width:1.667"/>
<line x1="370" y1="170" x2="470" y2="270" style="stroke-opacity:0.05248; stroke-width:5.248"/>
<line x1="270" y1="70" x2="470" y2="270" style="stroke-opacity:0.04189; stroke-width:4.189"/>
<line x1="470" y1="270" x2="370" y2="170" style="stroke-opacity:0.03126; stroke-width:3.126"/>
<line x1="770" y1="270" x2="670" y2="270" style="stroke-opacity:0.025; stroke-width:2.198"/>
<line x1="770" y1="70" x2="870" y2="170" style="stroke-opacity:0.10215; stroke-width:10.215"/>
<line x1="870" y1="270" x2="870" y2="170" style="stroke-opacity:0.1011; stroke-width:10.11"/>
<line x1="670" y1="270" x2="870" y2="270" style="stroke-opacity:0.02538; stroke-width:2.538"/>
<line x1="770" y1="270" x2="870" y2="270" style="stroke-opacity:0.04448; stroke-width:4.448"/>
<line x1="670" y1="270" x2="770" y2="170" style="stroke-opacity:0.12244; stroke-width:12.244"/>
<line x1="870" y1="270" x2="770" y2="70" style="stroke-opacity:0.03567; stroke-width:3.567"/>
<line x1="370" y1="270" x2="470" y2="170" style="stroke-opacity:0.04277; stroke-width:4.277"/>
<line x1="870" y1="270" x2="870" y2="70" style="stroke-opacity:0.03067; stroke-width:3.067"/>
<line x1="370" y1="70" x2="270" y2="270" style="stroke-opacity:0.03983; stroke-width:3.983"/>
<line x1="470" y1="170" x2="370" y2="270" style="stroke-opacity:0.05108; stroke-width:5.108"/>
<line x1="870" y1="70" x2="770" y2="70" style="stroke-opacity:0.0269; stroke-width:2.69"/>
<line x1="370" y1="270" x2="270" y2="70" style="stroke-opacity:0.05356; stroke-width:5.356"/>
<line x1="870" y1="70" x2="870" y2="270" style="stroke-opacity:0.02665; stroke-width:2.665"/>
<line x1="870" y1="270" x2="670" y2="270" style="stroke-opacity:0.025; stroke-width:2.26"/>
<line x1="670" y1="270" x2="870" y2="70" style="stroke-opacity:0.02848; stroke-width:2.848"/>
<line x1="670" y1="270" x2="770" y2="70" style="stroke-opacity:0.025; stroke-width:2.213"/>
<line x1="370" y1="170" x2="370" y2="70" style="stroke-opacity:0.0334; stroke-width:3.34"/>
<line x1="270" y1="170" x2="370" y2="70" style="stroke-opacity:0.05716; stroke-width:5.716"/>
<line x1="470" y1="270" x2="270" y2="70" style="stroke-opacity:0.02838; stroke-width:2.838"/>
<line x1="370" y1="70" x2="270" y2="70" style="stroke-opacity:0.025; stroke-width:1.103"/>
<line x1="470" y1="270" x2="470" y2="170" style="stroke-opacity:0.02722; stroke-width:2.722"/>
<line x1="670" y1="170" x2="870" y2="270" style="stroke-opacity:0.08574; stroke-width:8.574"/>
<line x1="670" y1="170" x2="770" y2="70" style="stroke-opacity:0.025; stroke-width:1.034"/>
<line x1="670" y1="170" x2="770" y2="270" style="stroke-opacity:0.025; stroke-width:1.281"/>
<line x1="870" y1="270" x2="670" y2="170" style="stroke-opacity:0.03615; stroke-width:3.615"/>
<line x1="470" y1="170" x2="270" y2="70" style="stroke-opacity:0.03263; stroke-width:3.263"/>
<line x1="470" y1="270" x2="270" y2="170" style="stroke-opacity:0.07106; stroke-width:7.106"/>
<line x1="670" y1="270" x2="670" y2="170" style="stroke-opacity:0.025; stroke-width:2.495"/>
<line x1="770" y1="70" x2="670" y2="170" style="stroke-opacity:0.025; stroke-width:1.114"/>
<line x1="370" y1="70" x2="370" y2="170" style="stroke-opacity:0.02501; stroke-width:2.501"/>
<line x1="370" y1="70" x2="470" y2="270" style="stroke-opacity:0.025; stroke-width:0.987"/>
<line x1="770" y1="70" x2="670" y2="270" style="stroke-opacity:0.025; stroke-width:1.211"/>
<line x1="470" y1="270" x2="370" y2="70" style="stroke-opacity:0.025; stroke-width:0.797"/>
<line x1="770" y1="70" x2="770" y2="270" style="stroke-opacity:0.025; stroke-width:1.482"/>
<line x1="470" y1="170" x2="470" y2="70" style="stroke-opacity:0.025; stroke-width:0.08"/>
<line x1="470" y1="70" x2="470" y2="170" style="stroke-opacity:0.025; stroke-width:0.08"/>
<line x1="270" y1="170" x2="470" y2="70" style="stroke-opacity:0.025; stroke-width:0.08"/>
<line x1="470" y1="70" x2="370" y2="170" style="stroke-opacity:0.025; stroke-width:0.08"/>
<line x1="470" y1="70" x2="370" y2="70" style="stroke-opacity:0.025; stroke-width:0.08"/>
<line x1="470" y1="70" x2="270" y2="170" style="stroke-opacity:0.025; stroke-width:0.08"/>
<line x1="470" y1="270" x2="470" y2="70" style="stroke-opacity:0.025; stroke-width:0.08"/>
<line x1="270" y1="270" x2="470" y2="70" style="stroke-opacity:0.025; stroke-width:0.08"/>
<line x1="470" y1="70" x2="370" y2="270" style="stroke-opacity:0.025; stroke-width:0.08"/>
<line x1="470" y1="70" x2="270" y2="70" style="stroke-opacity:0.025; stroke-width:0.08"/>
<line x1="370" y1="270" x2="470" y2="70" style="stroke-opacity:0.025; stroke-width:0.08"/>
<line x1="470" y1="70" x2="270" y2="270" style="stroke-opacity:0.025; stroke-width:0.08"/>
</g>

</svg>