<?xml version="1.0" standalone="no"?>
<!DOCTYPE svg PUBLIC "-//W3C//DTD SVG 1.1//EN" "http://www.w3.org/Graphics/SVG/1.1/DTD/svg11.dtd">

<svg width="1140" height="340" style="background:#f0f0f0" 
  xmlns="http://www.w3.org/2000/svg"
  xmlns:xlink="http://www.w3.org/1999/xlink">


<marker id="arrow" viewBox="-5 -10 10 20" orient="auto" markerUnits="strokeWidth" markerWidth="1.8" markerHeight="1.8">
<polygon points="0,-10 5,0 0,10" stroke="none" style="fill:#f00000; fill-opacity:0.6"/>
</marker>
<g>
<rect x="20" y="20" width="100" height="100" style="stroke:#808080; fill:#f0f0f0"/>
<g style="stroke:#404040; fill:#404040">
<text x="30" y="50" font-size="20">
へ
</text>
<text x="50" y="60" font-size="16">
ぬ
</text>
</g>
</g>
<g>
<rect x="20" y="120" width="100" height="100" style="stroke:#808080; fill:#f0f0f0"/>
<g style="stroke:#404040; fill:#404040">
<text x="30" y="150" font-size="20">
せ
</text>
<text x="50" y="160" font-size="16">
ゆ
</text>
</g>
</g>
<g>
<rect x="20" y="220" width="100" height="100" style="stroke:#808080; fill:#f0f0f0"/>
<g style="stroke:#404040; fill:#404040">
<text x="30" y="250" font-size="20">
そ
</text>
<text x="50" y="260" font-size="16">
や
</text>
</g>
</g>
<g>
<rect x="120" y="20" width="100" height="100" style="stroke:#808080; fill:#f0f0f0"/>
<g style="stroke:#404040; fill:#404040">
<text x="130" y="50" font-size="20">
ま
</text>
<text x="150" y="60" font-size="16">
む
</text>
</g>
</g>
<g>
<rect x="120" y="120" width="100" height="100" style="stroke:#808080; fill:#f0f0f0"/>
<g style="stroke:#404040; fill:#404040">
<text x="130" y="150" font-size="20">
う
</text>
<text x="150" y="160" font-size="16">
け
</text>
</g>
</g>
<g>
<rect x="120" y="220" width="100" height="100" style="stroke:#808080; fill:#f0f0f0"/>
<g style="stroke:#404040; fill:#404040">
<text x="130" y="250" font-size="20">
も
</text>
<text x="150" y="260" font-size="16">
わ
</text>
</g>
</g>
<g>
<rect x="220" y="20" width="100" height="100" style="stroke:#808080; fill:#f0f0f0"/>
<g style="stroke:#404040; fill:#404040">
<text x="230" y="50" font-size="20">
て
</text>
<text x="250" y="60" font-size="16">
よ
</text>
</g>
</g>
<g>
<rect x="220" y="120" width="100" height="100" style="stroke:#808080; fill:#f0f0f0"/>
<g style="stroke:#404040; fill:#404040">
<text x="230" y="150" font-size="20">
の
</text>
<text x="250" y="160" font-size="16">
ん
</text>
</g>
</g>
<g>
<rect x="220" y="220" width="100" height="100" style="stroke:#808080; fill:#f0f0f0"/>
<g style="stroke:#404040; fill:#404040">
<text x="230" y="250" font-size="20">
と
</text>
<text x="250" y="260" font-size="16">
ら
</text>
</g>
</g>
<g>
<rect x="320" y="20" width="100" height="100" style="stroke:#808080; fill:#f0f0f0"/>
<g style="stroke:#404040; fill:#404040">
<text x="330" y="50" font-size="20">
は
</text>
<text x="350" y="60" font-size="16">
ね
</text>
</g>
</g>
<g>
<rect x="320" y="120" width="100" height="100" style="stroke:#808080; fill:#f0f0f0"/>
<g style="stroke:#404040; fill:#404040">
<text x="330" y="150" font-size="20">
し
</text>
<text x="350" y="160" font-size="16">
を
</text>
</g>
</g>
<g>
<rect x="320" y="220" width="100" height="100" style="stroke:#808080; fill:#f0f0f0"/>
<g style="stroke:#404040; fill:#404040">
<text x="330" y="250" font-size="20">
か
</text>
<text x="350" y="260" font-size="16">
め
</text>
</g>
</g>
<g>
<rect x="420" y="20" width="100" height="100" style="stroke:#808080; fill:#f0f0f0"/>
<g style="stroke:#404040; fill:#404040">
<text x="430" y="50" font-size="20">
★
</text>
<text x="450" y="60" font-size="16">
★
</text>
</g>
</g>
<g>
<rect x="420" y="120" width="100" height="100" style="stroke:#808080; fill:#f0f0f0"/>
<g style="stroke:#404040; fill:#404040">
<text x="430" y="150" font-size="20">
、
</text>
<text x="450" y="160" font-size="16">
に
</text>
</g>
</g>
<g>
<rect x="420" y="220" width="100" height="100" style="stroke:#808080; fill:#f0f0f0"/>
<g style="stroke:#404040; fill:#404040">
<text x="430" y="250" font-size="20">
こ
</text>
<text x="450" y="260" font-size="16">
み
</text>
</g>
</g>
<g>
<rect x="620" y="20" width="100" height="100" style="stroke:#808080; fill:#f0f0f0"/>
<g style="stroke:#404040; fill:#404040">
<text x="630" y="50" font-size="20">
★
</text>
<text x="650" y="60" font-size="16">
★
</text>
</g>
</g>
<g>
<rect x="620" y="120" width="100" height="100" style="stroke:#808080; fill:#f0f0f0"/>
<g style="stroke:#404040; fill:#404040">
<text x="630" y="150" font-size="20">
あ
</text>
<text x="650" y="160" font-size="16">
ち
</text>
</g>
</g>
<g>
<rect x="620" y="220" width="100" height="100" style="stroke:#808080; fill:#f0f0f0"/>
<g style="stroke:#404040; fill:#404040">
<text x="630" y="250" font-size="20">
く
</text>
<text x="650" y="260" font-size="16">
★
</text>
</g>
</g>
<g>
<rect x="720" y="20" width="100" height="100" style="stroke:#808080; fill:#f0f0f0"/>
<g style="stroke:#404040; fill:#404040">
<text x="730" y="50" font-size="20">
す
</text>
<text x="750" y="60" font-size="16">
え
</text>
</g>
</g>
<g>
<rect x="720" y="120" width="100" height="100" style="stroke:#808080; fill:#f0f0f0"/>
<g style="stroke:#404040; fill:#404040">
<text x="730" y="150" font-size="20">
い
</text>
<text x="750" y="160" font-size="16">
ろ
</text>
</g>
</g>
<g>
<rect x="720" y="220" width="100" height="100" style="stroke:#808080; fill:#f0f0f0"/>
<g style="stroke:#404040; fill:#404040">
<text x="730" y="250" font-size="20">
っ
</text>
<text x="750" y="260" font-size="16">
き
</text>
</g>
</g>
<g>
<rect x="820" y="20" width="100" height="100" style="stroke:#808080; fill:#f0f0f0"/>
<g style="stroke:#404040; fill:#404040">
<text x="830" y="50" font-size="20">
る
</text>
<text x="850" y="60" font-size="16">
さ
</text>
</g>
</g>
<g>
<rect x="820" y="120" width="100" height="100" style="stroke:#808080; fill:#f0f0f0"/>
<g style="stroke:#404040; fill:#404040">
<text x="830" y="150" font-size="20">
な
</text>
<text x="850" y="160" font-size="16">
ん
</text>
</g>
</g>
<g>
<rect x="820" y="220" width="100" height="100" style="stroke:#808080; fill:#f0f0f0"/>
<g style="stroke:#404040; fill:#404040">
<text x="830" y="250" font-size="20">
た
</text>
<text x="850" y="260" font-size="16">
お
</text>
</g>
</g>
<g>
<rect x="920" y="20" width="100" height="100" style="stroke:#808080; fill:#f0f0f0"/>
<g style="stroke:#404040; fill:#404040">
<text x="930" y="50" font-size="20">
れ
</text>
<text x="950" y="60" font-size="16">
ひ
</text>
</g>
</g>
<g>
<rect x="920" y="120" width="100" height="100" style="stroke:#808080; fill:#f0f0f0"/>
<g style="stroke:#404040; fill:#404040">
<text x="930" y="150" font-size="20">
。
</text>
<text x="950" y="160" font-size="16">
ふ
</text>
</g>
</g>
<g>
<rect x="920" y="220" width="100" height="100" style="stroke:#808080; fill:#f0f0f0"/>
<g style="stroke:#404040; fill:#404040">
<text x="930" y="250" font-size="20">
り
</text>
<text x="950" y="260" font-size="16">
ほ
</text>
</g>
</g>
<g>
<rect x="1020" y="20" width="100" height="100" style="stroke:#808080; fill:#f0f0f0"/>
<g style="stroke:#404040; fill:#404040">
<text x="1030" y="50" font-size="20">
…
</text>
<text x="1050" y="60" font-size="16">
小
</text>
</g>
</g>
<g>
<rect x="1020" y="120" width="100" height="100" style="stroke:#808080; fill:#f0f0f0"/>
<g style="stroke:#404040; fill:#404040">
<text x="1030" y="150" font-size="20">
ー
</text>
<text x="1050" y="160" font-size="16">
つ
</text>
</g>
</g>
<g>
<rect x="1020" y="220" width="100" height="100" style="stroke:#808080; fill:#f0f0f0"/>
<g style="stroke:#404040; fill:#404040">
<text x="1030" y="250" font-size="20">
・
</text>
<text x="1050" y="260" font-size="16">
？
</text>
</g>
</g>
<g style="stroke:#f00000" marker-end="url(#arrow)">
<line x1="470" y1="270" x2="270" y2="170" style="stroke-opacity:0.10484; stroke-width:10.484"/>
<line x1="270" y1="170" x2="370" y2="270" style="stroke-opacity:0.2785; stroke-width:27.85"/>
<line x1="370" y1="70" x2="270" y2="70" style="stroke-opacity:0.025; stroke-width:1.355"/>
<line x1="270" y1="70" x2="170" y2="170" style="stroke-opacity:0.25982; stroke-width:25.982"/>
<line x1="170" y1="170" x2="370" y2="170" style="stroke-opacity:0.16235; stroke-width:16.235"/>
<line x1="370" y1="170" x2="70" y2="170" style="stroke-opacity:0.02982; stroke-width:2.982"/>
<line x1="770" y1="170" x2="870" y2="170" style="stroke-opacity:0.46463; stroke-width:46.463"/>
<line x1="70" y1="170" x2="270" y2="170" style="stroke-opacity:0.11357; stroke-width:11.357"/>
<line x1="270" y1="170" x2="270" y2="70" style="stroke-opacity:0.23972; stroke-width:23.972"/>
<line x1="170" y1="170" x2="70" y2="270" style="stroke-opacity:0.03356; stroke-width:3.356"/>
<line x1="70" y1="270" x2="270" y2="70" style="stroke-opacity:0.025; stroke-width:0.461"/>
<line x1="870" y1="170" x2="770" y2="170" style="stroke-opacity:0.45111; stroke-width:45.111"/>
<line x1="270" y1="70" x2="270" y2="170" style="stroke-opacity:0.14678; stroke-width:14.678"/>
<line x1="870" y1="170" x2="770" y2="270" style="stroke-opacity:0.09803; stroke-width:9.803"/>
<line x1="270" y1="170" x2="370" y2="170" style="stroke-opacity:0.48697; stroke-width:48.697"/>
<line x1="270" y1="170" x2="170" y2="170" style="stroke-opacity:0.12829; stroke-width:12.829"/>
<line x1="170" y1="170" x2="470" y2="270" style="stroke-opacity:0.02921; stroke-width:2.921"/>
<line x1="470" y1="270" x2="170" y2="170" style="stroke-opacity:0.09256; stroke-width:9.256"/>
<line x1="170" y1="270" x2="270" y2="170" style="stroke-opacity:0.10809; stroke-width:10.809"/>
<line x1="370" y1="170" x2="270" y2="170" style="stroke-opacity:0.40838; stroke-width:40.838"/>
<line x1="870" y1="70" x2="670" y2="270" style="stroke-opacity:0.07776; stroke-width:7.776"/>
<line x1="970" y1="270" x2="670" y2="170" style="stroke-opacity:0.025; stroke-width:1.226"/>
<line x1="670" y1="170" x2="770" y2="170" style="stroke-opacity:0.06389; stroke-width:6.389"/>
<line x1="770" y1="170" x2="870" y2="70" style="stroke-opacity:0.12145; stroke-width:12.145"/>
<line x1="870" y1="70" x2="970" y2="170" style="stroke-opacity:0.10277; stroke-width:10.277"/>
<line x1="170" y1="70" x2="370" y2="170" style="stroke-opacity:0.02851; stroke-width:2.851"/>
<line x1="370" y1="170" x2="370" y2="70" style="stroke-opacity:0.03516; stroke-width:3.516"/>
<line x1="370" y1="70" x2="470" y2="170" style="stroke-opacity:0.07984; stroke-width:7.984"/>
<line x1="770" y1="170" x2="1070" y2="170" style="stroke-opacity:0.07085; stroke-width:7.085"/>
<line x1="1070" y1="170" x2="870" y2="170" style="stroke-opacity:0.09828; stroke-width:9.828"/>
<line x1="870" y1="170" x2="1070" y2="270" style="stroke-opacity:0.025; stroke-width:1.802"/>
<line x1="1070" y1="270" x2="670" y2="270" style="stroke-opacity:0.025; stroke-width:0.36"/>
<line x1="670" y1="270" x2="1070" y2="170" style="stroke-opacity:0.025; stroke-width:0.662"/>
<line x1="870" y1="170" x2="1070" y2="170" style="stroke-opacity:0.07381; stroke-width:7.381"/>
<line x1="1070" y1="170" x2="970" y2="170" style="stroke-opacity:0.025; stroke-width:0.946"/>
<line x1="870" y1="270" x2="770" y2="270" style="stroke-opacity:0.04069; stroke-width:4.069"/>
<line x1="770" y1="270" x2="770" y2="170" style="stroke-opacity:0.04226; stroke-width:4.226"/>
<line x1="770" y1="170" x2="1070" y2="270" style="stroke-opacity:0.025; stroke-width:0.784"/>
<line x1="970" y1="70" x2="770" y2="170" style="stroke-opacity:0.06306; stroke-width:6.306"/>
<line x1="370" y1="270" x2="270" y2="170" style="stroke-opacity:0.20314; stroke-width:20.314"/>
<line x1="270" y1="170" x2="470" y2="170" style="stroke-opacity:0.13314; stroke-width:13.314"/>
<line x1="470" y1="170" x2="370" y2="70" style="stroke-opacity:0.03349; stroke-width:3.349"/>
<line x1="370" y1="70" x2="370" y2="270" style="stroke-opacity:0.025; stroke-width:1.872"/>
<line x1="870" y1="170" x2="770" y2="70" style="stroke-opacity:0.11255; stroke-width:11.255"/>
<line x1="370" y1="270" x2="370" y2="170" style="stroke-opacity:0.05964; stroke-width:5.964"/>
<line x1="370" y1="170" x2="270" y2="270" style="stroke-opacity:0.0522; stroke-width:5.22"/>
<line x1="770" y1="70" x2="870" y2="170" style="stroke-opacity:0.06676; stroke-width:6.676"/>
<line x1="270" y1="270" x2="370" y2="170" style="stroke-opacity:0.09134; stroke-width:9.134"/>
<line x1="970" y1="270" x2="1070" y2="170" style="stroke-opacity:0.03989; stroke-width:3.989"/>
<line x1="1070" y1="170" x2="770" y2="70" style="stroke-opacity:0.025; stroke-width:1.964"/>
<line x1="370" y1="170" x2="170" y2="270" style="stroke-opacity:0.02518; stroke-width:2.518"/>
<line x1="870" y1="270" x2="770" y2="170" style="stroke-opacity:0.18151; stroke-width:18.151"/>
<line x1="770" y1="170" x2="770" y2="270" style="stroke-opacity:0.12288; stroke-width:12.288"/>
<line x1="770" y1="270" x2="870" y2="70" style="stroke-opacity:0.025; stroke-width:2.081"/>
<line x1="670" y1="270" x2="970" y2="170" style="stroke-opacity:0.025; stroke-width:1.179"/>
<line x1="370" y1="170" x2="70" y2="270" style="stroke-opacity:0.025; stroke-width:1.806"/>
<line x1="70" y1="270" x2="270" y2="170" style="stroke-opacity:0.0801; stroke-width:8.01"/>
<line x1="370" y1="270" x2="470" y2="270" style="stroke-opacity:0.02529; stroke-width:2.529"/>
<line x1="270" y1="70" x2="370" y2="170" style="stroke-opacity:0.05131; stroke-width:5.131"/>
<line x1="370" y1="170" x2="170" y2="70" style="stroke-opacity:0.03423; stroke-width:3.423"/>
<line x1="170" y1="70" x2="170" y2="170" style="stroke-opacity:0.025; stroke-width:0.915"/>
<line x1="170" y1="170" x2="70" y2="170" style="stroke-opacity:0.04885; stroke-width:4.885"/>
<line x1="370" y1="70" x2="270" y2="170" style="stroke-opacity:0.09613; stroke-width:9.613"/>
<line x1="270" y1="170" x2="170" y2="270" style="stroke-opacity:0.07644; stroke-width:7.644"/>
<line x1="770" y1="170" x2="870" y2="270" style="stroke-opacity:0.14689; stroke-width:14.689"/>
<line x1="870" y1="270" x2="970" y2="270" style="stroke-opacity:0.06043; stroke-width:6.043"/>
<line x1="970" y1="270" x2="770" y2="170" style="stroke-opacity:0.02501; stroke-width:2.501"/>
<line x1="270" y1="70" x2="470" y2="170" style="stroke-opacity:0.0635; stroke-width:6.35"/>
<line x1="470" y1="170" x2="270" y2="270" style="stroke-opacity:0.03083; stroke-width:3.083"/>
<line x1="270" y1="270" x2="170" y2="170" style="stroke-opacity:0.07744; stroke-width:7.744"/>
<line x1="170" y1="170" x2="270" y2="70" style="stroke-opacity:0.09241; stroke-width:9.241"/>
<line x1="370" y1="170" x2="170" y2="170" style="stroke-opacity:0.23821; stroke-width:23.821"/>
<line x1="870" y1="170" x2="970" y2="170" style="stroke-opacity:0.0664; stroke-width:6.64"/>
<line x1="970" y1="170" x2="1070" y2="170" style="stroke-opacity:0.025; stroke-width:2.161"/>
<line x1="270" y1="170" x2="270" y2="270" style="stroke-opacity:0.15826; stroke-width:15.826"/>
<line x1="270" y1="270" x2="270" y2="170" style="stroke-opacity:0.11505; stroke-width:11.505"/>
<line x1="770" y1="70" x2="870" y2="70" style="stroke-opacity:0.06039; stroke-width:6.039"/>
<line x1="870" y1="70" x2="770" y2="170" style="stroke-opacity:0.09187; stroke-width:9.187"/>
<line x1="770" y1="170" x2="770" y2="70" style="stroke-opacity:0.0544; stroke-width:5.44"/>
<line x1="770" y1="70" x2="1070" y2="270" style="stroke-opacity:0.025; stroke-width:0.695"/>
<line x1="1070" y1="270" x2="970" y2="170" style="stroke-opacity:0.025; stroke-width:0.504"/>
<line x1="970" y1="170" x2="970" y2="70" style="stroke-opacity:0.025; stroke-width:0.94"/>
<line x1="970" y1="70" x2="770" y2="70" style="stroke-opacity:0.025; stroke-width:0.418"/>
<line x1="770" y1="70" x2="970" y2="270" style="stroke-opacity:0.025; stroke-width:0.619"/>
<line x1="70" y1="170" x2="170" y2="170" style="stroke-opacity:0.08648; stroke-width:8.648"/>
<line x1="770" y1="170" x2="670" y2="170" style="stroke-opacity:0.07826; stroke-width:7.826"/>
<line x1="670" y1="170" x2="870" y2="70" style="stroke-opacity:0.05556; stroke-width:5.556"/>
<line x1="270" y1="270" x2="370" y2="70" style="stroke-opacity:0.02892; stroke-width:2.892"/>
<line x1="170" y1="270" x2="370" y2="270" style="stroke-opacity:0.025; stroke-width:1.751"/>
<line x1="370" y1="270" x2="170" y2="270" style="stroke-opacity:0.02861; stroke-width:2.861"/>
<line x1="470" y1="170" x2="270" y2="170" style="stroke-opacity:0.15627; stroke-width:15.627"/>
<line x1="870" y1="70" x2="870" y2="170" style="stroke-opacity:0.08939; stroke-width:8.939"/>
<line x1="170" y1="70" x2="270" y2="170" style="stroke-opacity:0.04786; stroke-width:4.786"/>
<line x1="670" y1="270" x2="770" y2="170" style="stroke-opacity:0.04265; stroke-width:4.265"/>
<line x1="270" y1="70" x2="470" y2="270" style="stroke-opacity:0.025; stroke-width:2.262"/>
<line x1="770" y1="270" x2="670" y2="270" style="stroke-opacity:0.03298; stroke-width:3.298"/>
<line x1="370" y1="170" x2="270" y2="70" style="stroke-opacity:0.12796; stroke-width:12.796"/>
<line x1="270" y1="70" x2="370" y2="70" style="stroke-opacity:0.05176; stroke-width:5.176"/>
<line x1="870" y1="270" x2="870" y2="170" style="stroke-opacity:0.12406; stroke-width:12.406"/>
<line x1="170" y1="170" x2="270" y2="170" style="stroke-opacity:0.21783; stroke-width:21.783"/>
<line x1="970" y1="270" x2="670" y2="270" style="stroke-opacity:0.025; stroke-width:2.429"/>
<line x1="270" y1="170" x2="70" y2="170" style="stroke-opacity:0.08013; stroke-width:8.013"/>
<line x1="470" y1="170" x2="470" y2="270" style="stroke-opacity:0.03919; stroke-width:3.919"/>
<line x1="470" y1="170" x2="270" y2="70" style="stroke-opacity:0.04518; stroke-width:4.518"/>
<line x1="470" y1="170" x2="170" y2="70" style="stroke-opacity:0.025; stroke-width:1.65"/>
<line x1="270" y1="170" x2="470" y2="270" style="stroke-opacity:0.11479; stroke-width:11.479"/>
<line x1="470" y1="270" x2="170" y2="70" style="stroke-opacity:0.025; stroke-width:0.928"/>
<line x1="470" y1="270" x2="270" y2="270" style="stroke-opacity:0.05625; stroke-width:5.625"/>
<line x1="270" y1="270" x2="170" y2="270" style="stroke-opacity:0.02574; stroke-width:2.574"/>
<line x1="370" y1="270" x2="470" y2="170" style="stroke-opacity:0.0724; stroke-width:7.24"/>
<line x1="470" y1="170" x2="70" y2="270" style="stroke-opacity:0.04487; stroke-width:4.487"/>
<line x1="970" y1="70" x2="870" y2="170" style="stroke-opacity:0.08256; stroke-width:8.256"/>
<line x1="270" y1="170" x2="370" y2="70" style="stroke-opacity:0.09612; stroke-width:9.612"/>
<line x1="770" y1="170" x2="970" y2="70" style="stroke-opacity:0.03008; stroke-width:3.008"/>
<line x1="970" y1="170" x2="670" y2="170" style="stroke-opacity:0.025; stroke-width:1.206"/>
<line x1="870" y1="170" x2="670" y2="170" style="stroke-opacity:0.06256; stroke-width:6.256"/>
<line x1="370" y1="270" x2="270" y2="270" style="stroke-opacity:0.06656; stroke-width:6.656"/>
<line x1="270" y1="270" x2="470" y2="170" style="stroke-opacity:0.05274; stroke-width:5.274"/>
<line x1="970" y1="170" x2="870" y2="270" style="stroke-opacity:0.0388; stroke-width:3.88"/>
<line x1="270" y1="70" x2="370" y2="270" style="stroke-opacity:0.025; stroke-width:2.142"/>
<line x1="870" y1="70" x2="1070" y2="70" style="stroke-opacity:0.025; stroke-width:0.374"/>
<line x1="1070" y1="70" x2="970" y2="170" style="stroke-opacity:0.025; stroke-width:0.926"/>
<line x1="770" y1="70" x2="770" y2="170" style="stroke-opacity:0.0824; stroke-width:8.24"/>
<line x1="870" y1="270" x2="1070" y2="170" style="stroke-opacity:0.02718; stroke-width:2.718"/>
<line x1="970" y1="170" x2="870" y2="170" style="stroke-opacity:0.07185; stroke-width:7.185"/>
<line x1="870" y1="170" x2="670" y2="270" style="stroke-opacity:0.08044; stroke-width:8.044"/>
<line x1="170" y1="170" x2="470" y2="170" style="stroke-opacity:0.05; stroke-width:5.0"/>
<line x1="870" y1="170" x2="870" y2="270" style="stroke-opacity:0.14287; stroke-width:14.287"/>
<line x1="870" y1="70" x2="970" y2="70" style="stroke-opacity:0.04131; stroke-width:4.131"/>
<line x1="970" y1="70" x2="870" y2="70" style="stroke-opacity:0.03745; stroke-width:3.745"/>
<line x1="970" y1="170" x2="770" y2="270" style="stroke-opacity:0.025; stroke-width:0.99"/>
<line x1="770" y1="270" x2="1070" y2="170" style="stroke-opacity:0.025; stroke-width:1.905"/>
<line x1="870" y1="170" x2="970" y2="70" style="stroke-opacity:0.07517; stroke-width:7.517"/>
<line x1="970" y1="70" x2="770" y2="270" style="stroke-opacity:0.025; stroke-width:1.709"/>
<line x1="770" y1="270" x2="770" y2="70" style="stroke-opacity:0.025; stroke-width:0.717"/>
<line x1="470" y1="170" x2="370" y2="170" style="stroke-opacity:0.08415; stroke-width:8.415"/>
<line x1="870" y1="170" x2="870" y2="70" style="stroke-opacity:0.12517; stroke-width:12.517"/>
<line x1="670" y1="270" x2="870" y2="70" style="stroke-opacity:0.0268; stroke-width:2.68"/>
<line x1="870" y1="70" x2="670" y2="170" style="stroke-opacity:0.025; stroke-width:0.625"/>
<line x1="170" y1="170" x2="370" y2="70" style="stroke-opacity:0.02573; stroke-width:2.573"/>
<line x1="70" y1="270" x2="370" y2="170" style="stroke-opacity:0.03472; stroke-width:3.472"/>
<line x1="270" y1="170" x2="70" y2="270" style="stroke-opacity:0.07684; stroke-width:7.684"/>
<line x1="70" y1="270" x2="170" y2="170" style="stroke-opacity:0.06137; stroke-width:6.137"/>
<line x1="370" y1="170" x2="470" y2="270" style="stroke-opacity:0.03616; stroke-width:3.616"/>
<line x1="870" y1="270" x2="670" y2="170" style="stroke-opacity:0.03151; stroke-width:3.151"/>
<line x1="170" y1="270" x2="370" y2="170" style="stroke-opacity:0.025; stroke-width:2.205"/>
<line x1="170" y1="270" x2="270" y2="70" style="stroke-opacity:0.025; stroke-width:0.89"/>
<line x1="370" y1="170" x2="470" y2="170" style="stroke-opacity:0.05134; stroke-width:5.134"/>
<line x1="270" y1="270" x2="270" y2="70" style="stroke-opacity:0.025; stroke-width:1.803"/>
<line x1="1070" y1="170" x2="770" y2="170" style="stroke-opacity:0.07786; stroke-width:7.786"/>
<line x1="670" y1="170" x2="870" y2="170" style="stroke-opacity:0.07833; stroke-width:7.833"/>
<line x1="770" y1="170" x2="670" y2="270" style="stroke-opacity:0.0713; stroke-width:7.13"/>
<line x1="770" y1="270" x2="870" y2="170" style="stroke-opacity:0.10082; stroke-width:10.082"/>
<line x1="670" y1="270" x2="970" y2="70" style="stroke-opacity:0.03896; stroke-width:3.896"/>
<line x1="270" y1="70" x2="170" y2="70" style="stroke-opacity:0.025; stroke-width:1.297"/>
<line x1="970" y1="70" x2="870" y2="270" style="stroke-opacity:0.03645; stroke-width:3.645"/>
<line x1="270" y1="270" x2="470" y2="270" style="stroke-opacity:0.03467; stroke-width:3.467"/>
<line x1="470" y1="270" x2="70" y2="270" style="stroke-opacity:0.025; stroke-width:0.642"/>
<line x1="470" y1="170" x2="370" y2="270" style="stroke-opacity:0.0458; stroke-width:4.58"/>
<line x1="370" y1="70" x2="370" y2="170" style="stroke-opacity:0.03409; stroke-width:3.409"/>
<line x1="70" y1="70" x2="370" y2="270" style="stroke-opacity:0.025; stroke-width:0.086"/>
<line x1="370" y1="270" x2="70" y2="170" style="stroke-opacity:0.025; stroke-width:1.252"/>
<line x1="670" y1="270" x2="870" y2="170" style="stroke-opacity:0.10454; stroke-width:10.454"/>
<line x1="870" y1="170" x2="970" y2="270" style="stroke-opacity:0.0608; stroke-width:6.08"/>
<line x1="970" y1="270" x2="870" y2="170" style="stroke-opacity:0.07771; stroke-width:7.771"/>
<line x1="870" y1="270" x2="770" y2="70" style="stroke-opacity:0.025; stroke-width:1.877"/>
<line x1="770" y1="70" x2="970" y2="170" style="stroke-opacity:0.025; stroke-width:1.015"/>
<line x1="970" y1="170" x2="770" y2="170" style="stroke-opacity:0.03965; stroke-width:3.965"/>
<line x1="270" y1="270" x2="70" y2="70" style="stroke-opacity:0.025; stroke-width:0.597"/>
<line x1="70" y1="70" x2="270" y2="70" style="stroke-opacity:0.025; stroke-width:0.451"/>
<line x1="970" y1="170" x2="870" y2="70" style="stroke-opacity:0.025; stroke-width:2.007"/>
<line x1="70" y1="70" x2="270" y2="170" style="stroke-opacity:0.03798; stroke-width:3.798"/>
<line x1="470" y1="270" x2="70" y2="170" style="stroke-opacity:0.025; stroke-width:1.383"/>
<line x1="170" y1="270" x2="170" y2="170" style="stroke-opacity:0.025; stroke-width:1.447"/>
<line x1="770" y1="170" x2="970" y2="170" style="stroke-opacity:0.06727; stroke-width:6.727"/>
<line x1="670" y1="270" x2="870" y2="270" style="stroke-opacity:0.025; stroke-width:1.687"/>
<line x1="1070" y1="170" x2="870" y2="70" style="stroke-opacity:0.025; stroke-width:2.072"/>
<line x1="370" y1="170" x2="370" y2="270" style="stroke-opacity:0.10441; stroke-width:10.441"/>
<line x1="170" y1="170" x2="270" y2="270" style="stroke-opacity:0.04538; stroke-width:4.538"/>
<line x1="870" y1="70" x2="770" y2="270" style="stroke-opacity:0.025; stroke-width:1.715"/>
<line x1="670" y1="170" x2="670" y2="270" style="stroke-opacity:0.025; stroke-width:1.555"/>
<line x1="270" y1="270" x2="170" y2="70" style="stroke-opacity:0.025; stroke-width:1.375"/>
<line x1="170" y1="70" x2="270" y2="70" style="stroke-opacity:0.025; stroke-width:1.751"/>
<line x1="770" y1="270" x2="870" y2="270" style="stroke-opacity:0.07828; stroke-width:7.828"/>
<line x1="270" y1="70" x2="70" y2="170" style="stroke-opacity:0.025; stroke-width:1.811"/>
<line x1="670" y1="270" x2="770" y2="70" style="stroke-opacity:0.025; stroke-width:1.527"/>
<line x1="170" y1="170" x2="170" y2="270" style="stroke-opacity:0.025; stroke-width:1.335"/>
<line x1="970" y1="70" x2="1070" y2="170" style="stroke-opacity:0.025; stroke-width:2.139"/>
<line x1="70" y1="170" x2="270" y2="70" style="stroke-opacity:0.025; stroke-width:0.909"/>
<line x1="370" y1="270" x2="170" y2="170" style="stroke-opacity:0.03391; stroke-width:3.391"/>
<line x1="670" y1="170" x2="970" y2="270" style="stroke-opacity:0.025; stroke-width:0.944"/>
<line x1="70" y1="70" x2="370" y2="170" style="stroke-opacity:0.025; stroke-width:0.234"/>
<line x1="870" y1="270" x2="970" y2="170" style="stroke-opacity:0.07563; stroke-width:7.563"/>
<line x1="970" y1="170" x2="670" y2="270" style="stroke-opacity:0.025; stroke-width:1.282"/>
<line x1="370" y1="270" x2="70" y2="270" style="stroke-opacity:0.025; stroke-width:1.231"/>
<line x1="770" y1="70" x2="870" y2="270" style="stroke-opacity:0.025; stroke-width:1.965"/>
<line x1="370" y1="70" x2="470" y2="270" style="stroke-opacity:0.025; stroke-width:1.024"/>
<line x1="1070" y1="170" x2="670" y2="270" style="stroke-opacity:0.025; stroke-width:1.721"/>
<line x1="370" y1="270" x2="170" y2="70" style="stroke-opacity:0.025; stroke-width:0.849"/>
<line x1="470" y1="170" x2="70" y2="170" style="stroke-opacity:0.0306; stroke-width:3.06"/>
<line x1="870" y1="70" x2="1070" y2="170" style="stroke-opacity:0.03263; stroke-width:3.263"/>
<line x1="970" y1="70" x2="670" y2="170" style="stroke-opacity:0.025; stroke-width:0.561"/>
<line x1="170" y1="270" x2="270" y2="270" style="stroke-opacity:0.025; stroke-width:1.841"/>
<line x1="770" y1="270" x2="970" y2="270" style="stroke-opacity:0.025; stroke-width:2.185"/>
<line x1="970" y1="270" x2="870" y2="270" style="stroke-opacity:0.025; stroke-width:1.249"/>
<line x1="870" y1="270" x2="670" y2="270" style="stroke-opacity:0.025; stroke-width:2.067"/>
<line x1="270" y1="270" x2="370" y2="270" style="stroke-opacity:0.03529; stroke-width:3.529"/>
<line x1="1070" y1="170" x2="970" y2="270" style="stroke-opacity:0.025; stroke-width:1.061"/>
<line x1="870" y1="70" x2="1070" y2="270" style="stroke-opacity:0.025; stroke-width:0.92"/>
<line x1="1070" y1="270" x2="770" y2="170" style="stroke-opacity:0.025; stroke-width:1.098"/>
<line x1="70" y1="270" x2="270" y2="270" style="stroke-opacity:0.025; stroke-width:1.394"/>
<line x1="270" y1="170" x2="170" y2="70" style="stroke-opacity:0.03811; stroke-width:3.811"/>
<line x1="170" y1="70" x2="270" y2="270" style="stroke-opacity:0.025; stroke-width:0.966"/>
<line x1="370" y1="270" x2="270" y2="70" style="stroke-opacity:0.03671; stroke-width:3.671"/>
<line x1="670" y1="170" x2="770" y2="270" style="stroke-opacity:0.025; stroke-width:1.449"/>
<line x1="470" y1="170" x2="170" y2="170" style="stroke-opacity:0.025; stroke-width:2.325"/>
<line x1="670" y1="270" x2="670" y2="170" style="stroke-opacity:0.025; stroke-width:1.276"/>
<line x1="470" y1="270" x2="370" y2="270" style="stroke-opacity:0.025; stroke-width:1.713"/>
<line x1="670" y1="170" x2="870" y2="270" style="stroke-opacity:0.025; stroke-width:1.183"/>
<line x1="870" y1="170" x2="1070" y2="70" style="stroke-opacity:0.025; stroke-width:0.208"/>
<line x1="70" y1="170" x2="370" y2="270" style="stroke-opacity:0.025; stroke-width:1.214"/>
<line x1="270" y1="270" x2="70" y2="270" style="stroke-opacity:0.025; stroke-width:0.674"/>
<line x1="970" y1="270" x2="770" y2="70" style="stroke-opacity:0.025; stroke-width:1.384"/>
<line x1="270" y1="270" x2="70" y2="170" style="stroke-opacity:0.025; stroke-width:0.823"/>
<line x1="70" y1="170" x2="270" y2="270" style="stroke-opacity:0.025; stroke-width:0.301"/>
<line x1="170" y1="270" x2="70" y2="170" style="stroke-opacity:0.025; stroke-width:0.799"/>
<line x1="70" y1="270" x2="470" y2="270" style="stroke-opacity:0.025; stroke-width:0.848"/>
<line x1="470" y1="170" x2="170" y2="270" style="stroke-opacity:0.0269; stroke-width:2.69"/>
<line x1="470" y1="270" x2="370" y2="70" style="stroke-opacity:0.025; stroke-width:0.671"/>
<line x1="170" y1="270" x2="470" y2="170" style="stroke-opacity:0.025; stroke-width:2.493"/>
<line x1="270" y1="70" x2="170" y2="270" style="stroke-opacity:0.02565; stroke-width:2.565"/>
<line x1="170" y1="270" x2="470" y2="270" style="stroke-opacity:0.025; stroke-width:0.494"/>
<line x1="170" y1="270" x2="370" y2="70" style="stroke-opacity:0.025; stroke-width:0.373"/>
<line x1="770" y1="170" x2="970" y2="270" style="stroke-opacity:0.02996; stroke-width:2.996"/>
<line x1="770" y1="270" x2="670" y2="170" style="stroke-opacity:0.025; stroke-width:1.004"/>
<line x1="470" y1="270" x2="470" y2="170" style="stroke-opacity:0.025; stroke-width:1.731"/>
<line x1="670" y1="170" x2="970" y2="170" style="stroke-opacity:0.025; stroke-width:0.633"/>
<line x1="170" y1="70" x2="170" y2="270" style="stroke-opacity:0.025; stroke-width:0.738"/>
<line x1="1070" y1="270" x2="870" y2="170" style="stroke-opacity:0.025; stroke-width:0.709"/>
<line x1="670" y1="170" x2="1070" y2="170" style="stroke-opacity:0.025; stroke-width:1.602"/>
<line x1="970" y1="70" x2="970" y2="270" style="stroke-opacity:0.025; stroke-width:0.25"/>
<line x1="770" y1="70" x2="1070" y2="170" style="stroke-opacity:0.025; stroke-width:0.492"/>
<line x1="1070" y1="170" x2="770" y2="270" style="stroke-opacity:0.025; stroke-width:1.439"/>
<line x1="870" y1="270" x2="1070" y2="70" style="stroke-opacity:0.025; stroke-width:0.375"/>
<line x1="70" y1="170" x2="370" y2="170" style="stroke-opacity:0.025; stroke-width:2.205"/>
<line x1="770" y1="70" x2="770" y2="270" style="stroke-opacity:0.025; stroke-width:2.286"/>
<line x1="470" y1="270" x2="370" y2="170" style="stroke-opacity:0.0318; stroke-width:3.18"/>
<line x1="170" y1="170" x2="370" y2="270" style="stroke-opacity:0.06119; stroke-width:6.119"/>
<line x1="870" y1="70" x2="770" y2="70" style="stroke-opacity:0.025; stroke-width:1.537"/>
<line x1="70" y1="270" x2="370" y2="70" style="stroke-opacity:0.025; stroke-width:0.504"/>
<line x1="470" y1="270" x2="270" y2="70" style="stroke-opacity:0.025; stroke-width:1.267"/>
<line x1="370" y1="70" x2="270" y2="270" style="stroke-opacity:0.025; stroke-width:1.468"/>
<line x1="870" y1="270" x2="870" y2="70" style="stroke-opacity:0.025; stroke-width:2.387"/>
<line x1="870" y1="70" x2="870" y2="270" style="stroke-opacity:0.025; stroke-width:1.609"/>
<line x1="370" y1="270" x2="370" y2="70" style="stroke-opacity:0.025; stroke-width:1.004"/>
<line x1="270" y1="70" x2="270" y2="270" style="stroke-opacity:0.025; stroke-width:1.125"/>
<line x1="470" y1="270" x2="170" y2="270" style="stroke-opacity:0.025; stroke-width:0.346"/>
<line x1="70" y1="270" x2="370" y2="270" style="stroke-opacity:0.025; stroke-width:2.352"/>
<line x1="970" y1="170" x2="970" y2="270" style="stroke-opacity:0.025; stroke-width:1.649"/>
<line x1="1070" y1="170" x2="1070" y2="270" style="stroke-opacity:0.025; stroke-width:0.762"/>
<line x1="170" y1="70" x2="70" y2="170" style="stroke-opacity:0.025; stroke-width:0.936"/>
<line x1="370" y1="70" x2="70" y2="270" style="stroke-opacity:0.025; stroke-width:1.139"/>
<line x1="1070" y1="170" x2="870" y2="270" style="stroke-opacity:0.025; stroke-width:1.671"/>
<line x1="70" y1="170" x2="470" y2="170" style="stroke-opacity:0.025; stroke-width:0.328"/>
<line x1="370" y1="70" x2="70" y2="70" style="stroke-opacity:0.025; stroke-width:0.163"/>
<line x1="770" y1="70" x2="670" y2="270" style="stroke-opacity:0.025; stroke-width:0.636"/>
<line x1="870" y1="270" x2="970" y2="70" style="stroke-opacity:0.025; stroke-width:1.398"/>
<line x1="770" y1="70" x2="970" y2="70" style="stroke-opacity:0.025; stroke-width:1.351"/>
<line x1="70" y1="270" x2="170" y2="70" style="stroke-opacity:0.025; stroke-width:0.908"/>
<line x1="770" y1="70" x2="670" y2="170" style="stroke-opacity:0.025; stroke-width:0.264"/>
<line x1="970" y1="270" x2="870" y2="70" style="stroke-opacity:0.025; stroke-width:0.438"/>
<line x1="970" y1="270" x2="970" y2="170" style="stroke-opacity:0.025; stroke-width:1.009"/>
<line x1="170" y1="170" x2="170" y2="70" style="stroke-opacity:0.025; stroke-width:0.835"/>
<line x1="670" y1="270" x2="1070" y2="70" style="stroke-opacity:0.025; stroke-width:0.08"/>
<line x1="170" y1="70" x2="470" y2="170" style="stroke-opacity:0.025; stroke-width:0.772"/>
<line x1="370" y1="70" x2="70" y2="170" style="stroke-opacity:0.025; stroke-width:0.688"/>
<line x1="70" y1="170" x2="370" y2="70" style="stroke-opacity:0.025; stroke-width:0.106"/>
<line x1="270" y1="70" x2="70" y2="270" style="stroke-opacity:0.025; stroke-width:0.75"/>
<line x1="170" y1="70" x2="370" y2="270" style="stroke-opacity:0.025; stroke-width:1.112"/>
<line x1="670" y1="270" x2="970" y2="270" style="stroke-opacity:0.025; stroke-width:2.036"/>
<line x1="770" y1="270" x2="970" y2="70" style="stroke-opacity:0.025; stroke-width:0.786"/>
<line x1="70" y1="270" x2="470" y2="170" style="stroke-opacity:0.025; stroke-width:0.955"/>
<line x1="270" y1="170" x2="70" y2="70" style="stroke-opacity:0.025; stroke-width:1.835"/>
<line x1="770" y1="70" x2="1070" y2="70" style="stroke-opacity:0.025; stroke-width:0.08"/>
<line x1="70" y1="170" x2="470" y2="270" style="stroke-opacity:0.025; stroke-width:0.254"/>
<line x1="70" y1="170" x2="170" y2="270" style="stroke-opacity:0.025; stroke-width:0.121"/>
<line x1="970" y1="70" x2="970" y2="170" style="stroke-opacity:0.025; stroke-width:0.136"/>
<line x1="970" y1="270" x2="970" y2="70" style="stroke-opacity:0.025; stroke-width:0.499"/>
<line x1="670" y1="270" x2="1070" y2="270" style="stroke-opacity:0.025; stroke-width:0.662"/>
<line x1="1070" y1="270" x2="970" y2="270" style="stroke-opacity:0.025; stroke-width:0.438"/>
<line x1="970" y1="270" x2="770" y2="270" style="stroke-opacity:0.025; stroke-width:0.893"/>
<line x1="670" y1="270" x2="770" y2="270" style="stroke-opacity:0.025; stroke-width:0.598"/>
<line x1="970" y1="270" x2="1070" y2="70" style="stroke-opacity:0.025; stroke-width:0.08"/>
<line x1="70" y1="270" x2="70" y2="170" style="stroke-opacity:0.025; stroke-width:0.194"/>
<line x1="170" y1="70" x2="370" y2="70" style="stroke-opacity:0.025; stroke-width:0.436"/>
<line x1="70" y1="270" x2="170" y2="270" style="stroke-opacity:0.025; stroke-width:0.36"/>
<line x1="170" y1="70" x2="70" y2="270" style="stroke-opacity:0.025; stroke-width:0.286"/>
<line x1="970" y1="70" x2="670" y2="270" style="stroke-opacity:0.025; stroke-width:0.294"/>
<line x1="870" y1="70" x2="970" y2="270" style="stroke-opacity:0.025; stroke-width:0.682"/>
<line x1="670" y1="170" x2="770" y2="70" style="stroke-opacity:0.025; stroke-width:0.544"/>
<line x1="1070" y1="270" x2="870" y2="270" style="stroke-opacity:0.025; stroke-width:0.406"/>
<line x1="370" y1="70" x2="170" y2="70" style="stroke-opacity:0.025; stroke-width:0.618"/>
<line x1="170" y1="270" x2="70" y2="270" style="stroke-opacity:0.025; stroke-width:0.378"/>
<line x1="470" y1="170" x2="70" y2="70" style="stroke-opacity:0.025; stroke-width:0.372"/>
<line x1="970" y1="70" x2="1070" y2="270" style="stroke-opacity:0.025; stroke-width:0.08"/>
<line x1="670" y1="170" x2="970" y2="70" style="stroke-opacity:0.025; stroke-width:0.414"/>
<line x1="1070" y1="170" x2="670" y2="170" style="stroke-opacity:0.025; stroke-width:0.473"/>
<line x1="770" y1="270" x2="970" y2="170" style="stroke-opacity:0.025; stroke-width:0.654"/>
<line x1="170" y1="170" x2="70" y2="70" style="stroke-opacity:0.025; stroke-width:0.627"/>
<line x1="670" y1="170" x2="1070" y2="270" style="stroke-opacity:0.025; stroke-width:0.122"/>
<line x1="1070" y1="270" x2="770" y2="70" style="stroke-opacity:0.025; stroke-width:0.715"/>
<line x1="70" y1="170" x2="170" y2="70" style="stroke-opacity:0.025; stroke-width:0.128"/>
<line x1="1070" y1="270" x2="870" y2="70" style="stroke-opacity:0.025; stroke-width:0.373"/>
<line x1="970" y1="170" x2="1070" y2="70" style="stroke-opacity:0.025; stroke-width:0.08"/>
<line x1="1070" y1="70" x2="770" y2="170" style="stroke-opacity:0.025; stroke-width:0.08"/>
<line x1="370" y1="170" x2="70" y2="70" style="stroke-opacity:0.025; stroke-width:0.618"/>
<line x1="70" y1="270" x2="70" y2="70" style="stroke-opacity:0.025; stroke-width:0.08"/>
<line x1="170" y1="70" x2="470" y2="270" style="stroke-opacity:0.025; stroke-width:0.374"/>
<line x1="1070" y1="170" x2="970" y2="70" style="stroke-opacity:0.025; stroke-width:0.524"/>
<line x1="70" y1="70" x2="270" y2="270" style="stroke-opacity:0.025; stroke-width:0.565"/>
<line x1="370" y1="70" x2="170" y2="170" style="stroke-opacity:0.025; stroke-width:0.8"/>
<line x1="170" y1="270" x2="170" y2="70" style="stroke-opacity:0.025; stroke-width:0.49"/>
<line x1="70" y1="170" x2="70" y2="270" style="stroke-opacity:0.025; stroke-width:0.345"/>
<line x1="1070" y1="170" x2="1070" y2="70" style="stroke-opacity:0.025; stroke-width:0.08"/>
<line x1="1070" y1="70" x2="1070" y2="170" style="stroke-opacity:0.025; stroke-width:0.08"/>
<line x1="70" y1="70" x2="470" y2="170" style="stroke-opacity:0.025; stroke-width:0.11"/>
<line x1="1070" y1="270" x2="770" y2="270" style="stroke-opacity:0.025; stroke-width:0.316"/>
<line x1="1070" y1="270" x2="970" y2="70" style="stroke-opacity:0.025; stroke-width:0.246"/>
<line x1="70" y1="70" x2="170" y2="170" style="stroke-opacity:0.025; stroke-width:0.115"/>
<line x1="1070" y1="270" x2="670" y2="170" style="stroke-opacity:0.025; stroke-width:0.469"/>
<line x1="70" y1="70" x2="370" y2="70" style="stroke-opacity:0.025; stroke-width:0.08"/>
<line x1="970" y1="170" x2="770" y2="70" style="stroke-opacity:0.025; stroke-width:0.683"/>
<line x1="370" y1="70" x2="170" y2="270" style="stroke-opacity:0.025; stroke-width:0.627"/>
<line x1="670" y1="170" x2="1070" y2="70" style="stroke-opacity:0.025; stroke-width:0.08"/>
<line x1="470" y1="270" x2="70" y2="70" style="stroke-opacity:0.025; stroke-width:0.089"/>
<line x1="70" y1="70" x2="170" y2="70" style="stroke-opacity:0.025; stroke-width:0.08"/>
<line x1="1070" y1="70" x2="870" y2="170" style="stroke-opacity:0.025; stroke-width:0.08"/>
<line x1="1070" y1="70" x2="870" y2="270" style="stroke-opacity:0.025; stroke-width:0.08"/>
<line x1="1070" y1="70" x2="1070" y2="270" style="stroke-opacity:0.025; stroke-width:0.112"/>
<line x1="770" y1="170" x2="1070" y2="70" style="stroke-opacity:0.025; stroke-width:0.205"/>
<line x1="870" y1="270" x2="1070" y2="270" style="stroke-opacity:0.025; stroke-width:0.08"/>
<line x1="170" y1="70" x2="70" y2="70" style="stroke-opacity:0.025; stroke-width:0.08"/>
<line x1="1070" y1="270" x2="1070" y2="170" style="stroke-opacity:0.025; stroke-width:0.08"/>
<line x1="1070" y1="70" x2="770" y2="270" style="stroke-opacity:0.025; stroke-width:0.08"/>
<line x1="370" y1="270" x2="70" y2="70" style="stroke-opacity:0.025; stroke-width:0.275"/>
<line x1="270" y1="70" x2="70" y2="70" style="stroke-opacity:0.025; stroke-width:0.107"/>
<line x1="970" y1="170" x2="1070" y2="270" style="stroke-opacity:0.025; stroke-width:0.258"/>
<line x1="70" y1="70" x2="70" y2="270" style="stroke-opacity:0.025; stroke-width:0.08"/>
<line x1="970" y1="270" x2="1070" y2="270" style="stroke-opacity:0.025; stroke-width:0.08"/>
<line x1="70" y1="70" x2="470" y2="270" style="stroke-opacity:0.025; stroke-width:0.08"/>
<line x1="170" y1="270" x2="70" y2="70" style="stroke-opacity:0.025; stroke-width:0.106"/>
<line x1="770" y1="270" x2="1070" y2="270" style="stroke-opacity:0.025; stroke-width:0.084"/>
<line x1="1070" y1="70" x2="970" y2="70" style="stroke-opacity:0.025; stroke-width:0.08"/>
<line x1="1070" y1="70" x2="970" y2="270" style="stroke-opacity:0.025; stroke-width:0.08"/>
<line x1="70" y1="70" x2="170" y2="270" style="stroke-opacity:0.025; stroke-width:0.08"/>
<line x1="70" y1="70" x2="70" y2="170" style="stroke-opacity:0.025; stroke-width:0.08"/>
<line x1="1070" y1="70" x2="670" y2="170" style="stroke-opacity:0.025; stroke-width:0.08"/>
<line x1="70" y1="170" x2="70" y2="70" style="stroke-opacity:0.025; stroke-width:0.08"/>
<line x1="770" y1="270" x2="1070" y2="70" style="stroke-opacity:0.025; stroke-width:0.08"/>
<line x1="970" y1="70" x2="1070" y2="70" style="stroke-opacity:0.025; stroke-width:0.08"/>
<line x1="1070" y1="70" x2="770" y2="70" style="stroke-opacity:0.025; stroke-width:0.08"/>
<line x1="1070" y1="70" x2="870" y2="70" style="stroke-opacity:0.025; stroke-width:0.08"/>
</g>

</svg>